<svg width="1453" height="307" viewBox="0 0 1453 307" fill="none" xmlns="http://www.w3.org/2000/svg">
<path d="M1183.75 0.671875C1187.15 0.614158 1190.55 0.747786 1193.95 1.09375L1198.8 1.58594L1203.61 2.07812C1206.67 2.3896 1209.73 2.53388 1212.79 2.5L1217.64 2.42969L1222.46 2.39453C1225.71 2.35843 1228.97 2.35369 1232.23 2.39453L1241.93 2.53516C1245.14 2.57546 1248.36 2.59124 1251.57 2.60547H1256.38L1261.23 2.64062C1264.29 2.65412 1267.35 2.50514 1270.41 2.18359L1275.26 1.65625L1280.08 1.16406C1283.51 0.803642 1286.95 0.667388 1290.38 0.777344L1295.23 0.953125L1300.05 1.09375C1303.18 1.19437 1306.33 1.21731 1309.47 1.12891L1314.29 0.988281L1319.14 0.847656C1322.5 0.752822 1325.86 0.804006 1329.23 1.02344L1334.08 1.33984L1338.89 1.65625C1342.21 1.87244 1345.53 2.19873 1348.84 2.60547L1353.66 3.20312L1358.51 3.80078C1361.27 4.13977 1364.03 4.04084 1366.81 3.51953L1371.66 2.60547L1376.48 1.69141C1380.02 1.02471 1383.6 0.752768 1387.16 0.882812L1391.98 1.05859L1396.83 1.23438C1400.36 1.3635 1403.83 1.85554 1407.24 2.71094L1411.91 3.90625L1416.55 5.06641C1419.93 5.91677 1423.23 7.10027 1426.43 8.58203L1435.29 12.6602C1439.16 14.4531 1442.14 17.3297 1444.12 21.1328L1446.4 25.5625L1448.72 29.9922C1450.52 33.4619 1451.58 37.1622 1451.89 41.0312L1452.66 50.8047C1452.93 54.2058 1453.03 57.5982 1452.98 60.9648L1452.84 70.668C1452.78 73.9131 1452.7 77.1612 1452.59 80.4062L1452.41 85.2578L1452.27 90.0742C1452.16 93.4331 1451.88 96.8079 1451.46 100.164L1450.87 104.98L1450.3 109.832C1449.95 112.741 1449.87 115.645 1450.13 118.551L1450.55 123.402L1450.97 128.219C1451.27 131.564 1451.44 134.926 1451.46 138.273L1451.5 143.125V147.941C1451.52 151.29 1451.42 154.649 1451.15 157.996L1450.38 167.699C1450.13 170.759 1450.04 173.817 1450.13 176.875L1450.27 181.727L1450.41 186.543C1450.5 189.692 1450.66 192.85 1450.9 196L1451.25 200.852L1451.64 205.703C1451.89 208.945 1452.11 212.2 1452.31 215.441L1452.59 220.258L1452.87 225.109C1453.08 228.59 1453.01 232.074 1452.62 235.551L1452.1 240.367L1451.57 245.219C1451.22 248.38 1450.94 251.522 1450.73 254.641L1450.41 259.422L1450.06 264.203C1449.8 267.967 1448.84 271.545 1447.18 274.891L1445.1 279.109L1442.99 283.293C1441.33 286.628 1439.08 289.569 1436.24 292.082L1432.59 295.316L1428.96 298.516C1425.8 301.317 1422.04 302.918 1417.82 303.227L1408.05 303.93C1404.77 304.167 1401.5 304.344 1398.24 304.492L1393.39 304.703L1388.57 304.949C1385.28 305.099 1381.98 305.184 1378.69 305.195H1373.88L1369.02 305.23C1365.73 305.242 1362.44 305.164 1359.14 305.02L1354.29 304.809L1349.48 304.598C1346.39 304.462 1343.28 304.48 1340.2 304.633L1335.38 304.879L1330.53 305.09C1327.14 305.258 1323.75 305.245 1320.37 305.055L1315.55 304.809L1310.7 304.527C1307.43 304.343 1304.16 304.108 1300.89 303.824L1296.04 303.402L1291.22 302.98C1288.38 302.734 1285.53 302.847 1282.68 303.332L1277.86 304.176L1273.01 304.984C1269.55 305.574 1266.08 305.89 1262.61 305.898H1252.9C1249.47 305.906 1246.03 305.679 1242.6 305.195L1237.75 304.492L1232.93 303.824C1229.88 303.393 1226.81 303.129 1223.76 303.051L1218.94 302.945L1214.09 302.805C1211.04 302.727 1208 302.843 1204.95 303.121L1200.1 303.543L1195.28 304C1191.86 304.312 1188.4 304.386 1184.98 304.246L1180.16 304.07L1175.31 303.859C1172.22 303.733 1169.12 303.748 1166.03 303.895L1161.21 304.105L1156.36 304.352C1153 304.511 1149.64 304.511 1146.27 304.352L1141.42 304.105L1136.61 303.895C1133.65 303.754 1130.67 303.857 1127.71 304.246L1122.89 304.914L1118.04 305.547C1114.53 306.008 1111.01 306.116 1107.5 305.898L1102.68 305.617L1097.83 305.301C1094.78 305.112 1091.73 305.104 1088.69 305.266L1083.84 305.512L1078.98 305.793C1075.44 305.981 1071.9 305.772 1068.37 305.195L1063.52 304.387L1058.66 303.613C1055.81 303.148 1052.96 303.017 1050.12 303.262L1045.27 303.684L1040.45 304.105C1036.97 304.406 1033.46 304.41 1029.98 304.105L1025.16 303.684L1020.31 303.262C1017.44 303.011 1014.57 303.077 1011.7 303.508L1006.84 304.246L1002.03 304.984C998.38 305.531 994.708 305.554 991.059 305.055L986.242 304.387L981.391 303.719C978.577 303.334 975.767 303.329 972.953 303.719L968.102 304.387L963.285 305.055C959.636 305.561 955.964 305.559 952.316 305.02L947.5 304.316L942.648 303.578C939.832 303.162 937.024 303.154 934.211 303.508L924.508 304.703C920.959 305.15 917.408 305.22 913.855 304.879L909.004 304.422L904.188 303.965C901.324 303.689 898.444 303.758 895.574 304.176L890.758 304.879L885.906 305.582C882.373 306.097 878.83 306.239 875.289 306.004L870.438 305.652L865.621 305.336C862.59 305.134 859.547 305.149 856.516 305.336L851.664 305.617L846.848 305.934C843.34 306.151 839.803 306.025 836.301 305.582L831.484 304.984L826.633 304.352C823.796 303.994 820.963 304.014 818.125 304.387L813.273 305.02L808.457 305.652C804.996 306.108 801.518 306.282 798.051 306.18L793.199 306.039L788.383 305.898C785.187 305.804 781.981 305.731 778.785 305.688L773.934 305.617L769.082 305.582C765.777 305.537 762.472 305.391 759.168 305.16L754.316 304.809L749.5 304.457C746.539 304.25 743.569 304.317 740.605 304.633L735.754 305.16L730.938 305.652C727.496 306.019 724.046 306.148 720.602 306.004L715.75 305.793L710.934 305.582C707.573 305.442 704.201 305.148 700.844 304.703L695.992 304.07L691.176 303.438C688.415 303.072 685.65 303.152 682.879 303.648L678.027 304.492L673.211 305.371C669.579 306.021 665.922 306.163 662.277 305.793L657.426 305.301L652.609 304.809C649.67 304.51 646.724 304.473 643.785 304.738L638.934 305.195L634.117 305.617C630.51 305.942 626.886 305.823 623.289 305.23L618.473 304.422L613.621 303.648C610.9 303.2 608.189 303.201 605.465 303.684L600.613 304.527L595.797 305.406C592.21 306.042 588.605 306.232 585.004 305.969L580.152 305.617L575.336 305.266C572.164 305.034 568.98 304.856 565.809 304.738L560.992 304.562L556.141 304.352C553.047 304.236 549.953 304.273 546.859 304.422L542.008 304.633L537.156 304.879C533.757 305.042 530.359 304.99 526.961 304.738L517.258 304.035C514.234 303.812 511.21 303.791 508.188 303.965L503.336 304.246L498.52 304.527C495.263 304.715 492.002 304.837 488.746 304.949L479.043 305.301C475.59 305.418 472.121 305.263 468.672 304.844L463.855 304.246L459.004 303.684C456.002 303.319 453.001 303.177 450.004 303.262L445.188 303.367L440.336 303.508C437.15 303.598 433.96 303.725 430.773 303.895L425.922 304.176L421.105 304.422C417.745 304.601 414.376 304.616 411.016 304.492L406.164 304.316L401.348 304.141C398.093 304.02 394.829 303.88 391.574 303.684L386.723 303.367L381.871 303.086C378.884 302.906 375.895 302.949 372.906 303.227L368.055 303.684L363.238 304.141C359.939 304.447 356.624 304.667 353.324 304.809L348.473 305.02L343.656 305.23C340.401 305.37 337.138 305.48 333.883 305.547L329.031 305.617L324.215 305.723C320.833 305.792 317.435 305.694 314.055 305.406L309.203 304.984L304.387 304.562C301.228 304.294 298.052 304.127 294.895 304L290.078 303.789L285.227 303.613C282.171 303.491 279.107 303.531 276.051 303.754L271.234 304.105L266.383 304.457C262.941 304.708 259.488 304.706 256.047 304.457L251.23 304.105L246.379 303.754C243.332 303.534 240.285 303.482 237.238 303.613L227.535 304.035C224.407 304.171 221.278 304.41 218.148 304.738L213.297 305.23L208.48 305.758C204.943 306.128 201.4 306.101 197.863 305.723L193.012 305.23L188.16 304.703C185.182 304.384 182.206 304.301 179.23 304.457L169.527 304.949C166.032 305.132 162.54 304.994 159.051 304.527L154.199 303.895L149.348 303.227C146.391 302.831 143.438 302.716 140.488 302.84L130.785 303.262C127.504 303.4 124.223 303.44 120.941 303.438H111.238C108.157 303.436 105.075 303.58 101.992 303.859L97.1406 304.281L92.3242 304.738C88.9191 305.047 85.5008 305.136 82.0938 305.02L77.2422 304.844L72.3906 304.703C69.2049 304.594 66.0138 304.526 62.8281 304.492L58.0117 304.422L53.1602 304.387C49.7003 304.35 46.2636 304.049 42.8594 303.473L38.1133 302.664L33.332 301.855C29.3082 301.171 25.7427 299.422 22.75 296.652L19.2344 293.383L15.6836 290.113C12.843 287.483 10.7098 284.336 9.32031 280.762L7.63281 276.402L5.91016 272.008C4.64884 268.764 3.76685 265.364 3.23828 261.848L2.5 257.066L1.79688 252.285C1.25196 248.66 1.22467 244.999 1.72656 241.352L2.39453 236.5L3.0625 231.684C3.46354 228.769 3.5573 225.838 3.34375 222.93L2.99219 218.113L2.64062 213.262C2.40573 210.063 2.1184 206.863 1.83203 203.664L1.41016 198.812L0.988281 193.996C0.666135 190.398 0.767485 186.792 1.33984 183.203L2.11328 178.387L2.88672 173.535C3.33796 170.706 3.40658 167.884 3.09766 165.062L2.57031 160.211L2.04297 155.395C1.66078 151.909 1.59084 148.406 1.83203 144.918L2.18359 140.066L2.5 135.215C2.72449 131.98 2.9789 128.746 3.23828 125.512L3.625 120.66L4.01172 115.844C4.25012 112.871 4.23148 109.887 3.97656 106.914L3.55469 102.062L3.16797 97.2109C2.87961 93.8515 2.72043 90.4821 2.74609 87.1211L2.78125 82.3047L2.85156 77.4531C2.87555 74.3049 2.81063 71.1445 2.67578 67.9961L2.46484 63.1797L2.25391 58.3281C2.10364 54.8124 2.28094 51.3092 2.81641 47.8516L4.29297 38.3594C4.8669 34.6596 6.09477 31.1712 7.94922 27.918L12.7305 19.5508C14.7559 16.0043 17.627 13.2668 21.2734 11.4297L25.5625 9.28516L29.8516 7.10547C32.9174 5.56234 36.0077 4.4841 38.8516 4.46875L41.5586 4.43359H43.7383C44.0532 4.08608 44.3363 3.80463 44.5469 3.66016C45.176 3.2311 45.7771 3.0381 46.0586 2.95703C46.6855 2.77663 47.3387 2.68299 47.8164 2.64062C48.8528 2.54906 50.2513 2.55245 51.8945 2.57031L56.7109 2.60547L61.5625 2.64062C64.797 2.67579 68.0312 2.74979 71.2656 2.81641L80.9688 3.02734C84.0918 3.09141 87.2322 3.02498 90.3555 2.88672L95.1719 2.67578L100.023 2.46484C103.458 2.31331 106.893 2.40458 110.324 2.74609L115.176 3.23828L119.992 3.73047C123.091 4.03934 126.211 4.21284 129.309 4.25781L134.125 4.32812L138.977 4.39844C142.152 4.44454 145.329 4.42282 148.504 4.36328L153.355 4.29297L158.172 4.1875C161.352 4.12788 164.554 4.02642 167.734 3.87109L172.551 3.625L177.402 3.37891C180.602 3.22259 183.801 3.0462 187 2.85156L196.703 2.28906C200.09 2.08349 203.477 2.04438 206.863 2.21875L211.715 2.46484L216.531 2.74609C219.489 2.89862 222.463 2.79197 225.426 2.42969L235.129 1.23438C238.825 0.782687 242.523 0.900433 246.203 1.62109L251.055 2.57031L255.871 3.51953C258.808 4.09477 261.74 4.37216 264.66 4.36328H269.512L274.363 4.32812C277.429 4.3174 280.506 4.1613 283.574 3.83594L288.391 3.34375L293.242 2.81641C296.512 2.46972 299.781 2.17253 303.051 1.9375L312.754 1.23438C316.293 0.981216 319.839 1.12467 323.371 1.62109L328.188 2.28906L333.039 2.95703C335.842 3.35104 338.638 3.35214 341.441 2.95703L346.293 2.28906L351.145 1.58594C354.563 1.10318 357.986 0.863397 361.41 0.847656L366.262 0.8125H371.078C374.306 0.797967 377.554 0.786074 380.781 0.777344L385.598 0.742188H390.449C393.775 0.733191 397.108 0.843317 400.434 1.05859L405.25 1.375L410.102 1.69141C413.148 1.88864 416.196 1.88379 419.242 1.72656L428.945 1.23438C432.46 1.05345 435.985 1.22012 439.492 1.72656L444.309 2.42969L449.16 3.13281C452.079 3.55392 455.003 3.66806 457.914 3.48438L462.73 3.16797L467.582 2.85156C471.016 2.63511 474.45 2.68935 477.883 2.95703L482.734 3.30859L487.551 3.69531C490.665 3.93827 493.79 4.06965 496.902 4.08203L501.754 4.11719H506.57C509.648 4.12935 512.737 4.01342 515.816 3.73047L520.668 3.27344L525.484 2.81641C528.737 2.51716 532.005 2.243 535.258 2.00781L540.109 1.65625L544.926 1.33984C548.316 1.09477 551.73 1.03404 555.121 1.16406L559.938 1.33984L564.789 1.51562C568.102 1.64274 571.426 1.85867 574.738 2.18359L579.555 2.67578L584.406 3.13281C587.501 3.43638 590.594 3.61627 593.688 3.66016L603.391 3.80078C606.52 3.84451 609.648 3.79891 612.777 3.66016L617.629 3.44922L622.445 3.23828C625.709 3.09335 628.99 2.97614 632.254 2.92188L637.105 2.85156L641.922 2.78125C645.069 2.729 648.232 2.59966 651.379 2.39453L661.082 1.76172C664.346 1.54882 667.627 1.38847 670.891 1.26953L675.707 1.09375L680.559 0.917969C684.08 0.790297 687.596 1.01054 691.105 1.58594L695.957 2.35938L700.809 3.16797C703.708 3.64252 706.605 3.78703 709.492 3.625L714.309 3.37891L719.16 3.09766C722.559 2.90696 725.957 2.92605 729.355 3.13281L734.207 3.41406L739.023 3.69531C741.955 3.87381 744.91 3.7744 747.848 3.37891L752.664 2.74609L757.516 2.07812C761.023 1.60613 764.549 1.48629 768.062 1.69141L772.879 1.97266L777.73 2.25391L792.18 2.99219L797.031 3.23828C800.253 3.39343 803.478 3.54556 806.699 3.69531L811.551 3.90625L816.367 4.11719C819.472 4.26149 822.579 4.28231 825.684 4.1875L835.387 3.90625C838.432 3.8124 841.478 3.53889 844.527 3.09766L854.23 1.69141C857.691 1.19087 861.168 0.989816 864.637 1.05859L869.453 1.12891L874.305 1.23438C877.739 1.3026 881.179 1.60243 884.605 2.14844L889.422 2.92188L894.273 3.69531C897.163 4.15577 900.042 4.28197 902.922 4.08203L907.773 3.76562L912.59 3.41406C915.91 3.1833 919.253 3.0811 922.574 3.0625L927.391 3.02734L932.242 2.99219C935.453 2.97419 938.664 2.96102 941.875 2.92188L946.727 2.85156L951.543 2.78125C954.737 2.7423 957.946 2.69823 961.141 2.60547L970.844 2.32422C973.982 2.23277 977.126 2.02579 980.266 1.76172L985.082 1.375L989.934 0.953125C993.511 0.652234 997.088 0.79395 1000.66 1.33984L1010.36 2.81641C1013.19 3.24874 1016.01 3.30102 1018.83 2.99219L1028.54 1.9375C1031.88 1.5706 1035.24 1.35376 1038.59 1.26953L1043.41 1.12891L1048.26 1.02344C1051.58 0.939994 1054.92 0.953042 1058.24 1.09375L1063.06 1.30469L1067.91 1.51562C1071.23 1.65623 1074.54 1.90326 1077.86 2.25391L1082.71 2.74609L1087.53 3.27344C1090.54 3.59158 1093.56 3.6767 1096.56 3.55469L1101.38 3.37891L1106.23 3.16797C1109.55 3.03334 1112.86 3.02347 1116.18 3.09766L1121.03 3.20312L1125.85 3.30859C1128.89 3.37677 1131.95 3.25176 1134.99 2.95703L1139.84 2.5L1144.69 2.00781C1148.01 1.68643 1151.32 1.48156 1154.64 1.375L1159.49 1.23438L1164.31 1.05859C1167.55 0.954446 1170.8 0.868178 1174.05 0.8125L1183.75 0.671875ZM1179.04 9.74219L1174.22 9.8125C1171.02 9.86742 1167.79 9.95574 1164.59 10.0586L1159.77 10.2344L1154.92 10.375C1151.8 10.4756 1148.66 10.6694 1145.54 10.9727L1140.72 11.4648L1135.87 11.9219C1132.47 12.2513 1129.07 12.3844 1125.67 12.3086L1120.82 12.2031L1116 12.0977C1112.87 12.0275 1109.71 12.0409 1106.58 12.168L1101.77 12.3789L1096.91 12.5547C1093.47 12.6942 1090.02 12.6021 1086.58 12.2383L1081.76 11.7109L1076.91 11.2188C1073.78 10.8878 1070.65 10.6481 1067.52 10.5156L1062.67 10.3047L1057.86 10.0938C1054.73 9.96148 1051.59 9.94483 1048.47 10.0234L1043.65 10.1289L1038.8 10.2695C1035.71 10.3474 1032.61 10.5629 1029.52 10.9023L1019.82 11.957C1016.21 12.3524 1012.59 12.2627 1008.99 11.7109L1004.14 10.9727L999.32 10.2344C996.449 9.79437 993.57 9.67861 990.707 9.91797L981.004 10.7617C977.701 11.0393 974.393 11.2282 971.09 11.3242L966.238 11.4648L961.422 11.6055C958.177 11.6998 954.928 11.7416 951.684 11.7812L941.98 11.9219C938.75 11.9612 935.508 11.9741 932.277 11.9922L927.461 12.0273L922.609 12.0625C919.481 12.0801 916.351 12.1966 913.223 12.4141L908.371 12.7305L903.555 13.082C899.99 13.3298 896.422 13.1554 892.867 12.5898L883.164 11.043C880.149 10.5632 877.137 10.2943 874.129 10.2344L869.277 10.1289L864.461 10.0586C861.484 9.99956 858.48 10.1888 855.496 10.6211L850.68 11.3242L845.828 11.9922C842.443 12.4824 839.058 12.8016 835.668 12.9062L825.965 13.1875C822.628 13.2896 819.282 13.2723 815.945 13.1172L811.129 12.9062L806.277 12.6602C803.055 12.5103 799.832 12.3583 796.609 12.2031L791.758 11.9922L786.906 11.7461C783.672 11.5903 780.438 11.4076 777.203 11.2188L772.352 10.9375L767.535 10.6562C764.6 10.4849 761.652 10.6118 758.711 11.0078L753.859 11.6406L749.043 12.3086C745.533 12.7812 742.012 12.909 738.496 12.6953L733.645 12.4141L728.828 12.0977C725.778 11.9119 722.702 11.9265 719.652 12.0977L714.836 12.3438L709.984 12.625C706.43 12.8241 702.875 12.644 699.332 12.0625L694.48 11.2539L689.664 10.4453C686.73 9.96382 683.798 9.77632 680.875 9.88281L676.023 10.0586L671.207 10.2344C668.025 10.3503 664.827 10.5189 661.645 10.7266L656.828 11.043L651.977 11.3594C648.684 11.5742 645.391 11.7264 642.098 11.7812L637.246 11.8516L632.43 11.9219C629.248 11.9747 626.049 12.097 622.867 12.2383L618.016 12.4492L613.199 12.6602C609.887 12.8072 606.563 12.8474 603.25 12.8008L598.398 12.7305L593.582 12.6602C590.232 12.613 586.876 12.426 583.527 12.0977L578.676 11.6406L573.859 11.1484C570.723 10.8407 567.573 10.6359 564.438 10.5156L559.586 10.3398L554.77 10.1289C551.713 10.0117 548.652 10.0839 545.594 10.3047L540.742 10.6562L535.926 11.0078C532.731 11.2387 529.523 11.4874 526.328 11.7812L521.477 12.2383L516.66 12.6602C513.293 12.9699 509.904 13.1305 506.535 13.1172H501.719L496.867 13.082C493.532 13.0688 490.182 12.9203 486.848 12.6602L482.031 12.3086L477.18 11.9219C474.168 11.6872 471.156 11.6616 468.145 11.8516L463.293 12.168L458.477 12.4492C454.94 12.6724 451.389 12.537 447.859 12.0273L443.043 11.3242L438.191 10.6211C435.258 10.1977 432.328 10.0834 429.402 10.2344L424.551 10.4805L419.734 10.7266C416.341 10.9022 412.933 10.8753 409.539 10.6562L399.836 10.0234C396.719 9.8219 393.601 9.73398 390.484 9.74219H385.633L380.816 9.77734C377.599 9.78605 374.366 9.79802 371.148 9.8125H366.297L361.445 9.84766C358.436 9.86177 355.425 10.09 352.41 10.5156L347.559 11.1836L342.707 11.8867C339.069 12.4001 335.411 12.398 331.773 11.8867L326.957 11.2188L322.105 10.5156C319.195 10.107 316.29 10.0259 313.387 10.2344L308.535 10.5859L303.719 10.9023C300.546 11.1303 297.365 11.4447 294.191 11.7812L289.34 12.2734L284.523 12.8008C281.147 13.1589 277.743 13.3169 274.363 13.3281L269.547 13.3633H264.695C261.172 13.3745 257.655 13.0307 254.148 12.3438L249.297 11.4297L244.48 10.4805C241.718 9.93935 238.965 9.8283 236.219 10.1641L231.367 10.7617L226.551 11.3594C223.069 11.7862 219.561 11.8907 216.074 11.7109L211.258 11.4648L206.406 11.2188C203.35 11.0611 200.287 11.0679 197.23 11.2539L192.414 11.5703L187.562 11.8516C184.32 12.0489 181.067 12.2205 177.824 12.3789L173.008 12.625L168.156 12.8711C164.887 13.0308 161.617 13.1262 158.348 13.1875L153.496 13.293L148.68 13.3633C145.405 13.4247 142.111 13.446 138.836 13.3984L134.02 13.3281L129.168 13.2578C125.816 13.209 122.463 12.994 119.113 12.6602L114.262 12.2031L109.445 11.7109C106.434 11.4108 103.419 11.3316 100.41 11.4648L95.5586 11.6758L90.7422 11.8867C87.4201 12.0338 84.0801 12.0607 80.7578 11.9922L75.9414 11.9219L71.0898 11.8164C67.881 11.7503 64.6658 11.6755 61.457 11.6406L56.6406 11.6055L51.7891 11.5352C51.1824 11.5286 50.6565 11.5294 50.207 11.5352C49.7107 12.0716 49.2608 12.4712 48.9766 12.625C48.2435 13.0195 47.4973 13.1527 47.1133 13.2227C46.2629 13.3761 45.26 13.4296 44.3008 13.4336H41.5938L38.8867 13.4688C38.1213 13.4768 36.5259 13.8318 33.8945 15.1562L29.6055 17.3008L25.3164 19.4805C23.2544 20.5217 21.6825 22.0054 20.5352 24.0156L18.1445 28.1992L15.7891 32.3477C14.4749 34.6501 13.5946 37.113 13.1875 39.7305L12.4492 44.5117L11.7109 49.2578C11.2684 52.1224 11.129 55.0165 11.2539 57.9414L11.4648 62.793L11.6758 67.6094C11.8171 70.9094 11.8767 74.2232 11.8516 77.5234L11.7812 82.375L11.7461 87.1914C11.7225 90.2758 11.8675 93.3867 12.1328 96.4727L12.5547 101.289L12.9414 106.141C13.2391 109.609 13.2546 113.078 12.9766 116.547L12.5898 121.398L12.2031 126.215C11.9459 129.422 11.7226 132.64 11.5 135.848L11.1484 140.699L10.832 145.516C10.6269 148.472 10.6833 151.451 11.0078 154.41L11.5352 159.227L12.0625 164.078C12.4595 167.702 12.3573 171.326 11.7812 174.941L11.0078 179.793L10.2344 184.609C9.77811 187.47 9.69793 190.336 9.95312 193.188L10.375 198.039L10.7969 202.855C11.0872 206.099 11.3672 209.35 11.6055 212.594L12.3086 222.297C12.5677 225.835 12.443 229.382 11.957 232.914L11.3242 237.73L10.6562 242.582C10.2716 245.379 10.2774 248.15 10.6914 250.914L11.3945 255.73L12.1328 260.512C12.5654 263.39 13.2997 266.133 14.3125 268.738L16 273.133L17.7227 277.527C18.6064 279.796 19.9432 281.783 21.8008 283.504L25.3516 286.773L28.8672 290.043C30.5729 291.621 32.5365 292.569 34.8438 292.961L39.5898 293.77L44.3711 294.578C47.3068 295.075 50.2783 295.355 53.2656 295.387L58.082 295.422L62.9336 295.492C66.1914 295.526 69.4492 295.591 72.707 295.703L77.5586 295.879L82.375 296.02C85.4123 296.124 88.4763 296.049 91.5156 295.773L96.332 295.352L101.184 294.895C104.541 294.59 107.914 294.435 111.273 294.438H120.941C124.094 294.44 127.246 294.395 130.398 294.262L140.102 293.84C143.585 293.693 147.066 293.867 150.543 294.332L155.395 294.965L160.246 295.633C163.19 296.026 166.132 296.139 169.07 295.984L173.922 295.738L178.738 295.457C182.203 295.275 185.683 295.367 189.145 295.738L193.961 296.266L198.812 296.793C201.72 297.105 204.624 297.097 207.531 296.793L212.383 296.301L217.199 295.773C220.511 295.426 223.836 295.179 227.148 295.035L232 294.824L236.852 294.648C240.245 294.502 243.654 294.544 247.047 294.789L251.863 295.141L256.715 295.492C259.714 295.708 262.715 295.71 265.715 295.492L275.418 294.789C278.805 294.543 282.191 294.478 285.578 294.613L290.43 294.789L295.246 295C298.534 295.132 301.838 295.318 305.125 295.598L314.828 296.441C317.888 296.701 320.946 296.785 324.004 296.723L328.855 296.617L333.672 296.547C336.863 296.482 340.078 296.367 343.27 296.23L348.086 296.02L352.938 295.809C356.088 295.674 359.244 295.469 362.395 295.176L367.211 294.719L372.062 294.262C375.515 293.941 378.979 293.913 382.434 294.121L387.25 294.402L392.102 294.684C395.289 294.876 398.477 295.023 401.664 295.141L406.516 295.352L411.332 295.527C414.421 295.642 417.524 295.586 420.613 295.422L425.465 295.176L430.281 294.93C433.544 294.756 436.827 294.6 440.09 294.508L444.906 294.402L449.758 294.262C453.205 294.165 456.651 294.301 460.094 294.719L464.945 295.316L469.762 295.914C472.757 296.278 475.771 296.403 478.762 296.301L483.578 296.125L488.43 295.984C491.617 295.875 494.804 295.711 497.992 295.527L502.844 295.246L507.66 294.965C511.078 294.768 514.508 294.817 517.926 295.07L527.629 295.773C530.665 295.998 533.699 296.025 536.734 295.879L541.586 295.668L546.402 295.422C549.75 295.261 553.109 295.263 556.457 295.387L566.16 295.738C569.43 295.86 572.7 296.027 575.969 296.266L585.672 296.969C588.514 297.176 591.359 297.052 594.215 296.547L599.066 295.668L603.883 294.824C607.608 294.164 611.369 294.14 615.098 294.754L619.914 295.562L624.766 296.336C627.618 296.806 630.466 296.909 633.309 296.652L638.125 296.23L642.977 295.809C646.487 295.492 650.013 295.488 653.523 295.844L658.34 296.336L663.191 296.828C665.994 297.112 668.813 297.016 671.629 296.512L676.445 295.633L681.297 294.789C684.97 294.132 688.653 294.021 692.336 294.508L697.188 295.141L702.039 295.809C705.122 296.216 708.205 296.488 711.285 296.617L716.137 296.793L720.953 297.004C723.955 297.129 726.983 297.043 729.988 296.723L734.805 296.195L739.656 295.703C743.143 295.332 746.643 295.248 750.133 295.492L754.949 295.844L759.801 296.16C762.94 296.38 766.084 296.54 769.223 296.582L774.039 296.617L778.891 296.688C782.136 296.731 785.383 296.803 788.629 296.898L793.48 297.039L798.297 297.18C801.277 297.268 804.275 297.115 807.262 296.723L812.113 296.09L816.93 295.457C820.532 294.983 824.155 294.968 827.758 295.422L832.609 296.055L837.461 296.652C840.403 297.023 843.348 297.115 846.285 296.934L851.102 296.652L855.953 296.336C859.37 296.125 862.802 296.144 866.219 296.371L871.035 296.688L875.887 297.004C878.791 297.197 881.694 297.077 884.605 296.652L889.457 295.949L894.273 295.246C897.852 294.725 901.446 294.656 905.031 295L909.883 295.457L914.699 295.914C917.59 296.192 920.489 296.138 923.383 295.773L928.234 295.176L933.051 294.578C936.678 294.12 940.326 294.149 943.949 294.684L948.801 295.387L953.652 296.125C956.45 296.537 959.259 296.548 962.055 296.16L966.871 295.492L971.723 294.824C975.352 294.321 978.991 294.292 982.621 294.789L987.438 295.457L992.289 296.125C995.089 296.508 997.889 296.51 1000.69 296.09L1005.54 295.352L1010.36 294.613C1013.93 294.079 1017.51 293.985 1021.08 294.297L1030.79 295.141C1033.75 295.399 1036.72 295.396 1039.68 295.141L1044.5 294.719L1049.35 294.297C1052.95 293.987 1056.55 294.132 1060.14 294.719L1064.96 295.527L1069.81 296.301C1072.72 296.777 1075.63 296.947 1078.53 296.793L1083.34 296.547L1088.2 296.266C1091.59 296.085 1094.99 296.091 1098.39 296.301L1103.21 296.617L1108.06 296.934C1110.99 297.115 1113.94 297.004 1116.88 296.617L1121.7 295.984L1126.55 295.352C1130.04 294.893 1133.53 294.728 1137.03 294.895L1141.84 295.141L1146.7 295.352C1149.78 295.498 1152.86 295.497 1155.94 295.352L1160.79 295.141L1165.61 294.895C1168.97 294.736 1172.34 294.722 1175.7 294.859L1180.52 295.07L1185.37 295.281C1188.39 295.405 1191.41 295.311 1194.44 295.035L1199.29 294.578L1204.11 294.156C1207.5 293.846 1210.94 293.718 1214.34 293.805L1219.15 293.945L1224 294.051C1227.4 294.138 1230.81 294.452 1234.2 294.93L1239.02 295.598L1243.87 296.266C1246.88 296.69 1249.9 296.905 1252.9 296.898H1262.57C1265.54 296.892 1268.52 296.632 1271.5 296.125L1276.35 295.281L1281.17 294.473C1284.77 293.86 1288.39 293.702 1292 294.016L1296.85 294.438L1301.66 294.859C1304.84 295.135 1308.05 295.348 1311.23 295.527L1316.04 295.809L1320.89 296.09C1323.95 296.262 1327.01 296.276 1330.07 296.125L1339.77 295.633C1343.13 295.466 1346.5 295.45 1349.86 295.598L1354.68 295.809L1359.53 296.02C1362.68 296.158 1365.84 296.242 1368.99 296.23L1373.84 296.195H1378.66C1381.82 296.184 1384.99 296.093 1388.15 295.949L1393 295.738L1397.82 295.492C1401 295.347 1404.21 295.162 1407.41 294.93L1412.3 294.578L1417.15 294.227C1419.42 294.063 1421.31 293.28 1422.99 291.801L1426.64 288.566L1430.27 285.367C1432.27 283.593 1433.81 281.556 1434.94 279.285L1437.05 275.066L1439.12 270.883C1440.25 268.623 1440.91 266.204 1441.09 263.605L1441.73 254.043C1441.95 250.795 1442.24 247.52 1442.61 244.234L1443.17 239.383L1443.7 234.566C1444.02 231.595 1444.09 228.605 1443.91 225.637L1443.62 220.82L1443.31 215.969C1443.11 212.769 1442.88 209.571 1442.64 206.371L1442.29 201.52L1441.94 196.703C1441.69 193.408 1441.5 190.085 1441.41 186.789L1441.27 181.973L1441.13 177.121C1441.03 173.737 1441.14 170.344 1441.41 166.961L1441.8 162.145L1442.18 157.293C1442.43 154.199 1442.52 151.105 1442.5 148.012V143.16L1442.46 138.344C1442.45 135.243 1442.28 132.129 1442.01 129.027L1441.59 124.176L1441.16 119.359C1440.85 115.824 1440.91 112.274 1441.34 108.742L1442.54 99.0391C1442.91 95.9551 1443.17 92.8742 1443.27 89.793L1443.41 84.9414L1443.59 80.0898C1443.7 76.8945 1443.78 73.6875 1443.84 70.4922L1443.91 65.6758L1443.98 60.8242C1444.03 57.7523 1443.94 54.6587 1443.7 51.543L1443.31 46.6211L1442.92 41.7344C1442.71 39.0786 1441.96 36.5602 1440.71 34.1406L1436.14 25.2812C1435.05 23.2039 1433.52 21.7887 1431.5 20.8516L1427.1 18.7773L1422.67 16.7383C1419.97 15.488 1417.2 14.4967 1414.38 13.7852L1409.73 12.625L1405.06 11.4648C1402.27 10.7625 1399.42 10.3416 1396.52 10.2344L1386.81 9.88281C1383.93 9.77846 1381.03 10.006 1378.13 10.5508L1373.31 11.4648L1368.46 12.3438C1364.79 13.0331 1361.11 13.1823 1357.42 12.7305L1352.57 12.1328L1347.75 11.5352C1344.62 11.1498 1341.47 10.8612 1338.33 10.6562L1328.63 10.0234C1325.55 9.82274 1322.46 9.76079 1319.38 9.84766L1314.57 9.98828L1309.71 10.1289C1306.4 10.2224 1303.08 10.2002 1299.77 10.0938L1294.91 9.95312L1290.1 9.77734C1287.08 9.68045 1284.05 9.81112 1281.03 10.1289L1276.21 10.6211L1271.36 11.1133C1267.97 11.4693 1264.59 11.6554 1261.2 11.6406L1256.35 11.6055H1251.53C1248.29 11.5911 1245.03 11.5407 1241.79 11.5L1236.98 11.4648L1232.12 11.3945C1228.94 11.3545 1225.75 11.3592 1222.56 11.3945L1217.71 11.4297L1212.89 11.5C1209.5 11.5376 1206.09 11.3885 1202.7 11.043L1197.88 10.5508L1193.03 10.0586C1189.98 9.74807 1186.94 9.61967 1183.89 9.67188L1179.04 9.74219Z" fill="black"/>
</svg>
