<svg width="2543" height="326" viewBox="0 0 2543 326" fill="none" xmlns="http://www.w3.org/2000/svg">
<path d="M1149.35 0.261719C1159.86 0.225685 1170.38 0.644755 1180.89 1.52344L1196.36 2.78516L1211.77 4.11328C1221.62 4.93731 1231.47 5.03613 1241.32 4.37891L1256.79 3.31641L1272.2 2.32031C1283.21 1.58407 1294.23 2.19803 1305.2 4.24609L1320.61 7.16797L1336.02 10.0234C1345.57 11.8055 1355.12 12.3258 1364.64 11.5508L1380.04 10.2891L1395.52 9.02734C1406.31 8.14788 1417.13 8.20471 1427.92 9.29297L1443.33 10.8867L1458.73 12.4141C1468.75 13.4241 1478.8 13.9567 1488.82 14.0078L1504.22 14.0742L1519.63 14.207C1529.56 14.2577 1539.51 13.6607 1549.45 12.4805L1564.92 10.6875L1580.32 8.82812C1590.68 7.59723 1601.05 6.47515 1611.4 5.50781L1626.81 4.11328L1642.21 2.65234C1652.89 1.65465 1663.61 1.39345 1674.29 1.92188L1689.76 2.71875L1705.17 3.44922C1715.66 3.96933 1726.15 4.90898 1736.64 6.23828L1752.12 8.23047L1767.52 10.1562C1777.51 11.4218 1787.5 12.1663 1797.47 12.3477L1828.29 12.8789C1838.35 13.0618 1848.44 12.8579 1858.5 12.2812L1873.97 11.418L1889.38 10.5547C1899.76 9.95907 1910.14 9.51593 1920.52 9.29297L1936 8.96094L1951.4 8.62891C1961.51 8.41203 1971.64 7.88762 1981.75 7.03516L1997.16 5.70703L2012.56 4.44531C2022.95 3.56911 2033.38 2.87598 2043.77 2.38672L2074.59 0.925781C2085.6 0.407054 2096.62 1.32425 2107.59 3.64844L2123.06 6.90234L2138.47 10.2227C2147.99 12.2415 2157.48 12.8353 2166.96 12.1484L2182.36 11.0859L2197.84 9.95703C2208.54 9.18232 2219.27 9.18124 2229.98 10.0234L2245.38 11.2852L2260.79 12.4805C2270.36 13.2333 2279.95 12.7549 2289.54 11.0859L2304.95 8.42969L2320.36 5.70703C2331.32 3.79867 2342.37 3.28395 2353.36 4.11328L2368.77 5.24219L2384.17 6.4375C2394.41 7.21013 2404.68 7.92498 2414.92 8.5625L2430.39 9.49219L2445.8 10.4883C2456.61 11.1617 2466.7 12.7816 2476.01 15.4688L2488.96 19.2539L2501.91 22.9727C2507.51 24.5889 2512.44 27.4195 2516.25 31.6719C2520.05 35.9147 2522.4 41.1185 2523.49 46.8789L2526.02 60.4922L2528.61 74.1055C2530.32 83.1701 2532.13 92.8448 2534.05 103.125L2536.97 118.598L2539.83 134.004C2541.86 144.856 2542.76 155.727 2542.48 166.609L2542.09 182.082L2541.69 197.488C2541.41 208.299 2540.11 219.012 2537.84 229.629L2534.58 244.77L2531.33 259.977C2528.89 271.334 2524.12 280.92 2516.52 287.934L2507.49 296.234L2498.52 304.535C2490.59 311.856 2480.2 315.137 2468.38 315.227L2452.9 315.359L2437.5 315.492C2427.24 315.566 2416.94 315.663 2406.68 315.824L2391.28 316.09L2375.87 316.289C2365.65 316.45 2355.41 316.702 2345.19 317.086L2329.79 317.684L2314.31 318.281C2304.24 318.66 2294.17 319.378 2284.1 320.473L2268.62 322.199L2253.22 323.859C2242.07 325.07 2230.93 324.531 2219.82 322.332L2204.34 319.277L2188.94 316.223C2179.58 314.372 2170.24 314.103 2160.91 315.426L2130.1 319.809C2119.52 321.311 2108.89 322.253 2098.29 322.598L2082.89 323.129L2067.48 323.594C2056.95 323.936 2046.4 323.837 2035.87 323.262L2020.4 322.398L2004.99 321.602C1994.48 321.026 1983.96 319.983 1973.45 318.547L1958.04 316.422L1942.64 314.363C1932.88 313.03 1923.1 312.591 1913.35 313.102L1897.95 313.898L1882.47 314.695C1871.96 315.246 1861.44 315.398 1850.93 315.094L1820.12 314.164C1810.28 313.879 1800.41 314.392 1790.57 315.625L1775.09 317.551L1759.69 319.477C1749.18 320.795 1738.66 321.696 1728.14 322.133L1712.67 322.797L1697.27 323.395C1686.93 323.824 1676.59 324.162 1666.25 324.391L1650.85 324.723L1635.38 325.055C1624.66 325.291 1613.94 324.737 1603.23 323.328L1587.83 321.27L1572.36 319.277C1562.48 317.979 1552.6 317.343 1542.74 317.484L1527.33 317.75L1511.93 317.949C1501.55 318.098 1491.15 318.118 1480.78 317.949L1449.97 317.418C1439.71 317.251 1429.41 317.145 1419.16 317.086L1403.75 317.02L1388.34 316.887C1378.46 316.83 1368.55 317.469 1358.66 318.812L1343.25 320.938L1327.78 323.062C1317.01 324.525 1306.22 325.037 1295.44 324.59L1280.04 323.926L1264.56 323.262C1254.51 322.846 1244.46 322.829 1234.41 323.195L1218.94 323.793L1203.54 324.324C1192.91 324.711 1182.28 324.49 1171.66 323.594L1156.25 322.266L1140.78 320.938C1130.3 320.052 1119.78 318.816 1109.3 317.152L1078.49 312.238C1069.35 310.786 1060.2 311.139 1051 313.367L1035.53 317.152L1020.12 320.871C1009.07 323.555 997.968 324.649 986.852 324.125L971.445 323.395L955.973 322.664C945.375 322.163 934.751 321.109 924.164 319.41L908.758 316.887L893.352 314.43C884.093 312.944 874.811 313.175 865.527 315.094L834.715 321.469C823.808 323.723 812.857 324.693 801.91 324.391L786.438 323.992L771.031 323.527C760.871 323.245 750.711 323.189 740.551 323.328L725.078 323.527L709.672 323.727C699.29 323.869 688.909 323.816 678.527 323.594L663.121 323.328L647.648 322.996C637.31 322.775 626.975 322.379 616.637 321.934L601.23 321.27L585.758 320.605C575.151 320.148 564.545 319.097 553.949 317.418L538.543 314.961L523.07 312.57C513.545 311.063 504.027 310.826 494.516 311.906L479.109 313.633L463.703 315.426C453.123 316.627 442.48 317.27 431.895 317.352L416.488 317.418L401.082 317.551C390.482 317.632 379.868 317.116 369.273 316.023L353.867 314.43L338.395 312.836C328.52 311.819 318.647 311.548 308.777 311.906L293.305 312.438L277.898 312.969C267.786 313.337 257.665 314.041 247.551 315.027L232.145 316.555L216.672 318.016C206.344 319.023 195.988 319.988 185.66 320.805L154.848 323.195C143.935 324.059 133.009 323.752 122.109 322.199L106.703 320.008L91.2305 317.816C80.5233 316.29 70.4722 313.959 61.082 310.91L47.7344 306.594L34.4531 302.277C28.68 300.403 23.6768 297.248 19.9766 292.582C16.2977 287.942 14.3076 282.344 13.6016 276.246L11.875 261.637L10.2148 247.027C9.09472 237.348 7.8223 227.376 6.42969 217.145L4.37109 201.738L2.24609 186.332C0.756659 175.389 0.594106 164.412 1.71484 153.461L3.24219 137.988L4.83594 122.582C5.84915 112.695 6.1497 102.748 5.76562 92.7656L5.16797 77.2266L4.57031 61.6211C4.09378 49.0911 8.1494 38.3307 17.5859 30.875L28.0117 22.707L38.3711 14.4727C41.8391 11.7341 44.5778 9.65498 46.4727 8.29688C47.3672 7.656 48.2954 6.97959 49.1289 6.50391C49.4031 6.34738 50.3885 5.84153 51.5859 5.50781C51.9903 5.39415 54.0092 4.77274 56.4336 5.50781C57.4532 5.81912 58.472 6.53861 59.4883 7.43359C61.8293 7.55236 65.1523 7.6377 69.5156 7.69922L84.9883 7.96484L100.395 8.16406C110.707 8.30894 121.027 8.48718 131.34 8.76172L146.812 9.16016L162.219 9.625C172.266 9.89257 182.319 9.73496 192.367 9.16016L207.773 8.23047L223.246 7.36719C234.049 6.75102 244.86 7.17244 255.652 8.5625L271.059 10.5547L286.531 12.4805C296.498 13.7631 306.455 14.5509 316.414 14.7383L331.887 15.0039L347.293 15.2695C357.453 15.46 367.614 15.4493 377.773 15.2031L393.18 14.8711L408.652 14.4727C418.812 14.2262 428.973 13.7856 439.133 13.1445L454.605 12.1484L470.012 11.2188C480.252 10.5723 490.517 9.83264 500.758 9.02734L516.164 7.76562L531.57 6.57031C542.255 5.7301 552.959 5.66051 563.645 6.37109L579.117 7.43359L594.523 8.42969C604.166 9.07219 613.814 8.63149 623.477 7.10156L638.883 4.64453L654.355 2.25391C665.797 0.442653 677.244 0.967672 688.621 3.84766L704.027 7.76562L719.5 11.6836C729.097 14.1098 738.657 15.2429 748.188 15.2031L763.66 15.1367L779.066 15.0703C788.971 15.0273 798.902 14.3705 808.816 13.0117L839.629 8.76172C850.025 7.3369 860.441 6.14139 870.84 5.17578L886.312 3.78125L901.719 2.32031C912.772 1.29441 923.83 1.78166 934.855 3.78125L950.328 6.57031L965.734 9.42578C975.012 11.1108 984.281 11.0549 993.559 9.35938L1008.96 6.57031L1024.44 3.71484C1035.18 1.75362 1045.94 0.724398 1056.71 0.660156L1072.18 0.59375L1087.59 0.527344C1097.88 0.467461 1108.18 0.430503 1118.47 0.394531L1133.88 0.328125L1149.35 0.261719ZM1133.94 17.3281L1087.72 17.5273L1072.25 17.5938L1056.84 17.6602C1047.07 17.717 1037.29 18.6613 1027.49 20.4492L1012.02 23.3047L996.613 26.0938C985.321 28.1573 973.972 28.1448 962.68 26.0938L931.867 20.5156C922.338 18.7848 912.815 18.3732 903.312 19.2539L887.84 20.6484L872.434 22.1094C862.275 23.0524 852.113 24.2365 841.953 25.6289L826.547 27.7539L811.074 29.8125C800.431 31.2701 789.786 32.0244 779.133 32.0703L763.727 32.1367L748.254 32.2031C737.245 32.2487 726.259 30.9205 715.316 28.1523L699.844 24.2344L684.438 20.3164C675.254 17.9924 666.131 17.5456 657.012 18.9883L641.605 21.4453L626.133 23.9023C615.232 25.6281 604.314 26.1573 593.395 25.4297L577.988 24.3672L562.516 23.3711C552.65 22.7149 542.766 22.728 532.898 23.5039L517.492 24.7656L502.086 25.9609C491.757 26.7731 481.403 27.5004 471.074 28.1523L455.668 29.1484L440.195 30.0781C429.813 30.7331 419.433 31.2209 409.051 31.4727L393.578 31.8047L378.172 32.2031C367.769 32.455 357.364 32.4647 346.961 32.2695L331.555 32.0039L316.082 31.7383C305.497 31.5387 294.918 30.7097 284.34 29.3477L268.867 27.3555L253.461 25.4297C243.696 24.1723 233.931 23.8091 224.176 24.3672L193.363 26.0938C182.842 26.6956 172.277 26.9052 161.754 26.625L146.348 26.1602L130.941 25.7617C120.703 25.489 110.434 25.308 100.195 25.1641L84.7227 24.9648L69.3164 24.6992C64.1428 24.6265 60.0836 24.5432 57.2969 24.3672C56.0499 24.2881 54.8559 24.1198 53.8438 23.9688C52.5008 24.9902 50.831 26.2664 48.8633 27.8203L38.5039 36.0547L28.1445 44.2227C23.7623 47.6834 21.2622 52.7613 21.5703 60.957L22.168 76.5625L22.7656 92.1016C23.1801 102.874 22.8637 113.628 21.7695 124.309L20.1758 139.715L18.582 155.188C17.599 164.793 17.805 174.394 19.1133 184.008L21.1719 199.414L23.2969 214.887C24.703 225.218 25.9488 235.309 27.082 245.102L28.8086 259.711L30.4688 274.32C30.8921 277.944 32.0031 280.357 33.3242 282.023C34.6293 283.663 36.5972 285.133 39.6992 286.141L52.9805 290.457L66.3281 294.773C74.6981 297.491 83.8336 299.546 93.6875 300.949L124.5 305.332C134.17 306.709 143.862 307.026 153.52 306.262L168.926 305.066L184.332 303.805C194.565 302.995 204.845 302.147 215.078 301.148L245.891 298.094C256.347 297.074 266.843 296.416 277.301 296.035L292.707 295.438L308.113 294.906C318.794 294.517 329.512 294.868 340.188 295.969L371 299.156C380.975 300.185 390.979 300.627 400.949 300.551L416.355 300.418L431.828 300.352C441.802 300.274 451.798 299.625 461.777 298.492L492.59 295.039C503.632 293.785 514.698 294.025 525.727 295.77L541.199 298.227L556.605 300.617C566.571 302.196 576.534 303.243 586.488 303.672L601.961 304.336L617.367 305C627.587 305.44 637.827 305.777 648.047 305.996L678.859 306.66C689.045 306.878 699.287 306.866 709.473 306.727L740.285 306.328C750.685 306.186 761.096 306.239 771.496 306.527L786.902 306.992L802.375 307.391C811.984 307.656 821.613 306.796 831.262 304.801L846.668 301.613L862.141 298.426C873.407 296.1 884.716 295.821 896.008 297.629L911.48 300.152L926.887 302.609C936.853 304.208 946.814 305.26 956.77 305.73L972.242 306.461L987.648 307.191C997.09 307.637 1006.56 306.708 1016.07 304.402L1031.54 300.617L1046.95 296.898C1058.31 294.14 1069.73 293.625 1081.15 295.438L1096.55 297.895L1112.03 300.352C1122.1 301.951 1132.17 303.154 1142.24 304.004L1157.65 305.332L1173.12 306.66C1183.06 307.497 1193 307.686 1202.94 307.324L1218.34 306.793L1233.75 306.195C1244.25 305.812 1254.79 305.893 1265.29 306.328L1280.7 306.926L1296.17 307.59C1305.95 307.994 1315.74 307.525 1325.52 306.195L1340.93 304.07L1356.34 302.012C1367.01 300.561 1377.72 299.826 1388.41 299.887L1403.82 300.02L1419.29 300.086C1429.6 300.145 1439.93 300.25 1450.23 300.418L1481.05 300.949C1491.24 301.115 1501.46 301.095 1511.66 300.949L1527.07 300.75L1542.54 300.551C1553.23 300.398 1563.93 301.004 1574.61 302.41L1590.02 304.402L1605.49 306.461C1615.34 307.756 1625.21 308.273 1635.04 308.055L1665.86 307.391C1676.08 307.164 1686.31 306.819 1696.54 306.395L1712.01 305.797L1727.41 305.133C1737.46 304.716 1747.51 303.87 1757.56 302.609L1772.97 300.684L1788.44 298.758C1799.15 297.416 1809.86 296.92 1820.58 297.23L1835.99 297.629L1851.46 298.094C1861.51 298.384 1871.56 298.289 1881.61 297.762L1897.02 296.965L1912.49 296.102C1923.3 295.537 1934.1 296.022 1944.89 297.496L1960.37 299.621L1975.77 301.68C1985.83 303.053 1995.87 304.052 2005.92 304.602L2021.33 305.465L2036.8 306.262C2046.83 306.81 2056.86 306.919 2066.88 306.594L2082.36 306.129L2097.76 305.598C2107.73 305.273 2117.73 304.424 2127.71 303.008L2158.52 298.625C2169.76 297.03 2181.04 297.334 2192.26 299.555L2223.07 305.664C2232.51 307.534 2241.95 307.946 2251.36 306.926L2266.83 305.266L2282.24 303.605C2292.72 302.466 2303.23 301.675 2313.71 301.281L2329.12 300.684L2344.53 300.152C2354.87 299.764 2365.26 299.452 2375.61 299.289L2391.01 299.09L2406.42 298.824C2416.72 298.662 2427.06 298.567 2437.36 298.492L2452.77 298.359L2468.24 298.227C2476.97 298.161 2482.88 295.821 2486.97 292.051L2496 283.75L2505.03 275.383C2509.44 271.304 2512.83 265.219 2514.73 256.391L2517.98 241.25L2521.23 226.043C2523.29 216.458 2524.44 206.77 2524.69 197.023L2525.48 166.211C2525.73 156.536 2524.98 146.83 2523.16 137.125L2520.24 121.719L2517.38 106.246C2515.46 95.9711 2513.58 86.2827 2511.87 77.2266L2509.35 63.6797L2506.76 50.0664C2506.14 46.7809 2505 44.5602 2503.64 43.0273C2502.27 41.5046 2500.23 40.1847 2497.2 39.3086L2484.25 35.5898L2471.3 31.8047C2463.33 29.5066 2454.49 28.0288 2444.73 27.4219L2429.33 26.4922L2413.86 25.4961C2403.54 24.8541 2393.22 24.1491 2382.91 23.3711L2367.5 22.2422L2352.03 21.0469C2342.46 20.3275 2332.87 20.8389 2323.28 22.5078L2292.46 27.8203C2281.49 29.7303 2270.46 30.2799 2259.46 29.4141L2244.05 28.2188L2228.58 26.957C2218.73 26.1836 2208.88 26.1766 2199.03 26.8906L2183.62 28.0195L2168.15 29.1484C2157.07 29.9494 2145.99 29.1656 2134.95 26.8242L2119.54 23.5703L2104.07 20.25C2094.49 18.2206 2084.92 17.4768 2075.38 17.9258L2044.57 19.3867C2034.4 19.8658 2024.2 20.5209 2014.02 21.3789L1998.55 22.6406L1983.14 23.9688C1972.69 24.8507 1962.2 25.4045 1951.73 25.6289L1920.92 26.293C1910.74 26.5113 1900.55 26.9044 1890.38 27.4883L1874.9 28.3516L1859.5 29.2812C1849 29.8831 1838.51 30.0694 1828.02 29.8789L1812.61 29.6133L1797.14 29.3477C1786.56 29.1548 1775.98 28.3638 1765.4 27.0234L1749.93 25.0312L1734.52 23.1055C1724.45 21.8293 1714.37 20.9479 1704.3 20.4492L1688.9 19.6523L1673.49 18.9219C1663.61 18.4323 1653.69 18.6626 1643.81 19.5859L1628.4 20.9805L1613 22.4414C1602.78 23.3956 1592.53 24.481 1582.32 25.6953L1566.91 27.5547L1551.5 29.3477C1540.87 30.6114 1530.2 31.2614 1519.56 31.207L1504.16 31.0742L1488.68 31.0078C1478.15 30.953 1467.61 30.4091 1457.07 29.3477L1441.6 27.8203L1426.2 26.2266C1416.43 25.2421 1406.67 25.1666 1396.91 25.9609L1381.44 27.2227L1366.03 28.4844C1354.98 29.3851 1343.91 28.8135 1332.89 26.7578L1317.49 23.8359L1302.08 20.9805C1292.49 19.19 1282.89 18.6142 1273.33 19.2539L1257.92 20.3164L1242.52 21.3125C1231.81 22.0285 1221.08 21.9411 1210.38 21.0469L1194.9 19.7852L1179.5 18.457C1169.47 17.6182 1159.44 17.2276 1149.41 17.2617L1133.94 17.3281Z" fill="black"/>
</svg>
