<svg width="1453" height="307" viewBox="0 0 1453 307" fill="none" xmlns="http://www.w3.org/2000/svg">
<path d="M1088.55 0.671875C1091.7 0.612917 1094.86 0.743918 1098 1.09375L1106.86 2.07812C1109.64 2.38639 1112.43 2.53352 1115.2 2.5L1119.62 2.42969L1124.05 2.39453C1127.04 2.35847 1130.03 2.35356 1133.02 2.39453L1141.88 2.53516C1144.82 2.57548 1147.77 2.59121 1150.7 2.60547H1155.13L1159.56 2.64062C1162.33 2.65404 1165.12 2.50137 1167.89 2.18359L1172.36 1.69141L1176.79 1.16406C1179.96 0.800815 1183.14 0.666108 1186.32 0.777344L1190.75 0.953125L1195.18 1.09375C1198.03 1.19379 1200.9 1.21682 1203.75 1.12891L1212.61 0.847656C1215.72 0.7522 1218.82 0.802294 1221.93 1.02344L1230.79 1.65625C1233.83 1.87326 1236.89 2.19748 1239.93 2.60547L1248.79 3.80078C1251.24 4.12925 1253.71 4.02545 1256.17 3.51953L1260.6 2.60547L1265.03 1.72656C1268.33 1.04896 1271.66 0.750513 1274.98 0.882812L1283.84 1.23438C1286.93 1.35753 1290.03 1.62495 1293.12 2.04297L1297.59 2.64062L1302.02 3.27344C1304.5 3.60904 1307.01 3.53364 1309.5 3.09766L1318.36 1.55078C1321.6 0.986371 1324.85 0.736283 1328.1 0.8125L1336.96 1.02344C1339.86 1.0915 1342.78 1.1273 1345.68 1.09375L1350.11 1.02344L1354.54 0.988281C1357.54 0.953655 1360.54 0.969258 1363.54 1.02344L1372.4 1.16406C1375.38 1.21796 1378.38 1.30172 1381.36 1.41016L1385.79 1.58594L1390.22 1.72656C1393.35 1.84063 1396.45 2.16583 1399.54 2.64062L1403.9 3.30859L1408.29 3.97656C1411.35 4.44796 1414.36 5.07345 1417.29 5.83984L1421.44 6.92969L1425.62 8.01953C1429.2 8.95317 1432.32 10.7651 1434.94 13.3984L1441.16 19.6211C1443.79 22.2657 1445.57 25.4437 1446.47 29.043L1447.53 33.2266L1448.58 37.4453C1449.36 40.5425 1449.81 43.7152 1449.95 46.9375L1450.16 51.332L1450.34 55.6914C1450.47 58.5604 1450.66 61.476 1450.9 64.375L1451.25 68.8047L1451.64 73.2344C1451.89 76.2085 1452.11 79.1898 1452.31 82.1641L1452.87 91.0234C1453.09 94.259 1453.01 97.4951 1452.62 100.727L1451.57 109.586C1451.23 112.387 1451.03 115.19 1450.97 117.988L1450.9 122.453L1450.8 126.883C1450.74 129.799 1450.72 132.72 1450.73 135.637L1450.76 140.066V144.496C1450.77 147.283 1450.93 150.073 1451.25 152.863L1451.78 157.293L1452.27 161.723C1452.65 164.976 1452.7 168.24 1452.41 171.496L1451.64 180.355C1451.4 183.108 1451.36 185.867 1451.5 188.617L1451.71 193.047L1451.96 197.477C1452.11 200.499 1452.16 203.524 1452.17 206.547L1452.2 210.977V215.406C1452.22 218.438 1452.17 221.48 1452.03 224.512L1451.61 233.371C1451.47 236.169 1451.45 238.975 1451.61 241.773L1452.1 250.633C1452.28 253.935 1452.06 257.228 1451.46 260.477L1450.69 264.836L1449.88 269.195C1449.23 272.765 1447.85 276.032 1445.7 278.898L1443.1 282.309L1440.53 285.754C1438.66 288.249 1436.55 290.612 1434.24 292.82L1431.04 295.879L1427.8 298.938C1424.98 301.635 1421.56 303.283 1417.68 303.859L1413.21 304.527L1408.71 305.195C1405.3 305.701 1401.88 305.716 1398.48 305.195L1394.05 304.492L1389.59 303.824C1386.82 303.399 1384.05 303.128 1381.29 303.051L1376.86 302.945L1372.43 302.805C1369.67 302.728 1366.9 302.846 1364.14 303.121L1359.71 303.543L1355.28 304C1352.11 304.316 1348.92 304.388 1345.75 304.246L1341.32 304.07L1336.89 303.859C1334.08 303.734 1331.26 303.75 1328.45 303.895L1324.02 304.105L1319.59 304.352C1316.49 304.512 1313.38 304.513 1310.28 304.352L1305.85 304.105L1301.42 303.895C1298.76 303.756 1296.07 303.863 1293.4 304.246L1284.54 305.512C1281.28 305.979 1278 306.119 1274.73 305.898L1270.3 305.582L1265.88 305.301C1263.11 305.114 1260.34 305.105 1257.58 305.266L1248.72 305.758C1245.41 305.95 1242.1 305.782 1238.8 305.195L1234.38 304.387L1229.95 303.613C1227.39 303.157 1224.83 303.023 1222.28 303.262L1213.42 304.105C1210.18 304.41 1206.92 304.414 1203.68 304.105L1194.82 303.262C1192.26 303.018 1189.7 303.088 1187.12 303.508L1182.7 304.246L1178.27 304.949C1174.85 305.507 1171.42 305.53 1168 305.02L1163.57 304.387L1159.14 303.719C1156.63 303.344 1154.13 303.34 1151.62 303.719L1142.76 305.055C1139.34 305.572 1135.91 305.57 1132.49 305.02L1128.06 304.281L1123.63 303.578C1121.12 303.172 1118.59 303.162 1116.07 303.508L1107.21 304.703C1103.91 305.158 1100.58 305.227 1097.27 304.879L1092.84 304.422L1088.41 303.93C1085.85 303.662 1083.27 303.733 1080.71 304.141L1071.85 305.547C1068.56 306.069 1065.27 306.243 1061.97 306.004L1057.54 305.652L1053.11 305.336C1050.36 305.137 1047.59 305.151 1044.85 305.336L1040.42 305.617L1035.99 305.934C1032.73 306.153 1029.47 306.03 1026.21 305.582L1021.79 304.984L1017.36 304.352C1014.82 304.002 1012.27 304.022 1009.73 304.387L1000.87 305.652C997.66 306.113 994.449 306.283 991.234 306.18L986.805 306.039L982.34 305.898C979.422 305.804 976.504 305.731 973.586 305.688L969.121 305.617L964.691 305.582C961.648 305.537 958.593 305.393 955.551 305.16L946.691 304.457C944.032 304.254 941.373 304.324 938.711 304.633L934.246 305.16L929.816 305.652C926.631 306.022 923.443 306.149 920.254 306.004L915.824 305.793L911.359 305.582C908.263 305.44 905.17 305.15 902.078 304.703L893.219 303.438C890.769 303.083 888.299 303.132 885.836 303.613L881.406 304.492L876.977 305.336C873.582 305.999 870.158 306.171 866.746 305.793L857.887 304.809C855.249 304.517 852.613 304.48 849.977 304.738L845.547 305.195L841.117 305.617C837.745 305.949 834.351 305.834 830.992 305.23L822.133 303.613C819.727 303.181 817.335 303.218 814.926 303.684L806.066 305.371C802.718 306.019 799.343 306.238 795.977 305.969L787.117 305.266C784.224 305.035 781.326 304.856 778.434 304.738L774.004 304.527L769.574 304.352C766.759 304.237 763.917 304.274 761.102 304.422L756.672 304.633L752.242 304.879C749.089 305.044 745.937 304.993 742.785 304.738L733.926 304.035C731.185 303.813 728.439 303.793 725.699 303.965L716.84 304.527C713.847 304.715 710.833 304.837 707.84 304.949L698.98 305.301C695.773 305.42 692.549 305.268 689.348 304.844L680.488 303.648C677.778 303.29 675.071 303.178 672.367 303.262L667.938 303.367L663.508 303.508C660.594 303.598 657.668 303.725 654.754 303.895L650.324 304.176L645.895 304.422C642.792 304.602 639.681 304.617 636.578 304.492L627.719 304.141C624.731 304.02 621.742 303.88 618.754 303.684L614.324 303.367L609.859 303.086C607.165 302.909 604.47 302.954 601.773 303.227L597.344 303.684L592.879 304.141C589.849 304.448 586.804 304.667 583.773 304.809L574.914 305.23C571.926 305.37 568.938 305.48 565.949 305.547L561.52 305.617L557.09 305.723C553.963 305.792 550.828 305.696 547.703 305.406L538.844 304.562C535.964 304.295 533.075 304.126 530.195 304L525.766 303.789L521.336 303.613C518.566 303.492 515.775 303.534 513.004 303.754L504.145 304.457C500.958 304.71 497.769 304.708 494.582 304.457L485.723 303.754C482.961 303.536 480.186 303.483 477.426 303.613L472.961 303.824L468.531 304.035C465.684 304.17 462.837 304.413 459.988 304.738L455.559 305.23L451.129 305.758C447.83 306.135 444.513 306.109 441.215 305.723L436.785 305.23L432.355 304.703C429.66 304.388 426.961 304.303 424.27 304.457L415.41 304.949C412.152 305.136 408.886 305.002 405.637 304.527L401.207 303.895L396.777 303.227C394.106 302.836 391.424 302.717 388.762 302.84L384.332 303.051L379.902 303.227C376.877 303.366 373.822 303.44 370.797 303.438H361.938C359.138 303.436 356.337 303.582 353.535 303.859L349.105 304.281L344.676 304.738C341.518 305.051 338.343 305.138 335.184 305.02L330.754 304.844L326.324 304.703C323.408 304.594 320.486 304.526 317.57 304.492L313.141 304.422L308.711 304.387C305.841 304.354 302.968 304.397 300.098 304.527L295.668 304.738L291.238 304.914C288.123 305.055 285.002 305.036 281.887 304.844L277.457 304.562L273.027 304.316C270.123 304.137 267.212 304.009 264.309 303.93L259.879 303.789L255.449 303.684C252.746 303.61 250.038 303.735 247.328 304.105L242.898 304.738L238.469 305.336C235.089 305.799 231.686 305.773 228.309 305.266L219.449 303.93C216.833 303.537 214.217 303.44 211.609 303.648L207.18 304L202.75 304.387C199.823 304.621 196.888 304.874 193.961 305.16L185.102 306.004C181.739 306.332 178.362 306.2 175.012 305.617L170.582 304.879L166.152 304.105C163.626 303.666 161.11 303.594 158.594 303.895L149.734 304.949C146.494 305.337 143.241 305.405 139.996 305.16L135.566 304.809L131.137 304.492C128.165 304.267 125.179 304.014 122.207 303.754L113.348 302.98C110.666 302.746 107.979 302.765 105.297 303.016L100.867 303.438L96.4375 303.824C93.331 304.116 90.1945 304.272 87.0859 304.246L78.2266 304.176C75.3566 304.152 72.4835 304.182 69.6133 304.316L60.7539 304.738C57.5793 304.887 54.4125 304.81 51.2617 304.492L46.8672 304.035L42.4727 303.613C39.127 303.276 35.887 302.476 32.7695 301.223L28.6562 299.57L24.5781 297.918C21.0757 296.508 18.1628 294.246 15.9297 291.203L13.3281 287.652L10.6914 284.066C8.55595 281.148 7.16085 277.89 6.57812 274.363L5.91016 270.145L5.20703 265.926C4.71212 262.93 4.39453 259.869 4.25781 256.75L4.04688 252.32L3.87109 247.926C3.73803 244.89 3.6845 241.828 3.73047 238.785L3.87109 229.926C3.91552 226.984 3.95502 224.043 3.97656 221.102L4.01172 216.672V212.242C4.03121 209.579 3.80226 206.904 3.30859 204.227L1.69141 195.367C1.07331 192.018 0.903933 188.642 1.19922 185.277L1.97266 176.418C2.21173 173.694 2.22634 170.949 2.04297 168.227L1.76172 163.797L1.44531 159.367C1.23689 156.266 1.20266 153.152 1.30469 150.051L1.58594 141.191C1.68092 138.302 1.71826 135.397 1.69141 132.508L1.62109 123.648C1.59289 120.589 1.66948 117.531 1.86719 114.473L2.14844 110.043L2.42969 105.578C2.60407 102.872 2.58164 100.165 2.32422 97.457L1.48047 88.5977C1.15802 85.2125 1.29415 81.8055 1.9375 78.4375L2.81641 74.0078L3.66016 69.5781C4.15845 66.9673 4.33865 64.3666 4.22266 61.7734L4.01172 57.3438L3.83594 52.9141C3.6868 49.6032 3.92674 46.3432 4.57422 43.1758L6.26172 34.8086C6.91209 31.627 7.98582 28.5127 9.46094 25.4922L11.4648 21.4492L13.4336 17.4062C15.2393 13.7094 18.1288 11.0134 21.9414 9.46094L26.1602 7.73828L30.3438 6.05078C33.2956 4.8509 36.004 3.99213 38.3594 3.69531L41.0664 3.37891L43.7383 3.02734C44.5353 2.92705 45.1495 2.8735 45.5664 2.81641C45.7411 2.75672 45.8595 2.6903 45.918 2.67578C46.2126 2.60264 46.4619 2.57644 46.5156 2.57031C46.6784 2.55201 46.822 2.53728 46.8672 2.53516H48.1328C48.8888 2.53783 50.0047 2.55291 51.4727 2.57031L55.9023 2.60547L60.3672 2.64062C63.3321 2.67586 66.2968 2.74972 69.2617 2.81641L78.1211 3.02734C80.9663 3.09134 83.8185 3.02394 86.6641 2.88672L95.5234 2.46484C98.7143 2.31068 101.934 2.39937 105.121 2.74609L113.98 3.73047C116.794 4.03631 119.607 4.21308 122.418 4.25781L131.277 4.39844C134.178 4.4444 137.096 4.42264 139.996 4.36328L144.426 4.29297L148.855 4.1875C151.761 4.12804 154.668 4.026 157.574 3.87109L162.004 3.625L166.434 3.41406C169.369 3.25758 172.322 3.08167 175.258 2.88672L179.688 2.57031L184.117 2.28906C187.253 2.0811 190.403 2.04227 193.539 2.21875L197.969 2.5L202.398 2.74609C205.065 2.89558 207.741 2.78724 210.414 2.42969L219.273 1.23438C222.747 0.770022 226.227 0.918164 229.68 1.65625L238.539 3.55469C241.186 4.12031 243.824 4.3728 246.449 4.36328H250.879L255.309 4.32812C258.095 4.31802 260.886 4.15883 263.676 3.83594L268.105 3.34375L272.535 2.81641C275.545 2.46803 278.56 2.17349 281.57 1.9375L290.43 1.23438C293.733 0.975462 297.05 1.11582 300.344 1.62109L304.773 2.28906L309.203 2.99219C311.7 3.37468 314.194 3.37688 316.691 2.99219L321.121 2.28906L325.551 1.62109C328.719 1.13214 331.902 0.863873 335.078 0.847656L339.508 0.8125H343.973C346.925 0.798004 349.88 0.786058 352.832 0.777344L357.262 0.742188H361.691C364.757 0.733138 367.838 0.84208 370.902 1.05859L379.762 1.69141C382.524 1.88624 385.297 1.88259 388.059 1.72656L396.918 1.23438C400.191 1.04979 403.463 1.21284 406.727 1.72656L415.586 3.13281C418.21 3.54643 420.846 3.66441 423.461 3.48438L427.891 3.16797L432.32 2.88672C435.505 2.66743 438.699 2.68587 441.883 2.95703L446.312 3.30859L450.742 3.69531C453.576 3.9366 456.417 4.06981 459.25 4.08203L463.68 4.11719H468.109C470.906 4.12917 473.713 4.0115 476.512 3.73047L485.371 2.81641C488.356 2.51671 491.35 2.24336 494.336 2.00781L498.766 1.69141L503.195 1.33984C506.33 1.09255 509.481 1.03283 512.617 1.16406L521.477 1.51562C524.525 1.64341 527.57 1.8926 530.617 2.21875L535.047 2.67578L539.477 3.16797C542.296 3.46985 545.132 3.6169 547.949 3.66016L556.809 3.80078C559.667 3.84463 562.528 3.79871 565.387 3.66016L574.246 3.23828C577.245 3.09294 580.247 2.97626 583.246 2.92188L592.105 2.78125C594.981 2.72915 597.878 2.59937 600.754 2.39453L609.613 1.76172C612.613 1.54811 615.613 1.38885 618.613 1.26953L627.473 0.917969C630.758 0.787316 634.046 1.00012 637.316 1.58594L641.746 2.39453L646.176 3.16797C648.783 3.63502 651.388 3.78377 653.98 3.625L658.41 3.37891L662.84 3.09766C665.986 2.905 669.151 2.92374 672.297 3.13281L681.156 3.69531C683.787 3.86952 686.427 3.76672 689.066 3.37891L693.496 2.74609L697.926 2.07812C701.188 1.59905 704.464 1.48305 707.734 1.69141L716.594 2.25391C719.532 2.44109 722.48 2.59166 725.418 2.74609L734.277 3.23828C737.228 3.39338 740.186 3.54561 743.137 3.69531L751.996 4.11719C754.821 4.2605 757.644 4.2817 760.469 4.1875L764.898 4.04688L769.363 3.90625C772.126 3.8131 774.891 3.53538 777.66 3.09766L782.09 2.39453L786.52 1.72656C789.735 1.21823 792.962 0.988924 796.188 1.05859L800.617 1.16406L805.047 1.23438C808.231 1.30329 811.435 1.63153 814.609 2.18359L823.469 3.73047C826.055 4.17919 828.631 4.27652 831.203 4.08203L835.633 3.76562L840.062 3.41406C843.116 3.18247 846.184 3.08156 849.238 3.0625L853.703 3.02734L858.133 2.99219C861.073 2.97418 864.017 2.961 866.957 2.92188L875.816 2.78125C878.744 2.74229 881.678 2.69834 884.605 2.60547L893.465 2.32422C896.33 2.23333 899.212 2.05998 902.078 1.79688L910.938 0.953125C914.277 0.647656 917.629 0.783236 920.957 1.33984L929.816 2.81641C932.35 3.23973 934.885 3.2948 937.41 2.99219L946.27 1.9375C949.358 1.56772 952.46 1.35442 955.551 1.26953L959.98 1.12891L964.41 1.02344C967.469 0.939589 970.528 0.952791 973.586 1.09375L978.016 1.30469L982.48 1.51562C985.528 1.65681 988.575 1.90274 991.621 2.25391L996.086 2.78125L1000.52 3.27344C1003.23 3.58561 1005.93 3.67375 1008.64 3.55469L1013.1 3.37891L1017.53 3.16797C1020.58 3.03296 1023.65 3.02293 1026.71 3.09766L1035.57 3.30859C1038.32 3.37557 1041.07 3.24846 1043.83 2.95703L1052.69 2.04297C1055.75 1.71896 1058.84 1.48229 1061.9 1.375L1066.33 1.23438L1070.76 1.05859C1073.73 0.954314 1076.71 0.868209 1079.69 0.8125L1088.55 0.671875ZM1079.86 9.8125C1076.94 9.86729 1074 9.95604 1071.07 10.0586L1066.64 10.2344L1062.21 10.375C1059.37 10.4748 1056.49 10.6708 1053.64 10.9727L1049.21 11.4297L1044.78 11.9219C1041.63 12.2545 1038.47 12.3856 1035.32 12.3086L1026.46 12.0977C1023.61 12.0282 1020.77 12.0418 1017.92 12.168L1013.49 12.3789L1009.06 12.5547C1005.86 12.6963 1002.65 12.5714 999.461 12.2031L995.031 11.7109L990.602 11.1836C987.754 10.855 984.905 10.6474 982.059 10.5156L973.199 10.0938C970.356 9.96238 967.499 9.94549 964.656 10.0234L960.227 10.1289L955.797 10.2695C952.98 10.3469 950.143 10.5294 947.324 10.8672L942.895 11.4297L938.465 11.957C935.089 12.3612 931.708 12.2727 928.34 11.7109L923.91 10.9727L919.445 10.2344C916.872 9.80506 914.308 9.68274 911.746 9.91797L907.316 10.3398L902.887 10.7266C899.843 11.006 896.791 11.2276 893.746 11.3242L884.887 11.6055C881.904 11.7001 878.904 11.7416 875.922 11.7812L867.062 11.9219C864.1 11.9613 861.13 11.9741 858.168 11.9922L849.309 12.0625C846.461 12.0799 843.614 12.1982 840.766 12.4141L836.336 12.7305L831.906 13.082C828.578 13.3345 825.237 13.1659 821.922 12.5898L813.062 11.043C810.33 10.5678 807.593 10.2938 804.871 10.2344L800.441 10.1289L796.012 10.0586C793.328 10.0005 790.619 10.1601 787.926 10.5859L779.066 11.9922C775.931 12.4879 772.787 12.8011 769.645 12.9062L760.785 13.1875C757.704 13.2906 754.62 13.2735 751.539 13.1172L747.109 12.9062L742.68 12.6602C739.722 12.5101 736.743 12.3586 733.785 12.2031L729.355 11.9922L724.926 11.7461C721.961 11.5902 718.996 11.4076 716.031 11.2188L707.172 10.6562C704.534 10.4882 701.873 10.6189 699.227 11.0078L694.797 11.6406L690.367 12.3086C687.103 12.7881 683.831 12.9121 680.559 12.6953L676.129 12.3789L671.699 12.0977C668.939 11.9142 666.163 11.8939 663.402 12.0625L654.543 12.625C651.226 12.8281 647.896 12.6189 644.594 12.0273L640.164 11.2539L635.734 10.4453C633.095 9.9726 630.449 9.77844 627.824 9.88281L618.965 10.2344C616.059 10.35 613.152 10.5196 610.246 10.7266L601.387 11.3594C598.353 11.5754 595.315 11.7262 592.281 11.7812L583.422 11.9219C580.512 11.9746 577.578 12.0973 574.668 12.2383L565.809 12.6602C562.762 12.8076 559.715 12.8476 556.668 12.8008L547.809 12.6602C544.716 12.6127 541.618 12.4285 538.527 12.0977L534.098 11.6406L529.668 11.1484C526.809 10.8424 523.947 10.6352 521.09 10.5156L516.66 10.3398L512.23 10.1289C509.457 10.0128 506.674 10.0857 503.898 10.3047L495.039 11.0078C492.116 11.2384 489.173 11.4878 486.25 11.7812L481.82 12.2383L477.391 12.6602C474.286 12.9715 471.181 13.1304 468.074 13.1172H463.645L459.215 13.082C456.138 13.0688 453.044 12.922 449.969 12.6602L445.539 12.3086L441.109 11.9219C438.39 11.6903 435.672 11.6652 432.953 11.8516L428.488 12.168L424.059 12.4492C420.767 12.6749 417.461 12.5445 414.18 12.0273L405.32 10.6211C402.681 10.2061 400.039 10.0859 397.41 10.2344L388.551 10.7266C385.41 10.9038 382.269 10.8777 379.129 10.6562L370.27 10.0234C367.426 9.82256 364.569 9.73394 361.727 9.74219H357.297L352.867 9.77734C349.918 9.78605 346.957 9.79801 344.008 9.8125H339.578L335.148 9.84766C332.418 9.86107 329.66 10.0931 326.922 10.5156L322.492 11.1836L318.062 11.8867C314.657 12.4114 311.238 12.4091 307.832 11.8867L303.402 11.1836L298.973 10.5156C296.357 10.1144 293.74 10.03 291.133 10.2344L286.703 10.5508L282.273 10.9023C279.379 11.1292 276.484 11.4113 273.59 11.7461L269.125 12.2734L264.695 12.8008C261.58 13.1607 258.462 13.3168 255.344 13.3281L250.914 13.3633H246.484C243.2 13.3752 239.903 13.0412 236.641 12.3438L227.781 10.4453C225.329 9.92241 222.9 9.83921 220.469 10.1641L216.039 10.7617L211.609 11.3242C208.375 11.7569 205.112 11.8933 201.871 11.7109L193.012 11.2188C190.246 11.0635 187.481 11.0706 184.715 11.2539L180.285 11.5703L175.855 11.8516C172.884 12.0489 169.897 12.2205 166.926 12.3789L158.066 12.8711C155.062 13.0312 152.035 13.126 149.031 13.1875L144.602 13.293L140.172 13.3633C137.163 13.4248 134.145 13.4461 131.137 13.3984L122.277 13.2578C119.184 13.2087 116.087 12.9964 112.996 12.6602L108.566 12.2031L104.137 11.7109C101.416 11.415 98.6977 11.3339 95.9805 11.4648L87.1211 11.8867C84.0602 12.0346 80.9714 12.061 77.9102 11.9922L73.4805 11.9219L69.0508 11.8164C66.1152 11.7504 63.1622 11.6755 60.2266 11.6406L55.7969 11.6055L51.3672 11.5352H47.9219L47.5703 11.5703C47.3963 11.5994 47.1704 11.6432 46.9375 11.6758C46.4579 11.7427 45.7582 11.8444 44.8633 11.957L42.1914 12.3086L39.4844 12.625C38.2514 12.7804 36.3596 13.3094 33.7188 14.3828L29.5352 16.0703L25.3516 17.793C23.5765 18.5145 22.3484 19.6504 21.5195 21.3438L19.5508 25.3867L17.5469 29.4297C16.3868 31.8048 15.5764 34.2032 15.0859 36.6016L13.3984 44.9688C12.905 47.3825 12.6838 49.8935 12.8008 52.4922L13.2227 61.3516C13.3718 64.662 13.1131 67.9729 12.4844 71.2656L10.7969 80.125C10.3119 82.6641 10.2059 85.1968 10.4453 87.7188L11.2891 96.5781C11.5932 99.7706 11.6364 102.982 11.4297 106.176L11.1484 110.605L10.832 115.035C10.6479 117.88 10.5947 120.734 10.6211 123.578L10.6914 132.438C10.7195 135.456 10.6852 138.49 10.5859 141.508L10.3047 150.367C10.2128 153.168 10.2568 155.968 10.4453 158.77L10.7266 163.199L11.043 167.629C11.2574 170.814 11.2165 174.008 10.9375 177.191L10.1641 186.051C9.94084 188.594 10.0439 191.156 10.5156 193.715L11.3594 198.145L12.168 202.574C12.7642 205.805 13.0355 209.068 13.0117 212.312V216.742L12.9766 221.172C12.9548 224.136 12.9159 227.102 12.8711 230.066L12.7305 238.926C12.6872 241.788 12.7111 244.65 12.8359 247.504L13.2578 256.363C13.3792 259.129 13.6335 261.825 14.0664 264.449L14.7695 268.703L15.4727 272.922C15.8202 275.012 16.6379 276.942 17.9688 278.758L23.1719 285.859C24.4104 287.549 25.9747 288.765 27.918 289.551L32.0312 291.203L36.1094 292.855C38.444 293.796 40.8784 294.396 43.3867 294.648L47.7812 295.105L52.1758 295.527C54.8818 295.8 57.5999 295.866 60.332 295.738L64.7617 295.562L69.1914 295.352C72.2249 295.21 75.2631 295.151 78.2969 295.176L82.7266 295.211L87.1914 295.246C89.9871 295.269 92.7961 295.157 95.5938 294.895L104.453 294.051C107.675 293.749 110.899 293.734 114.121 294.016L122.98 294.789C125.918 295.046 128.867 295.305 131.805 295.527L136.234 295.844L140.664 296.195C143.322 296.397 145.983 296.337 148.645 296.02L153.074 295.492L157.539 294.965C160.927 294.561 164.321 294.623 167.699 295.211L176.559 296.758C179.119 297.203 181.675 297.323 184.223 297.074L188.652 296.617L193.082 296.195C196.059 295.904 199.035 295.625 202.012 295.387L210.871 294.684C214.172 294.419 217.493 294.541 220.785 295.035L229.645 296.371C232.176 296.751 234.709 296.753 237.238 296.406L246.098 295.211C249.293 294.773 252.493 294.596 255.695 294.684L260.125 294.789L264.555 294.93C267.561 295.012 270.584 295.131 273.59 295.316L282.449 295.879C285.238 296.051 288.028 296.075 290.816 295.949L299.676 295.527C302.716 295.389 305.776 295.352 308.816 295.387L313.246 295.422L317.676 295.492C320.67 295.526 323.682 295.591 326.676 295.703L331.105 295.879L335.535 296.02C338.277 296.122 341.018 296.044 343.762 295.773L348.227 295.352L352.656 294.895C355.749 294.589 358.843 294.436 361.938 294.438H370.832C373.712 294.44 376.6 294.395 379.48 294.262L388.34 293.84C391.584 293.69 394.842 293.859 398.078 294.332L402.508 294.965L406.938 295.633C409.59 296.02 412.238 296.136 414.883 295.984L419.312 295.738L423.742 295.457C426.959 295.272 430.197 295.397 433.41 295.773L437.84 296.266L442.27 296.793C444.873 297.097 447.471 297.09 450.074 296.793L454.539 296.301L458.969 295.809C462.016 295.46 465.061 295.18 468.109 295.035L472.539 294.859L476.969 294.648C480.113 294.5 483.283 294.541 486.426 294.789L495.285 295.492C498.002 295.706 500.725 295.708 503.441 295.492L512.301 294.789C515.44 294.54 518.583 294.476 521.723 294.613L526.152 294.789L530.582 295C533.606 295.133 536.629 295.352 539.652 295.633L544.117 296.02L548.547 296.441C551.325 296.699 554.102 296.784 556.879 296.723L561.309 296.617L565.738 296.547C568.654 296.482 571.577 296.367 574.492 296.23L583.352 295.809C586.225 295.674 589.126 295.467 592 295.176L596.43 294.719L600.859 294.297C604.058 293.973 607.256 293.911 610.457 294.121L619.316 294.684C622.229 294.875 625.158 295.023 628.07 295.141L632.5 295.352L636.965 295.527C639.765 295.64 642.567 295.62 645.367 295.457L649.797 295.176L654.227 294.93C657.222 294.755 660.231 294.6 663.227 294.508L667.656 294.402L672.086 294.262C675.287 294.163 678.489 294.331 681.684 294.754L686.113 295.316L690.543 295.914C693.248 296.273 695.965 296.402 698.664 296.301L703.094 296.125L707.523 295.984C710.439 295.875 713.362 295.711 716.277 295.527L725.137 294.965C728.301 294.766 731.465 294.815 734.629 295.07L739.094 295.422L743.523 295.773C746.275 295.996 749.035 296.023 751.785 295.879L756.215 295.668L760.645 295.422C763.737 295.26 766.833 295.261 769.926 295.387L778.785 295.738C781.796 295.861 784.81 296.025 787.82 296.266L796.68 296.969C799.222 297.172 801.783 297.042 804.344 296.547L808.773 295.703L813.203 294.824C816.697 294.148 820.217 294.127 823.715 294.754L828.145 295.562L832.609 296.371C835.149 296.826 837.677 296.899 840.203 296.652L844.668 296.23L849.098 295.809C852.355 295.489 855.615 295.484 858.871 295.844L863.336 296.336L867.766 296.828C870.256 297.103 872.746 297.002 875.254 296.512L879.684 295.668L884.113 294.789C887.557 294.116 891.028 294.01 894.484 294.508L898.914 295.176L903.344 295.809C906.153 296.215 908.976 296.489 911.781 296.617L916.211 296.793L920.641 297.004C923.352 297.128 926.081 297.038 928.797 296.723L933.227 296.195L937.656 295.703C940.896 295.327 944.151 295.244 947.395 295.492L951.824 295.844L956.254 296.16C959.114 296.379 961.973 296.54 964.832 296.582L969.262 296.617L973.691 296.688C976.673 296.731 979.675 296.802 982.656 296.898L991.516 297.18C994.204 297.266 996.905 297.145 999.602 296.758L1004.03 296.09L1008.46 295.457C1011.83 294.974 1015.22 294.992 1018.59 295.457L1027.45 296.652C1030.1 297.018 1032.74 297.112 1035.39 296.934L1039.82 296.652L1044.25 296.336C1047.41 296.122 1050.58 296.142 1053.74 296.371L1062.6 297.004C1065.21 297.193 1067.83 297.103 1070.44 296.688L1074.87 295.984L1079.3 295.246C1082.64 294.715 1086.01 294.648 1089.36 295L1098.21 295.914C1100.8 296.186 1103.39 296.165 1105.98 295.809L1110.41 295.176L1114.88 294.578C1118.27 294.112 1121.69 294.137 1125.07 294.684L1129.5 295.422L1133.93 296.125C1136.42 296.526 1138.9 296.536 1141.39 296.16L1150.25 294.824C1153.64 294.31 1157.08 294.316 1160.48 294.824L1164.91 295.457L1169.34 296.125C1171.82 296.496 1174.3 296.495 1176.79 296.09L1181.25 295.352L1185.68 294.648C1189.01 294.105 1192.36 293.978 1195.7 294.297L1204.56 295.141C1207.23 295.395 1209.91 295.392 1212.58 295.141L1221.44 294.297C1224.8 293.981 1228.18 294.121 1231.53 294.719L1240.39 296.336C1243 296.801 1245.6 296.943 1248.19 296.793L1252.62 296.547L1257.05 296.266C1260.19 296.083 1263.33 296.125 1266.47 296.336L1270.9 296.617L1275.33 296.934C1277.97 297.112 1280.63 296.997 1283.28 296.617L1292.14 295.352C1295.38 294.887 1298.63 294.726 1301.88 294.895L1306.3 295.141L1310.73 295.352C1313.53 295.497 1316.34 295.496 1319.14 295.352L1323.57 295.141L1328 294.895C1331.1 294.734 1334.21 294.721 1337.31 294.859L1346.17 295.281C1348.91 295.403 1351.66 295.308 1354.4 295.035L1358.83 294.613L1363.26 294.156C1366.4 293.844 1369.54 293.717 1372.68 293.805L1377.11 293.945L1381.54 294.051C1384.68 294.138 1387.83 294.448 1390.96 294.93L1395.39 295.598L1399.86 296.301C1402.36 296.684 1404.88 296.677 1407.41 296.301L1416.34 294.965C1418.43 294.656 1420.16 293.822 1421.62 292.434L1428.02 286.316C1429.98 284.442 1431.76 282.457 1433.32 280.375L1435.93 276.93L1438.49 273.484C1439.78 271.77 1440.62 269.816 1441.02 267.578L1442.64 258.859C1443.1 256.308 1443.24 253.723 1443.1 251.125L1442.89 246.695L1442.64 242.266C1442.47 239.16 1442.46 236.055 1442.61 232.949L1443.03 224.09C1443.17 221.212 1443.21 218.319 1443.2 215.441V211.012L1443.17 206.582C1443.16 203.699 1443.1 200.816 1442.96 197.934L1442.75 193.504L1442.5 189.074C1442.34 185.915 1442.4 182.74 1442.68 179.582L1443.45 170.723C1443.68 168.069 1443.65 165.399 1443.34 162.742L1442.82 158.312L1442.32 153.883C1441.97 150.767 1441.77 147.65 1441.76 144.531V140.102L1441.73 135.672C1441.72 132.686 1441.74 129.693 1441.8 126.707L1441.9 122.277L1441.97 117.848C1442.03 114.746 1442.27 111.63 1442.64 108.531L1443.17 104.066L1443.7 99.6367C1444.02 96.963 1444.08 94.2907 1443.91 91.6211L1443.62 87.1914L1443.31 82.7617C1443.11 79.8328 1442.88 76.9017 1442.64 73.9727L1441.94 65.1133C1441.69 62.1048 1441.47 59.0948 1441.34 56.1133L1441.16 51.7188L1440.95 47.3242C1440.84 44.696 1440.49 42.1287 1439.86 39.625L1438.81 35.4414L1437.75 31.2227C1437.25 29.2192 1436.27 27.4973 1434.77 25.9844L1428.58 19.7266C1427.07 18.2101 1425.33 17.2224 1423.34 16.7031L1419.19 15.6133L1415.01 14.5234C1412.38 13.8371 1409.68 13.2966 1406.92 12.8711L1402.53 12.2031L1398.17 11.5352C1395.43 11.1131 1392.65 10.8277 1389.87 10.7266L1385.44 10.5859L1381.01 10.4102C1378.09 10.3038 1375.15 10.2169 1372.22 10.1641L1363.36 10.0234C1360.46 9.97099 1357.55 9.95473 1354.64 9.98828L1350.21 10.0234L1345.79 10.0938C1342.78 10.1285 1339.76 10.094 1336.75 10.0234L1327.89 9.8125C1325.24 9.75026 1322.58 9.98003 1319.91 10.4453L1311.05 11.9922C1307.64 12.5871 1304.2 12.6308 1300.79 12.168L1291.93 10.9727C1289.11 10.5914 1286.3 10.3463 1283.49 10.2344L1274.63 9.88281C1272.04 9.7799 1269.43 9.98111 1266.82 10.5156L1257.96 12.3438C1254.53 13.048 1251.05 13.159 1247.59 12.6953L1243.16 12.1328L1238.73 11.5352C1235.87 11.1517 1233.01 10.86 1230.16 10.6562L1221.3 10.0234C1218.5 9.8239 1215.69 9.76178 1212.89 9.84766L1204.04 10.1289C1200.98 10.2229 1197.91 10.2007 1194.86 10.0938L1190.43 9.95312L1186 9.77734C1183.27 9.68183 1180.54 9.78083 1177.81 10.0938L1173.38 10.6211L1168.95 11.1133C1165.82 11.4727 1162.66 11.6558 1159.53 11.6406L1155.1 11.6055H1150.67C1147.7 11.5911 1144.74 11.5407 1141.77 11.5L1137.34 11.4648L1132.91 11.3945C1130 11.3545 1127.07 11.3593 1124.16 11.3945L1119.73 11.4297L1115.3 11.5C1112.16 11.538 1109.01 11.3909 1105.88 11.043L1097.02 10.0586C1094.26 9.75145 1091.48 9.62027 1088.72 9.67188L1079.86 9.8125ZM51.0156 9.00391C51.2066 8.61659 51.2965 8.15852 51.3672 7.63281C51.3045 8.17019 51.1986 8.61846 51.0156 9.00391Z" fill="black"/>
</svg>
