<svg width="1453" height="307" viewBox="0 0 1453 307" fill="none" xmlns="http://www.w3.org/2000/svg">
<path d="M1120.29 0.671875C1123.52 0.613704 1126.77 0.745572 1130 1.09375L1134.53 1.58594L1139.1 2.07812C1141.97 2.38755 1144.85 2.53365 1147.71 2.5L1152.29 2.42969L1156.86 2.39453C1159.94 2.3584 1163.02 2.3535 1166.1 2.39453L1175.24 2.53516C1178.27 2.5754 1181.29 2.59122 1184.31 2.60547H1188.88L1193.45 2.64062C1196.32 2.65409 1199.2 2.50269 1202.07 2.18359L1206.64 1.69141L1211.21 1.16406C1214.47 0.800963 1217.75 0.666395 1221.02 0.777344L1225.55 0.953125L1230.12 1.09375C1233.07 1.19398 1236.03 1.21691 1238.98 1.12891L1248.12 0.847656C1251.31 0.752526 1254.5 0.803537 1257.68 1.02344L1266.82 1.65625C1269.96 1.87312 1273.11 2.1975 1276.25 2.60547L1285.39 3.80078C1287.94 4.13095 1290.49 4.03009 1293.05 3.51953L1302.19 1.69141C1305.57 1.01909 1308.99 0.751376 1312.39 0.882812L1316.92 1.05859L1321.49 1.23438C1324.68 1.35741 1327.87 1.62478 1331.05 2.04297L1340.2 3.23828C1342.79 3.57928 1345.4 3.53883 1348 3.09766L1352.57 2.32422L1357.11 1.55078C1360.43 0.987742 1363.79 0.736603 1367.12 0.8125L1371.66 0.917969L1376.23 1.02344C1379.22 1.09158 1382.24 1.12734 1385.23 1.09375L1389.8 1.02344L1394.37 0.988281C1397.57 0.952739 1400.78 1.0857 1404 1.375L1408.61 1.79688L1413.25 2.18359C1416.97 2.51867 1420.48 3.63621 1423.73 5.48828L1427.73 7.77344L1431.78 10.0938C1435.15 12.0243 1437.8 14.6985 1439.65 18.0742L1441.83 22.0117L1443.98 25.9492C1445.58 28.8822 1446.86 31.961 1447.74 35.1602L1448.9 39.4492L1450.09 43.7383C1450.99 46.9853 1451.44 50.3317 1451.46 53.7578L1451.5 58.3281V62.8984C1451.52 66.0743 1451.42 69.2514 1451.15 72.4258L1450.38 81.5664C1450.13 84.4413 1450.04 87.3415 1450.13 90.2148L1450.27 94.75L1450.41 99.3203C1450.5 102.29 1450.66 105.279 1450.9 108.25L1451.25 112.82L1451.64 117.391C1451.89 120.449 1452.11 123.508 1452.31 126.566L1452.87 135.707C1453.09 139.022 1453.01 142.345 1452.62 145.656L1451.57 154.797C1451.23 157.692 1451.03 160.588 1450.97 163.48L1450.9 168.051L1450.8 172.621C1450.74 175.629 1450.72 178.648 1450.73 181.656L1450.76 186.227V190.797C1450.77 193.676 1450.93 196.563 1451.25 199.445L1451.78 204.016L1452.27 208.586C1452.65 211.921 1452.69 215.268 1452.41 218.605L1451.64 227.746C1451.4 230.59 1451.36 233.446 1451.5 236.289L1451.71 240.859L1451.96 245.395C1452.11 248.58 1452.1 251.792 1451.96 254.992L1451.75 259.598L1451.54 264.168C1451.37 267.887 1450.42 271.431 1448.69 274.715L1446.54 278.723L1444.43 282.766C1442.76 285.938 1440.55 288.75 1437.86 291.133L1431.04 297.18C1428.12 299.772 1424.66 301.414 1420.81 302.031L1416.31 302.77L1411.77 303.473C1408.39 304.013 1404.99 304.138 1401.58 303.824L1392.44 302.98C1389.81 302.739 1387.17 302.856 1384.53 303.332L1379.96 304.141L1375.39 304.984C1372.09 305.579 1368.78 305.89 1365.47 305.898H1356.33C1353.06 305.906 1349.79 305.682 1346.52 305.195L1341.95 304.492L1337.38 303.824C1334.52 303.397 1331.66 303.129 1328.8 303.051L1324.23 302.945L1319.66 302.805C1316.81 302.727 1313.94 302.845 1311.09 303.121L1306.52 303.543L1301.95 304C1298.69 304.315 1295.43 304.387 1292.17 304.246L1287.6 304.07L1283.03 303.859C1280.13 303.734 1277.21 303.749 1274.31 303.895L1269.74 304.105L1265.21 304.352C1262.01 304.512 1258.8 304.512 1255.61 304.352L1251.04 304.105L1246.47 303.895C1243.71 303.756 1240.94 303.861 1238.17 304.246L1229.03 305.512C1225.69 305.975 1222.36 306.116 1219.01 305.898L1214.44 305.582L1209.87 305.301C1207.01 305.113 1204.12 305.104 1201.26 305.266L1196.72 305.512L1192.15 305.758C1188.76 305.949 1185.37 305.779 1181.99 305.195L1177.42 304.387L1172.85 303.613C1170.2 303.153 1167.55 303.022 1164.91 303.262L1155.77 304.105C1152.45 304.408 1149.1 304.413 1145.78 304.105L1141.25 303.684L1136.68 303.262C1134.01 303.015 1131.33 303.085 1128.66 303.508L1119.52 304.984C1116.03 305.538 1112.5 305.561 1109.01 305.055L1104.47 304.387L1099.9 303.719C1097.29 303.34 1094.67 303.336 1092.06 303.719L1082.92 305.055C1079.43 305.568 1075.93 305.565 1072.45 305.02L1067.88 304.281L1063.3 303.578C1060.69 303.168 1058.08 303.159 1055.46 303.508L1046.32 304.703C1042.93 305.157 1039.53 305.225 1036.13 304.879L1031.56 304.422L1026.99 303.93C1024.33 303.66 1021.67 303.73 1019.01 304.141L1014.44 304.844L1009.87 305.582C1006.5 306.101 1003.12 306.241 999.742 306.004L995.172 305.652L990.602 305.336C987.76 305.136 984.9 305.15 982.059 305.336L977.523 305.617L972.953 305.934C969.609 306.153 966.237 306.029 962.898 305.582L958.363 304.984L953.793 304.352C951.152 303.998 948.489 304.019 945.848 304.387L941.277 305.02L936.742 305.652C933.447 306.111 930.13 306.283 926.828 306.18L917.688 305.898C914.676 305.804 911.664 305.731 908.652 305.688L904.082 305.617L899.512 305.582C896.377 305.537 893.224 305.393 890.09 305.16L880.949 304.457C878.189 304.253 875.415 304.321 872.652 304.633L868.082 305.16L863.547 305.652C860.273 306.021 856.98 306.148 853.703 306.004L844.562 305.582C841.375 305.441 838.184 305.15 835 304.703L825.859 303.438C823.307 303.08 820.759 303.128 818.195 303.613L809.055 305.371C805.586 306.029 802.098 306.166 798.613 305.793L789.473 304.809C786.732 304.514 783.986 304.477 781.246 304.738L776.676 305.195L772.105 305.617C768.657 305.947 765.206 305.83 761.77 305.23L752.629 303.613C750.119 303.176 747.619 303.212 745.105 303.684L740.535 304.527L735.965 305.406C732.543 306.048 729.103 306.234 725.664 305.969L716.523 305.266C713.537 305.034 710.545 304.856 707.559 304.738L702.988 304.562L698.418 304.352C695.512 304.237 692.606 304.274 689.699 304.422L685.129 304.633L680.559 304.879C677.325 305.044 674.088 304.992 670.855 304.738L661.715 304.035C658.882 303.813 656.039 303.793 653.207 303.965L644.066 304.527C640.987 304.715 637.9 304.837 634.82 304.949L625.68 305.301C622.387 305.42 619.088 305.267 615.801 304.844L606.66 303.648C603.857 303.289 601.056 303.179 598.258 303.262L593.688 303.367L589.117 303.508C586.112 303.598 583.087 303.725 580.082 303.895L575.512 304.176L570.977 304.422C567.789 304.602 564.567 304.617 561.379 304.492L556.844 304.316L552.273 304.141C549.196 304.02 546.105 303.88 543.027 303.684L538.457 303.367L533.887 303.086C531.089 302.907 528.284 302.952 525.484 303.227L516.344 304.141C513.22 304.448 510.081 304.667 506.957 304.809L497.816 305.23C494.746 305.37 491.676 305.48 488.605 305.547L484.035 305.617L479.465 305.723C476.257 305.792 473.038 305.694 469.832 305.406L460.691 304.562C457.718 304.295 454.735 304.127 451.762 304L447.191 303.789L442.621 303.613C439.762 303.492 436.903 303.534 434.043 303.754L424.902 304.457C421.628 304.709 418.333 304.708 415.059 304.457L405.918 303.754C403.06 303.536 400.196 303.482 397.34 303.613L388.199 304.035C385.258 304.17 382.317 304.412 379.375 304.738L374.805 305.23L370.234 305.758C366.86 306.132 363.483 306.105 360.109 305.723L355.539 305.23L350.969 304.703C348.174 304.386 345.357 304.301 342.566 304.457L338.031 304.703L333.461 304.949C330.122 305.135 326.772 304.999 323.441 304.527L318.871 303.895L314.301 303.227C311.533 302.834 308.764 302.717 306.004 302.84L301.434 303.051L296.863 303.227C293.75 303.366 290.625 303.44 287.512 303.438H278.371C275.477 303.436 272.583 303.582 269.688 303.859L265.117 304.281L260.547 304.738C257.305 305.05 254.052 305.137 250.809 305.02L246.238 304.844L241.668 304.703C238.668 304.594 235.668 304.526 232.668 304.492L228.098 304.422L223.527 304.387C220.565 304.354 217.595 304.397 214.633 304.527L210.062 304.738L205.492 304.914C202.295 305.054 199.091 305.035 195.895 304.844L191.324 304.562L186.754 304.316C183.765 304.138 180.777 304.009 177.789 303.93L173.219 303.789L168.648 303.684C165.844 303.609 163.022 303.732 160.211 304.105L155.641 304.738L151.105 305.336C147.647 305.795 144.155 305.769 140.699 305.266L136.129 304.598L131.594 303.93C128.877 303.534 126.147 303.438 123.438 303.648L118.867 304L114.297 304.387C111.285 304.621 108.273 304.875 105.262 305.16L96.1211 306.004C92.6807 306.33 89.2142 306.232 85.7852 305.652L81.25 304.879L76.6797 304.105C74.0519 303.662 71.4231 303.591 68.8047 303.895L59.6641 304.949C56.2284 305.348 52.8026 305.289 49.3984 304.773L44.8633 304.07L40.3633 303.402C36.7338 302.851 33.3654 301.593 30.3438 299.605L22.9609 294.754C20.1565 292.909 17.6665 290.691 15.4727 288.145L12.5547 284.77L9.67188 281.43C7.19206 278.548 5.66682 275.15 5.06641 271.375L4.32812 266.945L3.625 262.48C3.12728 259.349 2.82129 256.161 2.67578 252.953L2.46484 248.418L2.25391 243.848C2.10952 240.665 2.10349 237.468 2.25391 234.285L2.46484 229.715L2.71094 225.145C2.84754 222.253 2.8323 219.353 2.67578 216.461L2.18359 207.32C2.01043 204.112 1.99855 200.896 2.18359 197.688L2.46484 193.117L2.71094 188.547C2.88815 185.477 3.0994 182.406 3.34375 179.336L3.73047 174.766L4.08203 170.195C4.30968 167.336 4.34147 164.476 4.22266 161.617L3.87109 152.477C3.74058 149.351 3.68484 146.216 3.73047 143.09L3.87109 133.949C3.91556 130.916 3.95501 127.877 3.97656 124.844L4.01172 120.273V115.703C4.031 112.943 3.80492 110.179 3.30859 107.406L1.69141 98.2656C1.07803 94.8413 0.907279 91.4036 1.19922 87.9648L1.97266 78.8242C2.2129 76.0035 2.22725 73.1713 2.04297 70.3516L1.76172 65.7812L1.44531 61.2109C1.23281 57.9487 1.26972 54.6774 1.55078 51.4023L1.97266 46.7969L2.35938 42.1914C2.66978 38.5991 3.58987 35.1548 5.13672 31.8906L7.14062 27.707L9.10938 23.5234C10.7662 20.032 13.2138 17.1622 16.3867 14.9805L23.9102 9.77734C26.7696 7.81121 29.8259 6.31321 33.0508 5.27734L41.418 2.60547C42.837 2.1499 44.0484 1.79236 44.9336 1.58594C45.33 1.49349 45.9014 1.37316 46.4805 1.33984C46.6987 1.32728 47.3957 1.27841 48.2031 1.51562C48.5833 1.62738 49.2239 1.92111 49.8906 2.5C50.3682 2.51674 50.9395 2.56252 51.6133 2.57031L60.7539 2.64062C63.8124 2.67584 66.8712 2.74967 69.9297 2.81641L79.0703 3.02734C82.0117 3.09155 84.9529 3.0246 87.8945 2.88672L97.0352 2.46484C100.305 2.31171 103.577 2.4016 106.844 2.74609L115.984 3.73047C118.892 4.03735 121.798 4.21273 124.703 4.25781L133.844 4.39844C136.836 4.44445 139.852 4.4227 142.844 4.36328L147.379 4.29297L151.949 4.1875C154.944 4.12802 157.954 4.02599 160.949 3.87109L170.09 3.37891C173.113 3.22249 176.137 3.0464 179.16 2.85156L188.301 2.28906C191.522 2.08145 194.747 2.04301 197.969 2.21875L202.539 2.46484L207.109 2.74609C209.872 2.89682 212.638 2.7883 215.406 2.42969L224.547 1.23438C228.096 0.773615 231.669 0.923915 235.199 1.65625L239.734 2.60547L244.305 3.55469C247.05 4.12433 249.805 4.37287 252.531 4.36328H257.102L261.672 4.32812C264.548 4.31745 267.441 4.15936 270.32 3.83594L274.855 3.34375L279.426 2.81641C282.524 2.46839 285.643 2.17324 288.742 1.9375L297.883 1.23438C301.261 0.978344 304.638 1.11957 308.008 1.62109L312.578 2.28906L317.148 2.99219C319.751 3.379 322.351 3.34683 324.953 2.95703L334.094 1.62109C337.348 1.1339 340.606 0.86321 343.867 0.847656L348.438 0.8125H353.008C356.053 0.79798 359.103 0.786068 362.148 0.777344L366.719 0.742188H371.289C374.438 0.733391 377.598 0.842745 380.746 1.05859L389.887 1.69141C392.742 1.88644 395.61 1.88305 398.465 1.72656L403.035 1.48047L407.57 1.23438C410.928 1.0503 414.312 1.21446 417.66 1.72656L422.23 2.42969L426.766 3.13281C429.484 3.54858 432.213 3.66427 434.922 3.48438L439.492 3.16797L444.062 2.88672C447.329 2.66843 450.605 2.68746 453.871 2.95703L458.441 3.30859L463.012 3.69531C465.94 3.93731 468.874 4.06977 471.801 4.08203L476.371 4.11719H480.941C483.83 4.12895 486.734 4.01216 489.625 3.73047L494.195 3.27344L498.73 2.81641C501.806 2.51672 504.901 2.24333 507.977 2.00781L512.547 1.69141L517.117 1.33984C520.335 1.09378 523.567 1.03336 526.785 1.16406L531.32 1.33984L535.891 1.51562C539.028 1.64302 542.177 1.89312 545.312 2.21875L549.883 2.67578L554.453 3.16797C557.367 3.47068 560.296 3.61678 563.207 3.66016L567.777 3.73047L572.312 3.80078C575.26 3.84469 578.224 3.79851 581.172 3.66016L590.312 3.23828C593.402 3.093 596.505 2.9762 599.594 2.92188L608.734 2.78125C611.698 2.72894 614.664 2.59944 617.629 2.39453L626.77 1.76172C629.858 1.54834 632.962 1.38872 636.051 1.26953L640.586 1.09375L645.156 0.917969C648.521 0.78811 651.895 1.00353 655.246 1.58594L659.816 2.39453L664.387 3.16797C667.091 3.63778 669.782 3.78433 672.473 3.625L677.043 3.37891L681.613 3.09766C684.844 2.90568 688.086 2.92447 691.316 3.13281L700.457 3.69531C703.185 3.87032 705.913 3.76884 708.648 3.37891L713.219 2.74609L717.789 2.07812C721.133 1.60149 724.492 1.48421 727.844 1.69141L736.984 2.25391C740.007 2.44076 743.032 2.59188 746.055 2.74609L755.195 3.23828C758.236 3.39339 761.295 3.5456 764.336 3.69531L768.871 3.90625L773.441 4.11719C776.364 4.26108 779.308 4.28243 782.23 4.1875L791.371 3.90625C794.228 3.81285 797.086 3.53671 799.949 3.09766L809.09 1.69141C812.388 1.1855 815.697 0.989134 819.004 1.05859L823.574 1.16406L828.145 1.23438C831.407 1.30326 834.664 1.63473 837.918 2.18359L842.488 2.95703L847.059 3.69531C849.749 4.1494 852.431 4.27864 855.109 4.08203L859.68 3.76562L864.25 3.41406C867.396 3.1825 870.56 3.08117 873.707 3.0625L878.242 3.02734L882.812 2.99219C885.843 2.97421 888.887 2.96099 891.918 2.92188L901.059 2.78125C904.077 2.74227 907.111 2.69839 910.129 2.60547L919.27 2.32422C922.222 2.23303 925.176 2.05996 928.129 1.79688L937.27 0.953125C940.689 0.649103 944.126 0.786513 947.535 1.33984L952.07 2.07812L956.641 2.81641C959.278 3.24444 961.921 3.29796 964.551 2.99219L973.691 1.9375C976.865 1.5687 980.042 1.35419 983.219 1.26953L987.789 1.12891L992.359 1.02344C995.509 0.939641 998.667 0.952503 1001.82 1.09375L1010.96 1.51562C1014.1 1.65678 1017.24 1.90224 1020.38 2.25391L1024.95 2.78125L1029.52 3.27344C1032.33 3.58833 1035.15 3.67553 1037.96 3.55469L1042.53 3.37891L1047.1 3.16797C1050.24 3.03311 1053.38 3.02317 1056.52 3.09766L1065.66 3.30859C1068.51 3.37634 1071.38 3.25067 1074.24 2.95703L1078.81 2.5L1083.38 2.00781C1086.52 1.68559 1089.66 1.48191 1092.8 1.375L1097.37 1.23438L1101.94 1.05859C1105.01 0.954252 1108.08 0.868221 1111.15 0.8125L1120.29 0.671875ZM1111.29 9.8125C1108.28 9.86728 1105.27 9.95622 1102.26 10.0586L1097.69 10.2344L1093.12 10.375C1090.18 10.4749 1087.23 10.6708 1084.29 10.9727L1079.72 11.4297L1075.15 11.9219C1071.92 12.2539 1068.68 12.3852 1065.45 12.3086L1056.31 12.0977C1053.37 12.0278 1050.43 12.0417 1047.48 12.168L1042.91 12.3789L1038.34 12.5547C1035.07 12.6956 1031.77 12.605 1028.5 12.2383L1019.36 11.1836C1016.42 10.8547 1013.47 10.6474 1010.54 10.5156L1001.39 10.0938C998.465 9.96264 995.535 9.94566 992.605 10.0234L988.035 10.1289L983.465 10.2695C980.554 10.3471 977.624 10.5284 974.711 10.8672L970.141 11.4297L965.57 11.957C962.116 12.3571 958.646 12.2703 955.199 11.7109L950.629 10.9727L946.094 10.2344C943.421 9.80066 940.74 9.68224 938.078 9.91797L928.938 10.7617C925.806 11.0407 922.648 11.2278 919.516 11.3242L914.98 11.4648L910.41 11.6055C907.338 11.7 904.236 11.7416 901.164 11.7812L896.629 11.8516L892.059 11.9219C889.004 11.9613 885.937 11.9741 882.883 11.9922L873.742 12.0625C870.801 12.08 867.86 12.1976 864.918 12.4141L860.348 12.7305L855.777 13.082C852.368 13.3329 848.944 13.1632 845.547 12.5898L841.012 11.8164L836.441 11.043C833.61 10.5651 830.756 10.2937 827.934 10.2344L823.363 10.1289L818.828 10.0586C816.049 10.0002 813.249 10.1587 810.461 10.5859L801.32 11.9922C798.101 12.4861 794.878 12.8013 791.652 12.9062L782.512 13.1875C779.347 13.2902 776.184 13.2727 773.02 13.1172L768.449 12.9062L763.879 12.6602C760.833 12.5102 757.784 12.3585 754.738 12.2031L750.168 11.9922L745.598 11.7461C742.539 11.5901 739.481 11.4078 736.422 11.2188L727.281 10.6562C724.544 10.487 721.8 10.6164 719.055 11.0078L714.484 11.6406L709.914 12.3086C706.569 12.785 703.212 12.9116 699.859 12.6953L695.289 12.3789L690.719 12.0977C687.862 11.9138 684.997 11.8927 682.141 12.0625L673 12.625C669.608 12.8254 666.218 12.6145 662.84 12.0273L658.27 11.2539L653.699 10.4453C650.964 9.97056 648.229 9.77778 645.508 9.88281L636.367 10.2344C633.372 10.3501 630.362 10.5195 627.367 10.7266L622.832 11.043L618.262 11.3594C615.14 11.5752 611.997 11.7263 608.875 11.7812L599.734 11.9219C596.738 11.9747 593.731 12.0973 590.734 12.2383L581.594 12.6602C578.465 12.807 575.336 12.8472 572.207 12.8008L563.066 12.6602C559.891 12.6129 556.712 12.427 553.539 12.0977L548.969 11.6406L544.398 11.1484C541.447 10.8418 538.489 10.6354 535.539 10.5156L530.969 10.3398L526.398 10.1289C523.532 10.0128 520.653 10.0851 517.785 10.3047L508.645 11.0078C505.636 11.2383 502.618 11.4881 499.609 11.7812L495.039 12.2383L490.469 12.6602C487.282 12.9702 484.095 13.1301 480.906 13.1172H476.336L471.766 13.082C468.603 13.0688 465.435 12.9214 462.273 12.6602L457.703 12.3086L453.133 11.9219C450.312 11.6889 447.48 11.6631 444.66 11.8516L440.09 12.168L435.555 12.4492C432.182 12.6746 428.793 12.5412 425.43 12.0273L416.289 10.6211C413.547 10.2018 410.795 10.0846 408.062 10.2344L403.527 10.4805L398.957 10.7266C395.727 10.9036 392.483 10.8776 389.254 10.6562L380.113 10.0234C377.177 9.8223 374.224 9.73378 371.289 9.74219H366.754L362.184 9.77734C359.141 9.78606 356.085 9.79799 353.043 9.8125H348.473L343.902 9.84766C341.081 9.86143 338.258 10.0924 335.43 10.5156L330.859 11.1836L326.289 11.8867C322.804 12.4088 319.298 12.4056 315.812 11.8867L311.242 11.1836L306.672 10.5156C303.961 10.113 301.254 10.0288 298.551 10.2344L293.98 10.5859L289.41 10.9023C286.422 11.1297 283.434 11.4105 280.445 11.7461L271.305 12.8008C268.101 13.1603 264.878 13.3168 261.672 13.3281L257.137 13.3633H252.566C249.202 13.3751 245.821 13.0376 242.477 12.3438L233.336 10.4453C230.782 9.91758 228.242 9.83497 225.707 10.1641L216.566 11.3594C213.254 11.7887 209.935 11.8921 206.617 11.7109L197.477 11.2188C194.617 11.0628 191.758 11.0703 188.898 11.2539L184.328 11.5703L179.758 11.8516C176.694 12.049 173.611 12.2204 170.547 12.3789L161.406 12.8711C158.318 13.0307 155.213 13.1262 152.125 13.1875L147.59 13.293L143.02 13.3633C139.922 13.4248 136.801 13.4461 133.703 13.3984L124.562 13.2578C121.387 13.2085 118.208 12.9951 115.035 12.6602L110.465 12.2031L105.895 11.7109C103.08 11.4144 100.268 11.3332 97.457 11.4648L88.3164 11.8867C85.1691 12.0342 82.0069 12.0609 78.8594 11.9922L74.3242 11.9219L69.7539 11.8164C66.7244 11.7503 63.678 11.6755 60.6484 11.6406L56.0781 11.6055L51.5078 11.5352C49.9703 11.5173 48.6906 11.4807 47.7461 11.3945C47.3069 11.3541 46.7046 11.2853 46.1641 11.1484C45.9905 11.1041 45.6955 10.9627 45.3203 10.7969C44.9876 10.8983 44.6131 11.0144 44.1953 11.1484L40.0117 12.5195L35.793 13.8555C33.4398 14.6126 31.1708 15.708 29.0078 17.1953L21.4844 22.3984C19.6306 23.6731 18.2151 25.314 17.2305 27.3906L13.293 35.7578C12.2043 38.0557 11.5421 40.445 11.3242 42.9648L10.9375 47.5703L10.5156 52.1406C10.2714 54.9777 10.2612 57.8314 10.4453 60.6484L10.7266 65.2188L11.043 69.7891C11.2554 73.0536 11.2155 76.3341 10.9375 79.5977L10.5508 84.1328L10.1641 88.7031C9.93855 91.3508 10.0739 94.0215 10.5508 96.6836L12.168 105.824C12.7601 109.134 13.0353 112.451 13.0117 115.773V120.344L12.9766 124.914C12.9549 127.968 12.9159 131.036 12.8711 134.09L12.8008 138.66L12.7305 143.195C12.6871 146.155 12.7124 149.13 12.8359 152.09L13.0469 156.66L13.2227 161.23C13.3571 164.454 13.303 167.676 13.0469 170.898L12.6953 175.469L12.3086 180.039C12.0689 183.049 11.8846 186.064 11.7109 189.074L11.4297 193.645L11.1836 198.215C11.0176 201.093 10.9927 203.986 11.1484 206.863L11.3945 211.398L11.6406 215.969C11.8135 219.163 11.8266 222.372 11.6758 225.566L11.2539 234.707C11.1165 237.613 11.1221 240.52 11.2539 243.426L11.6758 252.566C11.8065 255.443 12.0751 258.28 12.5195 261.074L13.2227 265.539L13.9258 269.969C14.2688 272.126 15.1211 273.965 16.4922 275.559L19.375 278.898L22.293 282.273C23.9432 284.188 25.8125 285.846 27.918 287.23L35.3008 292.082C37.1979 293.33 39.3138 294.144 41.6992 294.508L46.2344 295.176L50.7344 295.879C53.3458 296.275 55.9941 296.327 58.6445 296.02L63.1797 295.492L67.75 294.93C71.2169 294.527 74.6987 294.628 78.1562 295.211L87.2969 296.758C89.9578 297.207 92.6277 297.325 95.2773 297.074L99.8125 296.617L104.383 296.195C107.449 295.905 110.528 295.625 113.594 295.387L122.734 294.684C126.11 294.421 129.491 294.545 132.859 295.035L142 296.371C144.634 296.755 147.278 296.756 149.91 296.406L159.051 295.211C162.326 294.776 165.613 294.596 168.895 294.684L173.465 294.789L178.035 294.93C181.125 295.012 184.227 295.132 187.316 295.316L196.457 295.879C199.34 296.051 202.223 296.076 205.105 295.949L214.246 295.527C217.373 295.39 220.506 295.352 223.633 295.387L228.203 295.422L232.773 295.492C235.852 295.526 238.941 295.591 242.02 295.703L246.59 295.879L251.16 296.02C254.001 296.122 256.86 296.046 259.703 295.773L264.238 295.352L268.809 294.895C271.997 294.588 275.216 294.435 278.406 294.438H287.512C290.484 294.44 293.469 294.395 296.441 294.262L305.582 293.84C308.908 293.691 312.248 293.861 315.566 294.332L320.137 294.965L324.707 295.633C327.453 296.022 330.195 296.136 332.934 295.984L337.504 295.738L342.074 295.457C345.373 295.273 348.693 295.399 351.988 295.773L356.559 296.266L361.094 296.793C363.805 297.101 366.539 297.094 369.25 296.793L373.82 296.301L378.391 295.773C381.526 295.426 384.676 295.179 387.812 295.035L392.383 294.859L396.918 294.648C400.147 294.5 403.394 294.542 406.621 294.789L415.762 295.492C418.574 295.707 421.387 295.709 424.199 295.492L433.34 294.789C436.562 294.541 439.784 294.476 443.008 294.613L447.578 294.789L452.148 295C455.262 295.133 458.387 295.317 461.5 295.598L470.641 296.441C473.513 296.699 476.384 296.785 479.254 296.723L483.824 296.617L488.395 296.547C491.404 296.482 494.42 296.367 497.43 296.23L506.57 295.809C509.531 295.674 512.503 295.467 515.465 295.176L524.605 294.262C527.885 293.94 531.168 293.912 534.449 294.121L543.59 294.684C546.598 294.876 549.617 295.023 552.625 295.141L557.195 295.352L561.73 295.527C564.631 295.641 567.549 295.621 570.449 295.457L575.02 295.176L579.59 294.93C582.672 294.756 585.754 294.6 588.836 294.508L593.406 294.402L597.977 294.262C601.26 294.164 604.542 294.332 607.82 294.754L612.391 295.316L616.961 295.914C619.761 296.274 622.568 296.402 625.363 296.301L629.934 296.125L634.504 295.984C637.504 295.875 640.504 295.71 643.504 295.527L652.645 294.965C655.898 294.766 659.165 294.815 662.418 295.07L671.559 295.773C674.406 295.996 677.256 296.024 680.102 295.879L684.672 295.668L689.242 295.422C692.418 295.26 695.594 295.262 698.77 295.387L707.91 295.738C711.011 295.861 714.126 296.025 717.227 296.266L721.797 296.617L726.332 296.969C728.978 297.174 731.65 297.047 734.312 296.547L738.883 295.703L743.453 294.824C747.021 294.156 750.604 294.131 754.176 294.754L758.746 295.562L763.316 296.336C765.969 296.799 768.622 296.904 771.262 296.652L775.832 296.23L780.367 295.809C783.713 295.489 787.077 295.485 790.422 295.844L799.562 296.828C802.159 297.107 804.755 297.006 807.367 296.512L811.938 295.633L816.508 294.789C820.032 294.121 823.59 294.012 827.125 294.508L831.695 295.176L836.23 295.809C839.134 296.216 842.05 296.489 844.949 296.617L849.52 296.793L854.09 297.004C856.899 297.128 859.715 297.04 862.527 296.723L867.098 296.195L871.668 295.703C874.983 295.33 878.299 295.247 881.617 295.492L886.188 295.844L890.758 296.16C893.709 296.379 896.666 296.54 899.617 296.582L904.188 296.617L908.758 296.688C911.825 296.731 914.901 296.803 917.969 296.898L927.109 297.18C929.895 297.267 932.684 297.112 935.477 296.723L944.617 295.457C948.066 294.976 951.539 294.96 954.988 295.422L959.523 296.055L964.094 296.652C966.845 297.021 969.61 297.114 972.355 296.934L976.926 296.652L981.496 296.336C984.741 296.124 987.989 296.143 991.234 296.371L1000.38 297.004C1003.08 297.194 1005.78 297.071 1008.5 296.652L1017.64 295.246C1021.05 294.719 1024.48 294.652 1027.9 295L1037.04 295.914C1039.74 296.188 1042.43 296.169 1045.13 295.809L1049.7 295.176L1054.27 294.578C1057.74 294.115 1061.21 294.143 1064.68 294.684L1069.25 295.422L1073.82 296.125C1076.41 296.532 1079.02 296.542 1081.62 296.16L1090.76 294.824C1094.23 294.316 1097.7 294.322 1101.17 294.824L1105.74 295.457L1110.31 296.125C1112.9 296.501 1115.51 296.502 1118.11 296.09L1122.68 295.352L1127.22 294.613C1130.63 294.072 1134.06 293.981 1137.48 294.297L1146.62 295.141C1149.39 295.397 1152.16 295.392 1154.92 295.141L1164.06 294.297C1167.5 293.983 1170.97 294.125 1174.4 294.719L1178.97 295.527L1183.5 296.301C1186.21 296.77 1188.93 296.944 1191.62 296.793L1196.2 296.547L1200.77 296.266C1203.99 296.084 1207.21 296.126 1210.43 296.336L1215 296.617L1219.57 296.934C1222.31 297.113 1225.06 296.999 1227.8 296.617L1236.94 295.352C1240.26 294.889 1243.6 294.727 1246.93 294.895L1251.5 295.141L1256.07 295.352C1258.96 295.497 1261.86 295.497 1264.75 295.352L1269.32 295.141L1273.89 294.895C1277.07 294.736 1280.24 294.722 1283.42 294.859L1292.56 295.281C1295.39 295.404 1298.23 295.309 1301.07 295.035L1305.64 294.613L1310.21 294.156C1313.44 293.844 1316.68 293.717 1319.91 293.805L1324.48 293.945L1329.02 294.051C1332.24 294.138 1335.5 294.449 1338.72 294.93L1347.86 296.266C1350.68 296.686 1353.49 296.905 1356.3 296.898H1365.44C1368.21 296.892 1371.02 296.628 1373.8 296.125L1378.34 295.281L1382.91 294.473C1386.35 293.853 1389.83 293.698 1393.28 294.016L1397.85 294.438L1402.39 294.859C1405.06 295.105 1407.73 295 1410.37 294.578L1414.87 293.875L1419.4 293.137C1421.56 292.789 1423.42 291.918 1425.06 290.465L1428.47 287.441L1431.88 284.383C1433.76 282.718 1435.29 280.794 1436.45 278.582L1438.6 274.539L1440.71 270.496C1441.81 268.398 1442.42 266.177 1442.54 263.781L1442.96 254.57C1443.09 251.656 1443.1 248.749 1442.96 245.852L1442.75 241.281L1442.5 236.711C1442.34 233.468 1442.4 230.215 1442.68 226.973L1443.45 217.832C1443.68 215.084 1443.65 212.321 1443.34 209.57L1442.82 205.035L1442.32 200.465C1441.97 197.26 1441.77 194.039 1441.76 190.832V186.262L1441.73 181.691C1441.72 178.621 1441.74 175.551 1441.8 172.48L1441.9 167.91L1441.97 163.34C1442.03 160.148 1442.23 156.931 1442.61 153.742L1443.17 149.172L1443.7 144.637C1444.02 141.862 1444.09 139.076 1443.91 136.305L1443.62 131.734L1443.31 127.164C1443.11 124.142 1442.88 121.116 1442.64 118.094L1441.94 108.953C1441.69 105.836 1441.5 102.719 1441.41 99.6016L1441.13 90.4609C1441.03 87.2492 1441.14 84.0383 1441.41 80.8281L1442.18 71.6875C1442.43 68.7815 1442.52 65.8733 1442.5 62.9688V58.3984L1442.46 53.8281C1442.45 51.1667 1442.09 48.5978 1441.41 46.1289L1440.21 41.8398L1439.05 37.5508C1438.36 35.0328 1437.38 32.6009 1436.1 30.2734L1433.92 26.3359L1431.78 22.3984C1430.75 20.5229 1429.29 19.0314 1427.31 17.8984L1423.27 15.6133L1419.26 13.293C1417.14 12.082 1414.87 11.3675 1412.44 11.1484L1407.8 10.7266L1403.2 10.3398C1400.27 10.0773 1397.36 9.95635 1394.48 9.98828L1389.91 10.0234L1385.34 10.0938C1382.24 10.1284 1379.15 10.0936 1376.05 10.0234L1366.91 9.8125C1364.16 9.7498 1361.38 9.97652 1358.62 10.4453L1349.48 11.9922C1346 12.5804 1342.49 12.6265 1339 12.168L1334.46 11.5703L1329.89 10.9727C1326.99 10.5909 1324.08 10.347 1321.18 10.2344L1312.04 9.88281C1309.35 9.77917 1306.65 9.97875 1303.95 10.5156L1294.81 12.3438C1291.29 13.0433 1287.76 13.1882 1284.23 12.7305L1275.09 11.5352C1272.14 11.1511 1269.18 10.8605 1266.23 10.6562L1257.09 10.0234C1254.19 9.82343 1251.29 9.76179 1248.4 9.84766L1239.26 10.1289C1236.12 10.2226 1232.98 10.2002 1229.84 10.0938L1225.27 9.95312L1220.7 9.77734C1217.88 9.68145 1215.05 9.78002 1212.23 10.0938L1207.66 10.6211L1203.09 11.1133C1199.87 11.4715 1196.64 11.6557 1193.42 11.6406L1188.85 11.6055H1184.28C1181.22 11.5911 1178.16 11.5407 1175.1 11.5L1170.53 11.4648L1165.96 11.3945C1162.96 11.3547 1159.96 11.3593 1156.96 11.3945L1152.39 11.4297L1147.82 11.5C1144.6 11.5379 1141.37 11.3903 1138.15 11.043L1129.01 10.0586C1126.15 9.75033 1123.29 9.62002 1120.43 9.67188L1111.29 9.8125Z" fill="black"/>
</svg>
