<svg width="2539" height="326" viewBox="0 0 2539 326" fill="none" xmlns="http://www.w3.org/2000/svg">
<path d="M1099.07 0.261719C1109.14 0.225763 1119.22 0.642951 1129.29 1.52344L1144.03 2.85156L1158.84 4.11328C1168.21 4.93222 1177.62 5.03497 1186.99 4.37891L1201.73 3.31641L1216.48 2.32031C1227.05 1.58188 1237.62 2.19182 1248.15 4.24609L1262.89 7.16797L1277.7 10.0234C1286.76 11.7881 1295.78 12.3181 1304.8 11.5508L1334.28 9.02734C1344.65 8.14283 1355.06 8.26588 1365.43 9.35938L1394.91 12.4141C1404.45 13.4205 1413.99 13.9558 1423.53 14.0078L1438.34 14.0742L1453.08 14.207C1462.53 14.2565 1471.98 13.6558 1481.44 12.4805L1496.18 10.6875L1510.92 8.82812C1520.83 7.59626 1530.77 6.4759 1540.67 5.50781L1555.41 4.11328L1570.16 2.65234C1580.4 1.65138 1590.66 1.39202 1600.9 1.92188L1615.64 2.71875L1630.45 3.44922C1640.5 3.97096 1650.56 4.90611 1660.6 6.23828L1675.34 8.23047L1690.09 10.1562C1699.6 11.4184 1709.13 12.1668 1718.64 12.3477L1748.12 12.8789C1757.73 13.0616 1767.34 12.858 1776.95 12.2812L1806.43 10.5547C1816.36 9.95832 1826.31 9.51608 1836.25 9.29297L1865.73 8.62891C1875.37 8.41247 1885.04 7.88592 1894.68 7.03516L1909.43 5.70703L1924.17 4.44531C1934.1 3.56903 1944.05 2.87635 1953.98 2.38672L1968.73 1.65625L1983.54 0.925781C1994.13 0.406557 2004.73 1.30881 2015.28 3.64844L2030.02 6.90234L2044.76 10.2227C2053.79 12.2251 2062.81 12.8958 2071.79 12.2148L2101.27 9.95703C2111.54 9.17868 2121.82 9.1786 2132.09 10.0234L2146.83 11.2852L2161.57 12.4805C2170.65 13.228 2179.75 12.7439 2188.86 11.0859L2218.35 5.77344C2228.88 3.85563 2239.46 3.28145 2250.02 4.11328L2264.77 5.30859L2279.57 6.4375C2289.36 7.20929 2299.14 7.92563 2308.93 8.5625L2323.67 9.49219L2338.41 10.4883L2397.38 14.207C2406.92 14.8064 2416.46 14.9345 2426 14.5391L2440.74 13.9414L2455.48 13.2773C2466.08 12.8381 2476.51 13.8605 2486.7 16.2656L2500.77 19.5859L2514.92 22.9062C2521.06 24.3571 2526.46 27.338 2530.39 32.2031C2534.28 37.026 2536.12 42.9656 2536.5 49.3359L2537.43 64.6094L2538.36 79.9492C2539.02 90.9006 2538.18 101.699 2535.9 112.289L2532.71 127.031L2529.59 141.773C2527.66 150.769 2527.09 159.72 2527.93 168.668L2530.72 198.152C2531.67 208.229 2532.13 218.315 2532.18 228.367L2532.25 243.109L2532.32 257.785C2532.37 269.595 2528.55 279.842 2520.3 287.602L2510.87 296.5L2501.37 305.332C2493.38 312.84 2483.31 316.625 2471.75 317.086L2456.95 317.684L2442.2 318.281C2432.6 318.659 2422.99 319.381 2413.38 320.473L2398.64 322.133L2383.9 323.859C2373.16 325.081 2362.39 324.548 2351.69 322.332L2322.21 316.223C2313.34 314.386 2304.48 314.115 2295.64 315.426L2266.16 319.809C2256.03 321.312 2245.89 322.252 2235.75 322.598L2221 323.129L2206.2 323.594C2196.12 323.935 2186.05 323.837 2175.98 323.262L2161.24 322.398L2146.43 321.535C2136.38 320.959 2126.33 319.982 2116.28 318.547L2101.47 316.422L2086.73 314.297C2077.46 312.973 2068.17 312.593 2058.91 313.102L2029.42 314.695C2019.35 315.248 2009.28 315.399 1999.21 315.094L1969.72 314.164C1960.35 313.88 1950.95 314.394 1941.57 315.625L1912.08 319.477C1902.01 320.797 1891.94 321.695 1881.87 322.133L1867.12 322.797L1852.38 323.395C1842.49 323.824 1832.59 324.161 1822.7 324.391L1793.21 325.055C1782.93 325.293 1772.61 324.743 1762.34 323.328L1747.59 321.27L1732.85 319.277C1723.44 317.982 1714.03 317.344 1704.63 317.484L1689.89 317.75L1675.14 317.949C1665.23 318.098 1655.31 318.118 1645.39 317.949L1615.91 317.418C1606.11 317.251 1596.29 317.145 1586.49 317.086L1571.75 317.02L1557.01 316.887C1547.6 316.83 1538.14 317.473 1528.72 318.812L1499.23 323.062C1488.91 324.529 1478.56 325.037 1468.22 324.59L1453.41 323.926L1438.67 323.262C1429.09 322.847 1419.5 322.831 1409.92 323.195L1395.18 323.793L1380.37 324.324C1370.19 324.711 1360 324.492 1349.82 323.594L1320.34 320.938C1310.29 320.05 1300.23 318.821 1290.19 317.152L1260.7 312.238C1252.05 310.801 1243.39 311.153 1234.67 313.367L1219.93 317.152L1205.19 320.871C1194.56 323.569 1183.88 324.653 1173.18 324.125L1143.7 322.664C1133.53 322.163 1123.37 321.114 1113.21 319.41L1098.47 316.887L1083.73 314.43C1074.97 312.96 1066.22 313.193 1057.43 315.094L1027.95 321.469C1017.47 323.736 1006.94 324.696 996.406 324.391L981.664 323.992L966.922 323.527C957.213 323.245 947.478 323.189 937.77 323.328L908.285 323.727C898.349 323.869 888.404 323.816 878.469 323.594L863.727 323.328L848.984 322.996C839.092 322.775 829.193 322.379 819.301 321.934L789.816 320.605C779.643 320.147 769.43 319.102 759.27 317.418L729.785 312.504C720.744 311.007 711.717 310.834 702.691 311.906L687.949 313.633L673.207 315.426C663.075 316.629 652.931 317.269 642.793 317.352L628.051 317.418L613.242 317.551C603.101 317.631 592.964 317.116 582.828 316.023L568.02 314.43L553.277 312.836C543.867 311.822 534.459 311.548 525.055 311.906L495.57 312.969C485.927 313.336 476.263 314.043 466.617 315.027L451.875 316.555L437.066 318.016C427.193 319.023 417.323 319.987 407.449 320.805L377.965 323.195C367.477 324.063 356.962 323.76 346.488 322.199L317.004 317.816C307.524 316.404 298.05 315.587 288.582 315.359L273.84 314.961L259.031 314.629C249.292 314.396 239.552 314.319 229.812 314.363L200.328 314.496C190.888 314.539 181.424 315.209 171.973 316.555L157.23 318.68L142.488 320.738C131.962 322.237 121.414 322.465 110.879 321.336L81.3945 318.148C70.9218 317.026 60.8726 314.745 51.3125 311.309L24.6172 301.746C18.8547 299.672 13.9245 296.269 10.3398 291.453C6.78698 286.666 4.96981 280.959 4.42969 274.785L1.77344 245.035C0.870134 234.707 0.767763 224.406 1.375 214.156L3.10156 184.672C3.66272 175.202 3.60387 165.72 2.96875 156.25L1.97266 141.508L1.04297 126.766C0.355378 116.522 0.368393 106.248 1.17578 96.0195L2.37109 81.2773L3.5 66.6016C4.42011 54.9447 8.91992 45.0704 17.7773 38.5117L27.4062 31.4062L37.0352 24.2344C40.061 21.9938 42.1401 20.299 43.4102 19.1211L43.4766 17.7266L44.4727 13.7422C45.0458 12.6692 45.7922 11.8293 46.4648 11.2188C47.7095 10.0963 49.0568 9.46533 49.8516 9.16016C51.4655 8.54333 53.2637 8.26878 54.6992 8.09766C57.7411 7.73789 61.8755 7.62654 66.8516 7.69922L81.5938 7.96484L96.3359 8.16406C106.198 8.30899 116.091 8.48706 125.953 8.76172L140.695 9.16016L155.438 9.625C165.011 9.89172 174.617 9.73227 184.191 9.16016L199 8.23047L213.742 7.36719C224.107 6.74873 234.467 7.16946 244.82 8.5625L259.629 10.5547L274.371 12.5469C283.871 13.8258 293.368 14.5514 302.859 14.7383L332.344 15.2695C342.048 15.46 351.792 15.4491 361.496 15.2031L376.238 14.8711L390.98 14.4727C400.696 14.2264 410.417 13.7861 420.133 13.1445L434.875 12.1484L449.617 11.2188C459.399 10.5729 469.187 9.83195 478.969 9.02734L493.711 7.76562L508.453 6.57031C518.713 5.72631 529.005 5.65588 539.266 6.37109L554.008 7.43359L568.75 8.42969C577.906 9.06785 587.065 8.62077 596.242 7.10156L610.984 4.71094L625.793 2.25391C636.818 0.430785 647.845 0.951799 658.797 3.84766L673.539 7.76562L688.348 11.6836C697.464 14.0952 706.533 15.2415 715.574 15.2031L730.316 15.1367L745.125 15.0703C754.549 15.0266 763.978 14.3642 773.414 13.0117L802.898 8.76172C812.853 7.3346 822.825 6.14274 832.781 5.17578L847.523 3.78125L862.266 2.32031C872.912 1.2866 883.592 1.7645 894.207 3.78125L908.949 6.63672L923.691 9.42578C932.467 11.0924 941.212 11.0363 949.988 9.35938L979.473 3.78125C989.804 1.80616 1000.19 0.723212 1010.55 0.660156L1084.26 0.328125L1099.07 0.261719ZM1084.33 17.3281L1010.62 17.6602C1001.32 17.7181 991.985 18.6666 982.66 20.4492L967.918 23.2383L953.176 26.0938C942.299 28.1708 931.381 28.1604 920.504 26.0938L891.02 20.5156C881.971 18.7964 872.943 18.3784 863.926 19.2539L849.184 20.6484L834.441 22.1094C824.747 23.0507 815.052 24.2391 805.355 25.6289L790.613 27.7539L775.805 29.8125C765.605 31.2736 755.403 32.0235 745.191 32.0703L715.707 32.2031C705.103 32.2508 694.494 30.8742 683.965 28.0859L669.223 24.2344L654.48 20.3164C645.787 18.0143 637.135 17.5599 628.516 18.9883L599.031 23.9023C588.558 25.6366 578.05 26.1612 567.555 25.4297L552.812 24.3672L538.07 23.3711C528.67 22.7161 519.25 22.7305 509.848 23.5039L495.105 24.7656L480.363 25.9609C470.491 26.773 460.618 27.5004 450.746 28.1523L436.004 29.1484L421.262 30.0781C411.315 30.7349 401.326 31.2205 391.379 31.4727L376.637 31.8047L361.895 32.2031C351.942 32.4551 341.965 32.4649 332.012 32.2695L302.527 31.7383C292.373 31.5385 282.192 30.7146 272.047 29.3477L242.562 25.3633C233.281 24.1143 224.008 23.8129 214.738 24.3672L185.254 26.0938C175.175 26.6969 165.053 26.9058 154.973 26.625L140.23 26.1602L125.488 25.7617C115.705 25.4892 105.92 25.3079 96.1367 25.1641L81.3945 24.9648L66.6523 24.6992C63.7597 24.6567 61.4132 24.7559 59.6133 24.832C59.0522 26.5498 58.3978 27.847 58.0195 28.3516C57.1978 29.4468 56.1982 30.4952 55.2305 31.4062C53.2522 33.2663 50.5022 35.4651 47.1953 37.9141L37.5 45.0859L27.8711 52.1914C23.8551 55.1652 21.0632 59.9534 20.4336 67.9297L19.3047 82.6719L18.1094 97.3477C17.3679 106.742 17.3465 116.161 17.9766 125.57L18.9727 140.379L19.9688 155.121C20.651 165.301 20.7048 175.488 20.1016 185.668L19.1719 200.41L18.3086 215.152C17.7508 224.565 17.8752 234.063 18.707 243.574L21.3633 273.324C21.6918 277.046 22.7083 279.598 24.0195 281.359C25.3135 283.087 27.2839 284.624 30.3945 285.742L57.0898 295.305C65.3141 298.26 74.0051 300.229 83.1875 301.215L112.672 304.402C121.8 305.381 130.96 305.239 140.098 303.938L169.582 299.688C179.793 298.234 190.039 297.542 200.262 297.496L229.746 297.363C239.654 297.319 249.588 297.391 259.496 297.629L274.238 297.961L288.98 298.359C299.162 298.604 309.357 299.434 319.527 300.949L334.27 303.141L349.012 305.398C358.198 306.766 367.399 307.021 376.57 306.262L406.055 303.871C415.828 303.062 425.632 302.146 435.406 301.148L464.891 298.094C474.893 297.073 484.902 296.416 494.906 296.035L509.648 295.438L524.391 294.906C534.637 294.516 544.897 294.864 555.137 295.969L584.621 299.156C594.12 300.181 603.616 300.626 613.109 300.551L627.918 300.418L642.66 300.352C652.168 300.274 661.7 299.622 671.215 298.492L700.699 295.039C711.329 293.777 721.96 294.01 732.574 295.77L762.059 300.684C771.557 302.258 781.061 303.244 790.547 303.672L820.031 305C829.799 305.44 839.615 305.777 849.383 305.996L878.867 306.66C888.585 306.877 898.302 306.866 908.02 306.727L937.504 306.328C947.456 306.186 957.435 306.238 967.387 306.527L982.129 306.992L996.871 307.391C1006 307.656 1015.19 306.785 1024.36 304.801L1053.85 298.426C1064.71 296.078 1075.62 295.868 1086.52 297.695L1116 302.609C1125.51 304.205 1135.06 305.262 1144.56 305.73L1174.04 307.191C1183 307.632 1191.98 306.695 1201 304.402L1215.75 300.617L1230.49 296.898C1241.44 294.116 1252.48 293.608 1263.49 295.438L1292.98 300.352C1302.6 301.95 1312.25 303.155 1321.86 304.004L1351.35 306.66C1360.82 307.495 1370.3 307.685 1379.77 307.324L1394.51 306.793L1409.25 306.195C1419.3 305.812 1429.35 305.893 1439.4 306.328L1454.21 306.926L1468.95 307.59C1478.24 307.992 1487.54 307.517 1496.84 306.195L1511.59 304.07L1526.33 302.012C1536.56 300.557 1546.83 299.826 1557.07 299.887L1571.82 300.02L1586.62 300.086C1596.48 300.145 1606.33 300.251 1616.18 300.418L1645.66 300.949C1655.39 301.115 1665.14 301.095 1674.88 300.949L1704.36 300.551C1714.63 300.397 1724.92 300.998 1735.18 302.41L1749.92 304.469L1764.66 306.461C1774.05 307.753 1783.44 308.272 1792.82 308.055L1822.3 307.391C1832.08 307.164 1841.88 306.819 1851.65 306.395L1866.39 305.797L1881.14 305.133C1890.72 304.717 1900.31 303.867 1909.89 302.609L1939.38 298.758C1949.65 297.409 1959.96 296.919 1970.25 297.23L1985 297.629L1999.74 298.094C2009.32 298.384 2018.91 298.288 2028.49 297.762L2043.23 296.965L2057.98 296.102C2068.37 295.531 2078.81 296.012 2089.19 297.496L2118.67 301.746C2128.26 303.116 2137.85 304.053 2147.43 304.602L2162.17 305.465L2176.91 306.262C2186.48 306.81 2196.09 306.919 2205.66 306.594L2220.41 306.129L2235.15 305.598C2244.65 305.274 2254.19 304.42 2263.7 303.008L2293.19 298.625C2304.01 297.02 2314.87 297.319 2325.66 299.555L2355.14 305.664C2364.11 307.52 2373.05 307.94 2381.97 306.926L2411.46 303.605C2421.48 302.466 2431.51 301.676 2441.54 301.281L2456.28 300.684L2471.02 300.152C2479.11 299.835 2485.15 297.298 2489.75 292.98L2499.18 284.082L2508.68 275.184C2512.99 271.108 2515.35 265.624 2515.32 257.852L2515.25 243.176L2515.18 228.434C2515.14 218.894 2514.69 209.32 2513.79 199.746L2511 170.262C2509.99 159.553 2510.63 148.848 2512.93 138.188L2519.3 108.703C2521.25 99.6393 2521.93 90.3886 2521.36 80.9453L2520.5 65.6719L2519.57 50.332C2519.34 46.5034 2518.3 44.2174 2517.18 42.8281C2516.09 41.489 2514.26 40.21 2511 39.4414L2496.92 36.1211L2482.78 32.8008C2474.13 30.7595 2465.28 29.9034 2456.21 30.2773L2426.73 31.4727C2416.6 31.8926 2406.44 31.8434 2396.32 31.207L2366.83 29.3477C2356.99 28.7294 2347.12 28.0624 2337.28 27.4219L2322.54 26.4922L2307.8 25.4961C2297.93 24.8538 2288.04 24.1495 2278.18 23.3711L2263.44 22.2422L2248.7 21.0469C2239.61 20.3312 2230.52 20.7829 2221.4 22.4414L2206.66 25.1641L2191.92 27.8203C2181.36 29.7412 2170.76 30.2853 2160.18 29.4141L2145.43 28.2188L2130.69 26.957C2121.31 26.1853 2111.92 26.179 2102.54 26.8906L2073.05 29.1484C2062.37 29.9586 2051.67 29.1823 2041.04 26.8242L2026.3 23.5039L2011.56 20.25C2002.46 18.2325 1993.38 17.48 1984.33 17.9258L1954.85 19.3867C1945.13 19.8654 1935.41 20.5217 1925.7 21.3789L1910.95 22.6406L1896.21 23.9688C1886.19 24.8524 1876.15 25.4041 1866.13 25.6289L1836.64 26.293C1826.93 26.511 1817.21 26.9054 1807.49 27.4883L1792.68 28.3516L1777.94 29.2812C1767.9 29.8836 1757.84 30.07 1747.79 29.8789L1718.31 29.3477C1708.15 29.1546 1697.97 28.369 1687.83 27.0234L1673.09 25.0312L1658.34 23.1055C1648.74 21.8323 1639.12 20.9467 1629.52 20.4492L1614.78 19.6523L1600.04 18.9219C1590.63 18.4348 1581.23 18.6664 1571.82 19.5859L1557.07 20.9805L1542.33 22.4414C1532.57 23.3949 1522.8 24.4818 1513.05 25.6953L1498.3 27.5547L1483.56 29.3477C1473.37 30.6152 1463.15 31.2615 1452.95 31.207L1438.21 31.0742L1423.46 31.0078C1413.35 30.9535 1403.23 30.4139 1393.12 29.3477L1378.38 27.8203L1363.63 26.2266C1354.34 25.2464 1345.03 25.1684 1335.74 25.9609L1306.26 28.4844C1295.63 29.3906 1284.98 28.7592 1274.38 26.6914L1244.9 20.9805C1235.8 19.2058 1226.73 18.6221 1217.67 19.2539L1202.93 20.3164L1188.12 21.3125C1177.85 22.0294 1167.57 21.9452 1157.31 21.0469L1142.57 19.7852L1127.82 18.457C1118.26 17.6202 1108.7 17.2278 1099.14 17.2617L1084.33 17.3281Z" fill="black"/>
</svg>
