<svg width="2542" height="326" viewBox="0 0 2542 326" fill="none" xmlns="http://www.w3.org/2000/svg">
<path d="M1041.71 0.261719C1051.24 0.225292 1060.8 0.638447 1070.33 1.52344L1084.21 2.85156L1098.09 4.11328C1106.87 4.92908 1115.67 5.0294 1124.45 4.37891L1138.39 3.31641L1152.27 2.32031C1162.34 1.57278 1172.4 2.23597 1182.42 4.3125L1196.3 7.16797L1210.25 10.0234C1218.7 11.7723 1227.14 12.3121 1235.55 11.5508L1263.3 9.02734C1273.14 8.13707 1283.02 8.25884 1292.86 9.35938L1320.61 12.4141C1329.58 13.4177 1338.55 13.9567 1347.51 14.0078L1361.39 14.0742L1375.33 14.207C1384.2 14.2563 1393.08 13.6519 1401.96 12.4805L1415.84 10.6875L1429.72 8.82812C1439.05 7.59626 1448.41 6.47615 1457.74 5.50781L1471.69 4.11328L1485.57 2.65234C1495.28 1.64546 1505 1.38752 1514.72 1.92188L1528.6 2.71875L1542.48 3.44922C1551.98 3.97216 1561.53 4.90118 1571.03 6.23828L1584.91 8.23047L1598.79 10.1562C1607.72 11.4133 1616.69 12.1676 1625.62 12.3477L1653.38 12.8789C1662.4 13.0611 1671.44 12.8564 1680.47 12.2812L1694.35 11.418L1708.29 10.5547C1717.66 9.95857 1727.02 9.51617 1736.38 9.29297L1750.26 8.96094L1764.21 8.62891C1773.26 8.4129 1782.31 7.88222 1791.37 7.03516L1805.31 5.70703L1819.19 4.44531C1828.57 3.56709 1837.97 2.87712 1847.35 2.38672L1875.11 0.925781C1885.19 0.398401 1895.29 1.35404 1905.32 3.71484L1933.08 10.2227C1941.49 12.2037 1949.89 12.8838 1958.25 12.2148L1972.19 11.0859L1986.07 9.95703C1995.81 9.17317 2005.55 9.17281 2015.29 10.0234L2029.17 11.2852L2043.11 12.4805C2051.57 13.2164 2060.06 12.7924 2068.55 11.1523L2082.43 8.42969L2096.3 5.77344C2106.32 3.83857 2116.4 3.27148 2126.45 4.11328L2140.33 5.30859L2154.21 6.4375C2163.43 7.2099 2172.68 7.92525 2181.9 8.5625L2195.78 9.49219L2209.73 10.4883L2265.24 14.207C2274.19 14.804 2283.19 14.9329 2292.14 14.5391L2306.02 13.9414L2319.89 13.2773C2328.69 12.8902 2337.56 11.7913 2346.39 9.95703L2360.27 7.10156L2374.15 4.17969C2384.04 2.12412 2393.97 1.24251 2403.9 1.52344L2417.84 1.92188L2431.72 2.32031C2441.63 2.60266 2451.33 3.98373 2460.81 6.50391L2474.09 10.0234L2487.37 13.6094C2497.59 16.329 2506.08 21.2775 2512.14 28.8828L2526.22 46.5469C2532.35 54.2459 2535.16 63.8523 2535.25 74.5703L2535.32 88.4492L2535.45 102.328C2535.52 111.566 2535.62 120.848 2535.78 130.086L2536.31 157.844C2536.47 167.04 2536.73 176.272 2537.11 185.469L2538.3 213.227C2538.69 222.42 2539.14 231.834 2539.77 241.449L2540.76 255.992L2541.69 270.469C2542.09 276.589 2541.02 282.565 2537.84 287.668C2534.64 292.794 2529.79 296.248 2524.09 298.359L2511.08 303.207L2498.13 307.988C2488.93 311.401 2479.39 313.88 2469.57 315.426L2441.82 319.809C2432.22 321.32 2422.6 322.251 2413 322.598L2399.12 323.129L2385.17 323.594C2375.64 323.937 2366.08 323.841 2356.55 323.262L2328.79 321.535C2319.28 320.957 2309.75 319.989 2300.24 318.547L2286.36 316.422L2272.41 314.297C2263.74 312.982 2255.04 312.597 2246.38 313.102L2218.62 314.695C2209.11 315.249 2199.58 315.399 2190.07 315.094L2176.12 314.629L2162.25 314.164C2153.47 313.882 2144.67 314.402 2135.88 315.625L2108.12 319.477C2098.6 320.802 2089.03 321.694 2079.5 322.133L2065.62 322.73L2051.75 323.395C2042.43 323.824 2033.11 324.161 2023.79 324.391L2009.84 324.723L1995.96 325.055C1986.22 325.294 1976.48 324.749 1966.75 323.328L1952.87 321.27L1938.92 319.211C1930.11 317.924 1921.29 317.344 1912.49 317.484L1898.61 317.75L1884.73 317.949C1875.38 318.098 1866 318.118 1856.64 317.949L1842.7 317.684L1828.82 317.418C1819.59 317.252 1810.36 317.145 1801.13 317.086L1787.25 317.02L1773.37 316.887C1764.56 316.831 1755.7 317.481 1746.88 318.812L1733 320.938L1719.05 322.996C1709.25 324.473 1699.45 325.041 1689.63 324.59L1675.75 323.926L1661.81 323.262C1652.8 322.847 1643.79 322.831 1634.78 323.195L1620.84 323.793L1606.96 324.324C1597.33 324.713 1587.7 324.494 1578.07 323.594L1564.12 322.266L1550.25 320.938C1540.75 320.048 1531.25 318.759 1521.76 317.086L1507.88 314.695L1494 312.238C1485.99 310.827 1477.97 311.192 1469.89 313.367L1455.95 317.086L1442.07 320.871C1431.97 323.593 1421.78 324.658 1411.59 324.125L1383.83 322.664C1374.22 322.161 1364.61 321.052 1355.01 319.344L1341.07 316.887L1327.19 314.43C1319.06 312.982 1310.91 313.154 1302.75 315.027L1274.99 321.402C1265.04 323.686 1255.05 324.698 1245.04 324.391L1231.16 323.992L1217.22 323.527C1208.1 323.246 1198.98 323.19 1189.86 323.328L1175.91 323.527L1162.04 323.727C1152.66 323.869 1143.25 323.816 1133.88 323.594L1120 323.328L1106.12 322.996C1096.79 322.774 1087.43 322.38 1078.1 321.934L1050.34 320.605C1040.71 320.145 1031.07 319.109 1021.45 317.418L993.695 312.504C985.261 311.021 976.81 310.846 968.395 311.906L940.637 315.359C931.046 316.568 921.415 317.27 911.816 317.352L897.938 317.418L884.059 317.551C874.444 317.633 864.779 317.123 855.172 316.023L827.414 312.836C818.582 311.825 809.743 311.55 800.918 311.906L787.039 312.438L773.094 312.969C764.029 313.336 754.935 314.045 745.867 315.027L731.988 316.555L718.109 318.016C708.792 319.025 699.47 319.986 690.152 320.805L676.207 322L662.328 323.195C652.37 324.069 642.386 323.771 632.445 322.199L618.566 319.941L604.688 317.75C595.786 316.343 586.88 315.586 577.992 315.359L564.113 314.961L550.168 314.629C541.004 314.396 531.84 314.32 522.676 314.363L508.797 314.43L494.852 314.496C486.008 314.539 477.147 315.216 468.289 316.555L454.41 318.613L440.531 320.738C430.531 322.249 420.46 322.408 410.449 321.27L396.57 319.742L382.691 318.148C373.927 317.151 365.152 316.912 356.395 317.484L328.637 319.344C319.202 319.961 309.717 320.291 300.281 320.34L272.523 320.473C263.075 320.521 253.615 320.203 244.168 319.609L230.223 318.746L216.344 317.883C207.467 317.325 198.592 317.385 189.715 318.016L175.77 319.012L161.891 320.008C152.197 320.698 142.497 320.659 132.805 319.875L118.926 318.746L104.98 317.617C95.4111 316.842 86.1842 315.5 77.2891 313.699L51.6562 308.52C41.1726 306.398 32.4351 301.138 25.957 292.781L10.418 272.727C3.97035 264.409 0.824497 254.528 0.789062 243.574V229.695L0.722656 215.816C0.690788 205.965 1.65944 196.083 3.64453 186.266L6.43359 172.387L9.28906 158.508C11.0718 149.691 12.0873 140.868 12.4102 132.078L12.9414 118.199L13.4727 104.254C13.804 95.2008 13.7928 86.2352 13.4727 77.3594L12.9414 63.6797L12.4766 50.0664C12.0869 39.2709 15.3735 29.1582 25.4258 24.3008L42.6914 15.9336C44.6368 14.9933 46.1451 14.2136 47.2734 13.6094C47.8701 12.1822 48.6501 11.1111 49.332 10.4883C50.3732 9.54024 51.4128 9.04185 51.9219 8.82812C52.9688 8.39196 53.9695 8.17837 54.4453 8.09766C55.5518 7.91006 56.8586 7.8228 58.0977 7.76562C60.6848 7.64687 64.3926 7.62651 69.0547 7.69922L82.9336 7.96484L96.8125 8.16406C106.117 8.30917 115.465 8.48664 124.77 8.76172L138.648 9.16016L152.527 9.625C161.529 9.89112 170.552 9.73184 179.555 9.16016L193.434 8.23047L207.312 7.36719C217.162 6.74173 227.028 7.15672 236.863 8.5625L250.742 10.5547L264.688 12.5469C273.608 13.8213 282.539 14.5527 291.449 14.7383L319.207 15.2695C328.337 15.4597 337.503 15.4487 346.633 15.2031L360.512 14.8711L374.391 14.4727C383.524 14.227 392.682 13.7842 401.816 13.1445L415.762 12.1484L429.641 11.2188C438.849 10.5735 448.057 9.83109 457.266 9.02734L471.211 7.83203L485.09 6.57031C494.805 5.72269 504.526 5.65263 514.242 6.37109L528.121 7.43359L542.066 8.42969C550.613 9.05972 559.193 8.67547 567.766 7.16797L595.523 2.25391C606.065 0.400179 616.612 0.980004 627.066 3.91406L641.012 7.83203L654.891 11.6836C663.416 14.0794 671.888 15.2412 680.324 15.2031L694.27 15.1367L708.148 15.0703C716.992 15.0278 725.853 14.3593 734.711 13.0117L762.469 8.76172C771.867 7.33189 781.29 6.14447 790.691 5.17578L804.57 3.78125L818.516 2.32031C828.637 1.28 838.78 1.81462 848.863 3.84766L876.621 9.42578C884.773 11.0693 892.906 11.0794 901.059 9.42578L914.938 6.57031L928.883 3.78125C938.666 1.79834 948.485 0.723561 958.301 0.660156L986.059 0.527344C995.327 0.467478 1004.61 0.430503 1013.88 0.394531L1027.76 0.328125L1041.71 0.261719ZM1027.83 17.3281L972.312 17.5938L958.367 17.6602C949.671 17.718 940.932 18.6784 932.203 20.4492L918.324 23.2383L904.445 26.0938C894.078 28.1969 883.669 28.1804 873.301 26.0938L859.355 23.3047L845.477 20.5156C837.041 18.8148 828.641 18.3893 820.242 19.2539L806.363 20.6484L792.418 22.1094C783.298 23.0494 774.181 24.2411 765.059 25.6289L751.18 27.6875L737.234 29.8125C727.571 31.2817 717.893 32.0242 708.215 32.0703L680.457 32.2031C670.376 32.2512 660.3 30.8921 650.309 28.0859L636.363 24.168L622.484 20.25C614.423 17.9873 606.42 17.586 598.445 18.9883L570.688 23.9023C560.746 25.6506 550.773 26.1652 540.805 25.4297L526.859 24.3672L512.98 23.3711C504.174 22.7201 495.359 22.735 486.551 23.5039L472.672 24.7656L458.793 25.9609C449.483 26.7737 440.146 27.4999 430.836 28.1523L416.957 29.1484L403.012 30.0781C393.631 30.7351 384.237 31.2203 374.855 31.4727L360.977 31.8047L347.098 32.2031C337.698 32.456 328.275 32.4653 318.875 32.2695L304.996 32.0039L291.051 31.7383C281.449 31.5371 271.822 30.7191 262.23 29.3477L234.473 25.3633C225.789 24.1218 217.111 23.8186 208.441 24.3672L194.496 25.2305L180.617 26.0938C171.1 26.6981 161.581 26.9054 152.062 26.625L138.117 26.1602L124.238 25.7617C115.013 25.489 105.772 25.3079 96.5469 25.1641L82.668 24.9648L68.7891 24.6992C65.4898 24.6478 62.8541 24.6622 60.8867 24.6992C60.3968 25.213 59.9972 25.6554 59.6914 25.8945C58.8769 26.5311 57.9302 27.1383 57.1016 27.6211C55.3746 28.6259 52.9802 29.8636 50.0625 31.2734L41.4297 35.457L32.7969 39.5742C31.3421 40.2772 29.2096 42.0743 29.4766 49.4688L29.9414 63.082L30.4727 76.7617C30.8075 86.0571 30.7528 95.4606 30.4062 104.918L29.9414 118.797L29.4102 132.676C29.0538 142.401 27.9165 152.13 25.957 161.828L23.1016 175.773L20.3125 189.652C18.551 198.365 17.6946 207.072 17.7227 215.75L17.7891 229.629V243.508C17.8136 251.084 19.9026 257.232 23.832 262.301L31.6016 272.328L39.4375 282.355C43.3311 287.376 48.3691 290.509 54.9766 291.852L67.8594 294.441L80.6758 297.098C88.8672 298.755 97.4368 299.894 106.375 300.617L120.254 301.746L134.199 302.875C143.029 303.588 151.867 303.637 160.695 303.008L188.453 301.016C198.096 300.329 207.763 300.343 217.406 300.949L231.285 301.812L245.23 302.676C254.284 303.245 263.338 303.519 272.391 303.473L286.336 303.406L300.215 303.34C309.309 303.293 318.412 302.938 327.508 302.344L341.387 301.414L355.266 300.551C365.038 299.912 374.851 300.104 384.617 301.215L412.375 304.402C420.886 305.371 429.42 305.223 437.941 303.938L451.887 301.812L465.766 299.754C475.433 298.293 485.104 297.542 494.785 297.496L508.664 297.43L522.609 297.363C531.95 297.319 541.292 297.391 550.633 297.629L564.512 297.961L578.457 298.359C588.089 298.606 597.725 299.495 607.344 301.016L635.102 305.398C643.688 306.756 652.299 307.014 660.867 306.262L688.625 303.871C697.825 303.063 707.049 302.145 716.25 301.148L730.195 299.621L744.074 298.094C753.523 297.071 762.978 296.417 772.43 296.035L786.309 295.438L800.254 294.906C809.95 294.516 819.651 294.86 829.34 295.969L857.098 299.156C866.012 300.176 874.952 300.626 883.859 300.551L897.805 300.418L911.684 300.352C920.613 300.275 929.574 299.619 938.512 298.492L966.27 295.039C976.384 293.764 986.521 293.994 996.617 295.77L1024.38 300.684C1033.29 302.252 1042.23 303.246 1051.14 303.672L1078.89 305C1088.09 305.44 1097.32 305.778 1106.52 305.996L1120.4 306.328L1134.34 306.66C1143.49 306.877 1152.63 306.865 1161.77 306.727L1175.65 306.527L1189.59 306.328C1198.98 306.186 1208.36 306.238 1217.75 306.527L1231.63 306.992L1245.57 307.391C1254.09 307.651 1262.64 306.833 1271.21 304.867L1298.96 298.492C1309.33 296.113 1319.77 295.843 1330.18 297.695L1357.93 302.609C1366.85 304.198 1375.79 305.264 1384.7 305.73L1398.64 306.461L1412.52 307.191C1420.85 307.626 1429.2 306.671 1437.62 304.402L1451.57 300.684L1465.45 296.965C1475.89 294.149 1486.41 293.65 1496.92 295.504L1510.8 297.895L1524.75 300.352C1533.78 301.943 1542.81 303.159 1551.84 304.004L1579.6 306.66C1588.49 307.493 1597.41 307.684 1606.29 307.324L1620.17 306.793L1634.05 306.195C1643.56 305.811 1653.1 305.89 1662.61 306.328L1676.48 306.926L1690.43 307.59C1699.12 307.988 1707.82 307.509 1716.53 306.195L1730.41 304.137L1744.35 302.012C1754.04 300.551 1763.74 299.826 1773.44 299.887L1787.32 300.02L1801.26 300.086C1810.55 300.145 1819.86 300.25 1829.15 300.418L1856.91 300.949C1866.08 301.115 1875.3 301.095 1884.47 300.949L1912.23 300.551C1921.95 300.396 1931.67 300.993 1941.38 302.41L1955.32 304.469L1969.2 306.461C1977.99 307.745 1986.79 308.271 1995.57 308.055L2023.32 307.391C2032.53 307.164 2041.75 306.818 2050.95 306.395L2064.83 305.797L2078.77 305.133C2087.76 304.718 2096.74 303.86 2105.73 302.609L2119.68 300.684L2133.56 298.758C2143.29 297.403 2153.03 296.918 2162.78 297.23L2176.72 297.629L2190.6 298.094C2199.61 298.383 2208.62 298.286 2217.63 297.762L2231.51 296.965L2245.39 296.102C2255.25 295.527 2265.16 296.003 2275 297.496L2302.76 301.746C2311.77 303.113 2320.79 304.054 2329.79 304.602L2343.73 305.465L2357.61 306.262C2366.6 306.807 2375.59 306.918 2384.57 306.594L2398.45 306.129L2412.4 305.598C2421.31 305.275 2430.24 304.413 2439.16 303.008L2466.92 298.625C2475.63 297.252 2484.09 295.065 2492.22 292.051L2505.17 287.27L2518.18 282.422C2521.14 281.325 2522.62 279.94 2523.43 278.637C2524.26 277.292 2524.92 275.151 2524.69 271.598L2523.76 257.055L2522.83 242.578C2522.2 232.84 2521.69 223.286 2521.3 213.957L2520.71 200.012L2520.11 186.133C2519.72 176.814 2519.48 167.495 2519.31 158.176L2519.05 144.23L2518.85 130.352C2518.69 121.06 2518.52 111.753 2518.45 102.461L2518.32 88.582L2518.25 74.7031C2518.19 66.8957 2516.19 61.2672 2512.94 57.1719L2505.9 48.3398L2498.86 39.4414C2495.53 35.2618 2490.45 31.9973 2482.99 30.0117L2456.43 22.9727C2448.24 20.7962 2439.86 19.567 2431.26 19.3203L2417.31 18.9219L2403.43 18.5234C2394.84 18.2793 2386.23 19.0544 2377.6 20.8477L2363.72 23.7031L2349.84 26.625C2340.15 28.6393 2330.41 29.8482 2320.69 30.2773L2306.75 30.875L2292.87 31.4727C2283.29 31.894 2273.69 31.8456 2264.11 31.207L2236.36 29.3477C2227.08 28.7295 2217.8 28.0624 2208.53 27.4219L2194.65 26.4922L2180.71 25.4961C2171.41 24.8537 2162.11 24.1496 2152.82 23.3711L2138.94 22.2422L2124.99 21.0469C2116.53 20.3406 2108.06 20.8015 2099.56 22.4414L2085.68 25.1641L2071.73 27.8203C2061.71 29.7548 2051.64 30.2926 2041.59 29.4141L2027.71 28.2188L2013.83 26.957C2005.05 26.1898 1996.25 26.1855 1987.46 26.8906L1973.52 28.0195L1959.64 29.1484C1949.48 29.9667 1939.33 29.1356 1929.23 26.7578L1915.35 23.5039L1901.4 20.25C1892.91 18.2519 1884.47 17.4868 1876.04 17.9258L1862.09 18.6562L1848.21 19.3867C1839.07 19.8647 1829.93 20.5231 1820.79 21.3789L1806.91 22.6406L1792.96 23.9688C1783.51 24.8531 1774.06 25.4035 1764.61 25.6289L1750.73 25.9609L1736.78 26.293C1727.64 26.5109 1718.5 26.9061 1709.36 27.4883L1695.48 28.3516L1681.53 29.2812C1672.04 29.8856 1662.54 30.0705 1653.04 29.8789L1639.16 29.6133L1625.22 29.3477C1615.63 29.1531 1606.04 28.3703 1596.46 27.0234L1582.52 25.0312L1568.64 23.1055C1559.61 21.8349 1550.57 20.9455 1541.55 20.4492L1527.67 19.6523L1513.79 18.9219C1504.97 18.437 1496.11 18.6712 1487.29 19.5859L1473.41 20.9805L1459.54 22.4414C1450.35 23.3937 1441.16 24.4835 1431.98 25.6953L1418.1 27.5547L1404.15 29.3477C1394.51 30.6193 1384.85 31.2618 1375.2 31.207L1361.32 31.0742L1347.44 31.0078C1337.88 30.9536 1328.31 30.4158 1318.75 29.3477L1304.81 27.7539L1290.93 26.2266C1282.23 25.2533 1273.53 25.1741 1264.83 25.9609L1237.07 28.4844C1226.97 29.399 1216.86 28.7737 1206.79 26.6914L1192.85 23.8359L1178.97 20.9141C1170.47 19.1539 1161.99 18.6261 1153.54 19.2539L1139.66 20.25L1125.71 21.3125C1115.99 22.0326 1106.27 21.9473 1096.56 21.0469L1082.61 19.7188L1068.73 18.457C1059.75 17.6224 1050.76 17.2274 1041.77 17.2617L1027.83 17.3281Z" fill="black"/>
</svg>
