<svg width="1453" height="307" viewBox="0 0 1453 307" fill="none" xmlns="http://www.w3.org/2000/svg">
<path d="M1443.87 235.797C1443.86 233.273 1443.63 230.743 1443.13 228.203L1442.32 223.949L1441.48 219.73C1440.85 216.489 1440.7 213.217 1441.02 209.957L1441.87 201.52C1442.14 198.757 1442.36 195.985 1442.54 193.223L1442.82 188.969L1443.1 184.75C1443.27 182.114 1443.25 179.476 1443.1 176.84L1442.89 172.586L1442.64 168.367C1442.47 165.391 1442.46 162.414 1442.61 159.438L1442.82 155.184L1443.03 150.965C1443.16 148.228 1443.21 145.475 1443.2 142.738V138.52L1443.17 134.301C1443.16 131.553 1443.1 128.787 1442.96 126.039L1442.75 121.82L1442.5 117.602C1442.34 114.57 1442.4 111.526 1442.68 108.496L1443.06 104.242L1443.45 100.023C1443.68 97.5207 1443.65 95.0057 1443.34 92.5L1442.82 88.2812L1442.32 84.0625C1441.96 81.0709 1441.77 78.0579 1441.76 75.0625V70.8438L1441.73 66.625C1441.72 63.7715 1441.74 60.898 1441.8 58.0469L1441.94 49.6094C1441.99 47.0158 1441.85 44.3951 1441.52 41.7695L1440.95 37.5156L1440.43 33.2617C1440.18 31.3502 1439.42 29.7156 1438.11 28.2695L1432.27 21.8711C1430.76 20.2172 1429.02 19.016 1427.07 18.2148L1419.33 15.0508C1417.22 14.1828 1415.03 13.6808 1412.79 13.5742L1408.68 13.3984L1404.53 13.1875C1401.71 13.053 1398.84 12.8529 1395.95 12.5898L1387.52 11.8164C1384.84 11.5724 1382.14 11.4818 1379.46 11.5H1375.25L1371.03 11.5352C1368.35 11.5534 1365.66 11.6876 1362.98 11.957L1358.76 12.4141L1354.5 12.8359C1351.33 13.1534 1348.15 13.0693 1344.98 12.625L1340.76 12.0273L1336.54 11.4648C1333.87 11.0906 1331.19 10.8283 1328.52 10.7266L1324.3 10.5859L1320.05 10.4102C1317.26 10.304 1314.47 10.2169 1311.68 10.1641L1307.46 10.0938L1303.21 10.0234C1300.45 9.97121 1297.68 9.95488 1294.91 9.98828L1290.66 10.0234L1286.44 10.0938C1283.57 10.1285 1280.7 10.0939 1277.83 10.0234L1273.57 9.91797L1269.36 9.8125C1266.85 9.75135 1264.35 9.95095 1261.83 10.4102L1257.58 11.1836L1253.36 11.957C1250.07 12.5595 1246.75 12.6368 1243.45 12.168L1235.01 10.9727C1232.34 10.5935 1229.66 10.346 1226.99 10.2344L1222.74 10.0586L1218.52 9.88281C1216.09 9.78179 1213.66 9.98974 1211.21 10.5156L1206.95 11.4297L1202.73 12.3438C1199.41 13.0583 1196.06 13.1645 1192.71 12.6953L1188.46 12.0977L1184.24 11.5352C1181.52 11.1529 1178.8 10.8595 1176.09 10.6562L1171.83 10.3398L1167.61 10.0234C1164.95 9.82479 1162.29 9.76188 1159.63 9.84766L1155.41 9.98828L1151.16 10.0938C1148.24 10.1875 1145.32 10.2008 1142.41 10.0938L1138.19 9.95312L1133.93 9.77734C1131.36 9.68339 1128.78 9.7841 1126.2 10.0938L1121.95 10.6211L1117.73 11.1133C1114.72 11.4746 1111.7 11.6559 1108.69 11.6406L1104.47 11.6055H1100.25C1097.42 11.5911 1094.58 11.5408 1091.75 11.5L1087.53 11.4648L1083.27 11.3945C1080.5 11.3547 1077.72 11.3593 1074.94 11.3945L1070.72 11.4297L1066.5 11.5C1063.49 11.5382 1060.44 11.3937 1057.43 11.043L1053.21 10.5508L1049 10.0234C1046.38 9.71832 1043.74 9.62059 1041.12 9.67188L1032.68 9.8125C1029.89 9.8673 1027.08 9.95596 1024.28 10.0586L1020.06 10.2344L1015.84 10.375C1013.14 10.4743 1010.43 10.6729 1007.72 10.9727L1003.47 11.4297L999.25 11.9219C996.23 12.257 993.203 12.3859 990.18 12.3086L985.961 12.2031L981.707 12.0977C979 12.0284 976.293 12.0424 973.586 12.168L969.332 12.3789L965.113 12.5547C962.043 12.6969 958.968 12.5738 955.902 12.2031L951.684 11.7109L947.465 11.1836C944.751 10.8554 942.02 10.6469 939.309 10.5156L935.09 10.3047L930.836 10.0938C928.14 9.96365 925.445 9.94614 922.75 10.0234L918.496 10.1289L914.277 10.2695C911.607 10.3464 908.935 10.5319 906.262 10.8672L902.008 11.3945L897.789 11.957C894.522 12.3669 891.238 12.2818 887.98 11.7109L883.762 10.9727L879.543 10.1992C877.117 9.77414 874.679 9.68586 872.266 9.91797L868.047 10.3398L863.828 10.7266C860.915 11.0068 857.989 11.2273 855.074 11.3242L846.637 11.6055C843.788 11.7002 840.908 11.7415 838.059 11.7812L829.621 11.9219C826.79 11.9614 823.945 11.974 821.113 11.9922L812.676 12.0625C809.966 12.0799 807.231 12.1986 804.52 12.4141L800.301 12.7305L796.082 13.082C792.871 13.3373 789.645 13.1715 786.449 12.5898L782.23 11.8164L777.977 11.043C775.392 10.5722 772.816 10.2935 770.242 10.2344L765.988 10.1289L761.77 10.0586C759.234 10.0011 756.688 10.164 754.141 10.5859L749.922 11.2891L745.668 11.9922C742.665 12.489 739.643 12.8007 736.633 12.9062L728.195 13.1875C725.245 13.291 722.286 13.2739 719.336 13.1172L715.117 12.9062L710.863 12.6602C708.043 12.5102 705.211 12.3585 702.391 12.2031L698.172 11.9922L693.953 11.7461C691.121 11.5901 688.278 11.4078 685.445 11.2188L681.191 10.9375L676.973 10.6562C674.485 10.4901 671.982 10.5881 669.484 10.9727L665.266 11.6406L661.047 12.2734C657.904 12.7573 654.742 12.9139 651.59 12.6953L647.336 12.3789L643.117 12.0977C640.497 11.9152 637.862 11.8944 635.242 12.0625L626.805 12.625C623.605 12.8303 620.39 12.6247 617.207 12.0273L612.988 11.2539L608.77 10.4453C606.279 9.97791 603.79 9.77974 601.316 9.88281L597.098 10.0586L592.844 10.2344C590.078 10.3498 587.313 10.5202 584.547 10.7266L580.328 11.043L576.074 11.3594C573.18 11.5752 570.286 11.726 567.391 11.7812L563.137 11.8516L558.918 11.9219C556.146 11.9745 553.358 12.0975 550.586 12.2383L542.148 12.6602C539.234 12.8082 536.309 12.8473 533.395 12.8008L529.141 12.7305L524.922 12.6602C521.958 12.6125 518.989 12.4299 516.027 12.0977L511.809 11.6406L507.555 11.1484C504.84 10.8442 502.112 10.6346 499.398 10.5156L495.18 10.3398L490.961 10.1289C488.331 10.0136 485.682 10.0871 483.051 10.3047L474.613 11.0078C471.828 11.238 469.031 11.4883 466.246 11.7812L462.027 12.2383L457.773 12.6602C454.798 12.973 451.822 13.1301 448.844 13.1172H444.59L440.371 13.082C437.429 13.0687 434.487 12.9221 431.547 12.6602L427.293 12.3086L423.074 11.9219C420.497 11.6919 417.917 11.6659 415.34 11.8516L411.121 12.168L406.867 12.4492C403.692 12.6778 400.503 12.5498 397.34 12.0273L388.902 10.6211C386.413 10.21 383.927 10.0886 381.449 10.2344L377.195 10.4805L372.977 10.7266C369.957 10.9053 366.925 10.8797 363.906 10.6562L355.469 10.0234C352.765 9.82327 350.051 9.73392 347.348 9.74219H343.129L338.875 9.77734C336.062 9.78605 333.25 9.79802 330.438 9.8125H326.219L321.965 9.84766C319.384 9.86138 316.786 10.0616 314.195 10.4805L309.977 11.1836L305.758 11.8516C302.463 12.3843 299.138 12.4163 295.844 11.8867L291.625 11.1836L287.406 10.5156C284.942 10.1195 282.478 10.0331 280.023 10.2344L275.805 10.5508L271.551 10.9023C268.797 11.1286 266.043 11.4123 263.289 11.7461L259.035 12.2734L254.816 12.7656C251.824 13.1286 248.813 13.3167 245.816 13.3281L241.598 13.3633H237.379C234.22 13.3753 231.057 13.0448 227.922 12.3438L223.668 11.3945L219.449 10.4453C217.149 9.93003 214.87 9.84496 212.594 10.1641L208.375 10.7617L204.121 11.3242C201.013 11.7592 197.885 11.8946 194.77 11.7109L186.332 11.2188C183.709 11.0641 181.08 11.072 178.457 11.2539L174.203 11.5703L169.984 11.8516C167.149 12.0489 164.312 12.2205 161.477 12.3789L157.223 12.625L153.004 12.8711C150.134 13.0314 147.261 13.1259 144.391 13.1875L140.172 13.293L135.918 13.3633C133.047 13.4247 130.176 13.446 127.305 13.3984L123.051 13.3281L118.832 13.2578C115.867 13.2085 112.9 12.9978 109.938 12.6602L105.719 12.2031L101.465 11.7109C98.8958 11.4189 96.3309 11.3354 93.7656 11.4648L89.5117 11.6758L85.293 11.8867C82.3635 12.0349 79.4337 12.0612 76.5039 11.9922L72.2852 11.9219L68.0312 11.8164C65.2321 11.7505 62.428 11.6754 59.6289 11.6406L55.4102 11.6055L51.1914 11.5352C49.7588 11.5173 48.5369 11.4797 47.6406 11.3945C47.228 11.3551 46.6644 11.2885 46.1289 11.1484C45.9502 11.1016 45.6036 10.9641 45.1797 10.7617C45.1005 10.7834 45.0181 10.8085 44.9336 10.832L38.3945 12.6602C36.8607 13.0874 35.1728 13.9197 33.332 15.2969L30.0273 17.793L26.7227 20.2539C24.7508 21.732 22.8968 23.3945 21.2031 25.2461L18.3906 28.3398L15.543 31.4336C14.3154 32.7787 13.6353 34.3288 13.4336 36.1797L12.5195 44.5469L10.6914 61.4219C10.4356 63.8108 10.5384 66.2266 10.9727 68.6289L11.7461 72.8477L12.4844 77.0664C13.0661 80.284 13.2088 83.5376 12.9062 86.7695L12.1328 95.207C11.8896 97.8058 11.8488 100.415 11.9922 103.012L12.2031 107.23L12.4492 111.449C12.6146 114.444 12.5974 117.455 12.4141 120.449L12.168 124.668L11.8867 128.922C11.7198 131.652 11.6237 134.383 11.6055 137.113V141.367L11.5703 145.586C11.5504 148.574 11.3634 151.566 11.0078 154.551L10.4805 158.77L9.98828 162.988C9.70823 165.339 9.80844 167.723 10.2695 170.09L11.0781 174.309L11.9219 178.527C12.5289 181.643 12.8028 184.782 12.7656 187.914L12.7305 192.133L12.6602 196.352C12.6277 199.083 12.6718 201.846 12.8008 204.578L13.2227 213.016C13.3734 216.21 13.1196 219.405 12.4844 222.578L11.6406 226.797L10.7969 231.051C10.3215 233.432 10.2108 235.791 10.4453 238.152L10.8672 242.406L11.2891 246.625C11.588 249.62 11.6926 252.644 11.6406 255.66L11.5 264.168C11.4626 266.336 11.8937 268.394 12.8008 270.391L14.5586 274.293L16.3516 278.195C17.2969 280.274 18.5888 282.119 20.2539 283.715L23.3477 286.703L26.4766 289.656C27.9841 291.101 29.7113 292.05 31.7148 292.539L35.8633 293.559L40.0469 294.578C42.6186 295.206 45.208 295.645 47.8164 295.914L52.0703 296.371L56.2891 296.793C58.6666 297.037 61.0683 296.939 63.4609 296.477L67.6797 295.668L71.8984 294.824C75.0049 294.223 78.1272 293.957 81.25 293.98L85.4688 294.016L89.7227 294.051C92.5468 294.072 95.3712 294.076 98.1953 294.121L102.449 294.191L106.668 294.262C109.397 294.305 112.131 294.279 114.859 294.156L119.078 293.945L123.332 293.77C126.343 293.634 129.357 293.687 132.367 293.945L136.586 294.332L140.84 294.684C143.618 294.922 146.394 295.143 149.172 295.316L153.426 295.562L157.645 295.844C160.281 296.008 162.918 295.998 165.555 295.844L169.773 295.598L174.027 295.352C177.004 295.178 179.98 295.165 182.957 295.316L187.211 295.527L191.43 295.738C194.1 295.875 196.775 295.869 199.445 295.738L203.664 295.562L207.883 295.352C210.784 295.209 213.7 295.151 216.602 295.176L220.855 295.211L225.074 295.246C227.732 295.269 230.395 295.156 233.055 294.895L237.273 294.473L241.527 294.051C244.627 293.747 247.743 293.731 250.844 294.016L259.281 294.789C262.08 295.046 264.885 295.305 267.684 295.527L271.938 295.844L276.156 296.195C278.669 296.395 281.198 296.335 283.715 296.02L292.152 294.965C295.431 294.554 298.729 294.65 301.996 295.246L306.215 295.984L310.434 296.758C312.84 297.197 315.248 297.319 317.641 297.074L321.859 296.617L326.113 296.195C328.956 295.904 331.813 295.625 334.656 295.387L343.094 294.684C346.27 294.417 349.454 294.538 352.621 295.035L356.875 295.703L361.094 296.371C363.471 296.745 365.856 296.747 368.23 296.406L376.668 295.211C379.74 294.77 382.835 294.595 385.914 294.684L390.133 294.789L394.352 294.93C397.225 295.012 400.127 295.131 403 295.316L411.438 295.879C414.09 296.05 416.766 296.075 419.418 295.949L427.855 295.527C430.764 295.389 433.7 295.352 436.609 295.387L440.828 295.422L445.047 295.492C447.904 295.526 450.768 295.591 453.625 295.703L457.879 295.879L462.098 296.02C464.698 296.122 467.299 296.043 469.902 295.773L474.156 295.352L478.375 294.895C481.349 294.586 484.328 294.435 487.305 294.438H495.777C498.518 294.439 501.263 294.394 504.004 294.262L508.223 294.051L512.477 293.84C515.595 293.69 518.719 293.856 521.828 294.332L526.047 294.965L530.266 295.633C532.774 296.017 535.29 296.135 537.789 295.984L542.008 295.738L546.262 295.457C549.352 295.272 552.458 295.395 555.543 295.773L559.762 296.266L563.98 296.793C566.441 297.095 568.903 297.088 571.363 296.793L575.582 296.301L579.836 295.809C582.754 295.459 585.67 295.18 588.59 295.035L592.809 294.859L597.062 294.648C600.075 294.499 603.086 294.541 606.098 294.789L610.352 295.141L614.57 295.492C617.137 295.704 619.703 295.705 622.27 295.492L626.523 295.141L630.742 294.789C633.752 294.538 636.766 294.475 639.777 294.613L644.031 294.789L648.25 295C651.145 295.133 654.039 295.351 656.934 295.633L661.152 296.02L665.406 296.441C668.043 296.697 670.682 296.784 673.316 296.723L677.535 296.617L681.789 296.547C684.566 296.482 687.345 296.367 690.121 296.23L694.34 296.02L698.594 295.809C701.323 295.674 704.055 295.466 706.785 295.176L711.004 294.719L715.258 294.297C718.334 293.971 721.426 293.909 724.504 294.121L732.941 294.684C735.716 294.875 738.499 295.023 741.273 295.141L745.527 295.352L749.746 295.527C752.411 295.64 755.096 295.62 757.762 295.457L761.98 295.176L766.199 294.93C769.057 294.756 771.92 294.6 774.777 294.508L779.031 294.402L783.25 294.262C786.323 294.162 789.395 294.329 792.461 294.754L796.715 295.316L800.934 295.914C803.491 296.269 806.047 296.401 808.598 296.301L812.816 296.125L817.07 295.984C819.848 295.875 822.625 295.71 825.402 295.527L829.621 295.246L833.875 294.965C836.916 294.765 839.975 294.812 843.016 295.07L851.453 295.773C854.065 295.995 856.683 296.023 859.293 295.879L863.512 295.668L867.766 295.422C870.727 295.259 873.699 295.261 876.66 295.387L885.098 295.738C887.976 295.861 890.868 296.025 893.746 296.266L898 296.617L902.219 296.969C904.602 297.168 906.986 297.033 909.391 296.547L913.645 295.703L917.863 294.824C921.251 294.138 924.667 294.115 928.059 294.754L936.496 296.371C938.892 296.823 941.288 296.897 943.668 296.652L947.922 296.23L952.141 295.809C955.281 295.485 958.424 295.481 961.562 295.844L965.816 296.336L970.035 296.828C972.372 297.099 974.709 296.994 977.066 296.512L981.32 295.668L985.539 294.789C988.868 294.108 992.215 294.038 995.559 294.543L999.812 295.176L1004.03 295.809C1006.7 296.213 1009.38 296.49 1012.05 296.617L1016.27 296.793L1020.48 297.004C1023.05 297.126 1025.62 297.035 1028.18 296.723L1032.44 296.195L1036.66 295.703C1039.77 295.324 1042.89 295.243 1046.01 295.492L1050.26 295.844L1054.48 296.16C1057.2 296.378 1059.92 296.54 1062.64 296.582L1066.89 296.617L1071.11 296.688C1073.96 296.731 1076.81 296.802 1079.65 296.898L1083.87 297.039L1088.12 297.18C1090.66 297.265 1093.21 297.141 1095.75 296.758L1099.97 296.125L1104.23 295.457C1107.47 294.971 1110.72 294.99 1113.96 295.457L1118.22 296.055L1122.44 296.652C1124.94 297.013 1127.43 297.109 1129.93 296.934L1134.18 296.652L1138.4 296.336C1141.43 296.121 1144.47 296.141 1147.5 296.371L1151.76 296.688L1155.98 297.004C1158.43 297.191 1160.89 297.098 1163.36 296.688L1167.58 295.984L1171.83 295.281C1175.05 294.746 1178.27 294.646 1181.5 295L1185.75 295.457L1189.97 295.914C1192.41 296.182 1194.84 296.16 1197.29 295.809L1201.54 295.176L1205.76 294.578C1209.04 294.105 1212.33 294.131 1215.6 294.684L1219.86 295.422L1224.07 296.125C1226.41 296.52 1228.74 296.53 1231.07 296.16L1235.29 295.492L1239.54 294.824C1242.82 294.305 1246.11 294.311 1249.39 294.824L1253.64 295.492L1257.86 296.125C1260.19 296.49 1262.52 296.49 1264.86 296.09L1269.07 295.352L1273.33 294.648C1276.54 294.099 1279.77 293.974 1283 294.297L1291.43 295.141C1293.96 295.393 1296.5 295.389 1299.03 295.141L1307.46 294.297C1310.71 293.977 1313.97 294.149 1317.2 294.754L1321.42 295.527L1325.68 296.336C1328.13 296.795 1330.58 296.941 1333.02 296.793L1337.24 296.547L1341.5 296.266C1344.51 296.083 1347.52 296.123 1350.53 296.336L1354.75 296.617L1359 296.934C1361.48 297.108 1363.97 296.991 1366.46 296.617L1370.71 295.984L1374.93 295.352C1378.05 294.883 1381.19 294.724 1384.32 294.895L1388.54 295.141L1392.75 295.352C1395.36 295.494 1397.98 295.47 1400.56 295.246L1404.74 294.859L1408.93 294.508C1411.35 294.297 1413.69 293.81 1415.96 293.031L1419.89 291.66L1423.83 290.324C1425.64 289.702 1427.07 288.67 1428.23 287.195L1430.76 283.961L1433.32 280.691C1434.76 278.863 1435.87 276.907 1436.7 274.82L1438.18 271.059L1439.65 267.332C1440.53 265.119 1441.23 262.744 1441.69 260.23L1442.46 256.047L1443.2 251.863C1443.67 249.346 1443.91 246.81 1443.91 244.27V240.051L1443.87 235.797ZM45.4258 1.48047C45.7616 1.42313 46.3692 1.31144 47.0078 1.33984C47.2788 1.35223 48.0368 1.40368 48.8711 1.79688C49.1558 1.9321 49.3995 2.24427 49.7148 2.5C50.149 2.51576 50.6807 2.56265 51.2969 2.57031L59.7344 2.64062C62.5665 2.67584 65.4101 2.74971 68.2422 2.81641L72.4961 2.92188L76.7148 3.02734C79.4216 3.09114 82.1289 3.02362 84.8359 2.88672L89.0898 2.67578L93.3086 2.46484C96.368 2.31032 99.4288 2.39875 102.484 2.74609L106.738 3.23828L110.957 3.73047C113.63 4.03509 116.303 4.21309 118.973 4.25781L123.227 4.32812L127.445 4.39844C130.208 4.44431 132.979 4.42252 135.742 4.36328L139.961 4.29297L144.18 4.1875C146.948 4.12814 149.743 4.02575 152.512 3.87109L156.73 3.625L160.949 3.41406C163.746 3.25781 166.554 3.08135 169.352 2.88672L173.57 2.57031L177.824 2.28906C180.834 2.07985 183.849 2.04124 186.859 2.21875L191.078 2.5L195.332 2.74609C197.847 2.89319 200.369 2.78321 202.891 2.42969L211.328 1.23438C214.692 0.762809 218.078 0.908039 221.418 1.65625L225.637 2.60547L229.891 3.55469C232.385 4.11222 234.874 4.37267 237.344 4.36328H241.562L245.781 4.32812C248.425 4.31808 251.079 4.15698 253.727 3.83594L257.945 3.34375L262.199 2.81641C265.07 2.46838 267.941 2.17347 270.812 1.9375L275.066 1.58594L279.285 1.23438C282.464 0.97362 285.644 1.11268 288.812 1.62109L293.066 2.28906L297.285 2.99219C299.63 3.36879 301.972 3.37141 304.316 2.99219L308.535 2.28906L312.789 1.62109C315.831 1.12998 318.879 0.863365 321.93 0.847656L326.148 0.8125H330.402C333.215 0.798028 336.027 0.786054 338.84 0.777344L343.094 0.742188H347.312C350.248 0.733106 353.202 0.841326 356.137 1.05859L364.574 1.69141C367.195 1.88545 369.829 1.88169 372.449 1.72656L380.887 1.23438C384.045 1.04744 387.233 1.207 390.379 1.72656L398.816 3.13281C401.291 3.54148 403.771 3.6621 406.234 3.48438L410.453 3.16797L414.672 2.88672C417.733 2.66582 420.822 2.68395 423.883 2.95703L428.102 3.34375L432.32 3.69531C435.013 3.93561 437.715 4.06975 440.406 4.08203L444.625 4.11719H448.879C451.526 4.12884 454.175 4.00865 456.824 3.73047L461.078 3.27344L465.297 2.81641C468.15 2.51622 471.022 2.27887 473.875 2.04297L482.312 1.33984C485.321 1.09113 488.338 1.03208 491.348 1.16406L495.566 1.33984L499.82 1.51562C502.738 1.64387 505.658 1.89155 508.574 2.21875L512.793 2.67578L517.047 3.16797C519.72 3.46731 522.392 3.6172 525.062 3.66016L529.281 3.73047L533.535 3.80078C536.251 3.84418 538.976 3.79808 541.691 3.66016L550.129 3.23828C552.996 3.09269 555.875 2.97633 558.742 2.92188L562.961 2.85156L567.215 2.78125C569.945 2.72922 572.675 2.59818 575.406 2.39453L579.66 2.07812L583.879 1.76172C586.747 1.54772 589.624 1.38905 592.492 1.26953L600.93 0.917969C604.096 0.78602 607.272 0.994823 610.422 1.58594L614.641 2.39453L618.895 3.16797C621.343 3.6267 623.775 3.7799 626.207 3.625L630.461 3.37891L634.68 3.09766C637.7 2.90386 640.73 2.9225 643.75 3.13281L652.188 3.69531C654.671 3.86829 657.183 3.76279 659.676 3.37891L663.895 2.74609L668.113 2.07812C671.256 1.59426 674.418 1.48099 677.57 1.69141L681.789 1.97266L686.043 2.25391C688.841 2.44065 691.647 2.59198 694.445 2.74609L702.883 3.23828C705.7 3.39344 708.538 3.54555 711.355 3.69531L719.793 4.11719C722.481 4.26009 725.191 4.28177 727.879 4.1875L736.316 3.90625C738.94 3.81421 741.595 3.56871 744.227 3.13281L752.664 1.72656C755.757 1.2142 758.876 0.988199 761.98 1.05859L766.199 1.16406L770.418 1.23438C773.477 1.30376 776.546 1.62824 779.594 2.18359L783.812 2.95703L788.066 3.73047C790.502 4.17334 792.924 4.27365 795.344 4.08203L799.598 3.76562L803.816 3.41406C806.744 3.18148 809.677 3.08126 812.605 3.0625L816.824 3.02734L821.078 2.99219C823.879 2.9742 826.68 2.96092 829.48 2.92188L833.734 2.85156L837.953 2.78125C840.742 2.74232 843.531 2.69818 846.32 2.60547L850.539 2.46484L854.793 2.32422C857.511 2.23361 860.23 2.05821 862.949 1.79688L867.203 1.375L871.422 0.953125C874.648 0.643209 877.877 0.776792 881.09 1.33984L885.309 2.07812L889.562 2.81641C891.937 3.23136 894.299 3.3236 896.664 3.02734L900.883 2.46484L905.137 1.9375C908.096 1.56621 911.069 1.35478 914.031 1.26953L918.25 1.12891L922.469 1.02344C925.405 0.938951 928.357 0.95161 931.293 1.09375L939.73 1.51562C942.655 1.65724 945.597 1.90068 948.52 2.25391L952.773 2.78125L956.992 3.27344C959.562 3.58418 962.126 3.67329 964.691 3.55469L968.945 3.37891L973.164 3.16797C976.091 3.03214 979.026 3.0226 981.953 3.09766L990.391 3.30859C993.005 3.37564 995.648 3.24756 998.266 2.95703L1006.7 2.04297C1009.63 1.71835 1012.57 1.48281 1015.49 1.375L1019.75 1.23438L1023.96 1.05859C1026.81 0.954089 1029.66 0.868304 1032.51 0.8125L1040.95 0.671875C1043.96 0.61266 1047 0.743183 1050.02 1.09375L1054.27 1.58594L1058.49 2.07812C1061.11 2.38406 1063.74 2.53284 1066.36 2.5L1070.62 2.42969L1074.84 2.39453C1077.7 2.3583 1080.55 2.35341 1083.41 2.39453L1087.63 2.46484L1091.89 2.53516C1094.69 2.5754 1097.49 2.59125 1100.29 2.60547H1104.51L1108.76 2.64062C1111.39 2.65356 1114.01 2.49896 1116.64 2.18359L1120.89 1.69141L1125.11 1.16406C1128.16 0.797058 1131.23 0.665159 1134.29 0.777344L1138.5 0.953125L1142.72 1.09375C1145.44 1.1934 1148.16 1.21631 1150.88 1.12891L1155.1 0.988281L1159.35 0.847656C1162.33 0.751871 1165.31 0.801391 1168.28 1.02344L1172.5 1.33984L1176.75 1.65625C1179.67 1.87413 1182.59 2.196 1185.51 2.60547L1193.95 3.80078C1196.23 4.12209 1198.53 4.04899 1200.84 3.55469L1205.09 2.64062L1209.31 1.72656C1212.49 1.04262 1215.7 0.748959 1218.91 0.882812L1227.34 1.23438C1230.31 1.35832 1233.31 1.62183 1236.27 2.04297L1240.49 2.67578L1244.71 3.27344C1247.05 3.60529 1249.4 3.56207 1251.74 3.13281L1255.96 2.35938L1260.21 1.58594C1263.32 1.01775 1266.44 0.736714 1269.57 0.8125L1273.82 0.917969L1278.04 1.02344C1280.8 1.09138 1283.57 1.12724 1286.34 1.09375L1290.55 1.02344L1294.81 0.988281C1297.67 0.953777 1300.53 0.969378 1303.39 1.02344L1307.64 1.09375L1311.86 1.16406C1314.71 1.218 1317.55 1.30167 1320.4 1.41016L1324.62 1.58594L1328.88 1.72656C1331.84 1.84005 1334.81 2.1199 1337.77 2.53516L1341.99 3.13281L1346.24 3.73047C1348.7 4.07508 1351.17 4.11801 1353.62 3.87109L1357.84 3.44922L1362.1 3.02734C1365.05 2.73123 1368 2.5553 1370.96 2.53516L1375.18 2.5H1379.43C1382.39 2.48019 1385.36 2.58131 1388.32 2.85156L1396.76 3.625C1399.52 3.87651 1402.26 4.05931 1404.95 4.1875L1409.1 4.39844L1413.21 4.60938C1416.49 4.76548 1419.69 5.46435 1422.74 6.71875L1430.48 9.88281C1433.69 11.2041 1436.54 13.2238 1438.91 15.8242L1441.83 18.9883L1444.75 22.1875C1447.31 24.9918 1448.87 28.3394 1449.36 32.1016L1449.88 36.3555L1450.45 40.6094C1450.84 43.6649 1450.99 46.7437 1450.94 49.7852L1450.8 58.2227C1450.75 61.0066 1450.72 63.8034 1450.73 66.5898L1450.76 70.8086V75.0273C1450.77 77.6702 1450.94 80.326 1451.25 82.9727L1451.78 87.1914L1452.27 91.4453C1452.65 94.5722 1452.7 97.7023 1452.41 100.832L1452.03 105.086L1451.64 109.305C1451.4 111.907 1451.37 114.509 1451.5 117.109L1451.71 121.363L1451.92 125.582C1452.07 128.474 1452.16 131.374 1452.17 134.266L1452.2 138.484V142.703C1452.22 145.605 1452.17 148.521 1452.03 151.422L1451.82 155.641L1451.61 159.895C1451.47 162.55 1451.45 165.219 1451.61 167.875L1452.1 176.312C1452.27 179.31 1452.26 182.315 1452.06 185.312L1451.78 189.566L1451.54 193.785C1451.35 196.656 1451.12 199.528 1450.83 202.398L1450.41 206.617L1449.99 210.871C1449.75 213.243 1449.84 215.618 1450.3 218.008L1451.15 222.262L1451.96 226.48C1452.56 229.574 1452.86 232.688 1452.87 235.797L1452.91 240.016V244.234C1452.91 247.333 1452.62 250.421 1452.06 253.48L1450.52 261.848C1449.95 264.907 1449.16 267.85 1448.05 270.637L1446.54 274.363L1445.07 278.125C1443.91 281.038 1442.35 283.748 1440.39 286.246L1437.86 289.48L1435.29 292.75C1433.06 295.596 1430.18 297.651 1426.75 298.832L1422.81 300.168L1418.91 301.539C1415.94 302.563 1412.85 303.199 1409.7 303.473L1405.52 303.824L1401.33 304.211C1398.33 304.472 1395.29 304.516 1392.26 304.352L1388.04 304.105L1383.82 303.895C1381.31 303.758 1378.79 303.867 1376.27 304.246L1372.05 304.879L1367.79 305.512C1364.66 305.982 1361.52 306.12 1358.37 305.898L1354.12 305.582L1349.9 305.301C1347.28 305.115 1344.65 305.106 1342.02 305.266L1333.59 305.758C1330.4 305.952 1327.2 305.753 1324.02 305.16L1319.77 304.387L1315.55 303.578C1313.14 303.128 1310.73 303.026 1308.34 303.262L1299.91 304.105C1296.79 304.412 1293.67 304.417 1290.55 304.105L1286.34 303.684L1282.08 303.262C1279.67 303.021 1277.26 303.093 1274.84 303.508L1270.62 304.246L1266.37 304.949C1263.07 305.513 1259.75 305.536 1256.45 305.02L1252.23 304.387L1248.02 303.719C1245.66 303.35 1243.3 303.346 1240.95 303.719L1236.73 304.387L1232.48 305.055C1229.18 305.578 1225.86 305.577 1222.56 305.02L1218.34 304.281L1214.12 303.578C1211.77 303.18 1209.41 303.135 1207.06 303.473L1202.8 304.105L1198.59 304.703C1195.39 305.164 1192.19 305.231 1188.99 304.879L1184.77 304.422L1180.52 303.93C1178.12 303.667 1175.72 303.74 1173.31 304.141L1169.05 304.844L1164.84 305.547C1161.67 306.075 1158.49 306.245 1155.31 306.004L1151.05 305.652L1146.84 305.336C1144.24 305.138 1141.63 305.152 1139.03 305.336L1134.81 305.617L1130.59 305.934C1127.46 306.156 1124.3 306.033 1121.17 305.582L1116.92 304.949L1112.7 304.352C1110.32 304.008 1107.94 304.03 1105.56 304.387L1101.31 305.02L1097.09 305.652C1094 306.117 1090.91 306.284 1087.81 306.18L1083.59 306.039L1079.34 305.898C1076.55 305.804 1073.76 305.731 1070.97 305.688L1066.75 305.617L1062.5 305.582C1059.58 305.537 1056.65 305.393 1053.74 305.16L1045.3 304.457C1042.79 304.256 1040.27 304.326 1037.75 304.633L1033.53 305.16L1029.27 305.652C1026.21 306.025 1023.13 306.151 1020.06 306.004L1015.84 305.793L1011.59 305.582C1008.62 305.44 1005.66 305.151 1002.7 304.703L998.441 304.07L994.223 303.438C991.932 303.091 989.638 303.141 987.332 303.613L983.113 304.492L978.895 305.336C975.619 306.007 972.311 306.173 969.016 305.793L964.762 305.301L960.543 304.809C958.048 304.519 955.548 304.481 953.055 304.738L948.836 305.195L944.617 305.617C941.36 305.953 938.085 305.806 934.844 305.195L930.625 304.422L926.371 303.613C924.13 303.193 921.902 303.194 919.656 303.648L915.438 304.527L911.184 305.371C907.962 306.023 904.723 306.238 901.48 305.969L897.227 305.617L893.008 305.23C890.249 305 887.469 304.856 884.711 304.738L880.492 304.527L876.273 304.352C873.603 304.238 870.928 304.275 868.258 304.422L864.004 304.633L859.785 304.879C856.761 305.045 853.738 304.994 850.715 304.738L846.461 304.387L842.242 304.035C839.647 303.815 837.032 303.794 834.438 303.965L826 304.527C823.143 304.715 820.279 304.837 817.422 304.949L813.168 305.125L808.949 305.301C805.865 305.421 802.781 305.271 799.703 304.844L795.484 304.246L791.23 303.648C788.665 303.293 786.09 303.179 783.531 303.262L779.312 303.367L775.094 303.508C772.32 303.597 769.536 303.726 766.762 303.895L762.508 304.176L758.289 304.422C755.316 304.603 752.333 304.618 749.359 304.492L740.922 304.141C738.067 304.02 735.198 303.88 732.344 303.684L728.09 303.367L723.871 303.086C721.318 302.91 718.763 302.956 716.207 303.227L711.953 303.684L707.734 304.141C704.83 304.449 701.921 304.666 699.016 304.809L694.797 305.02L690.543 305.23C687.695 305.37 684.848 305.48 682 305.547L677.746 305.617L673.527 305.723C670.528 305.793 667.525 305.698 664.527 305.406L660.309 304.984L656.055 304.562C653.314 304.296 650.568 304.126 647.828 304L643.609 303.789L639.355 303.613C636.735 303.494 634.103 303.536 631.48 303.754L623.043 304.457C619.977 304.712 616.898 304.71 613.832 304.457L609.613 304.105L605.359 303.754C602.739 303.538 600.103 303.483 597.484 303.613L589.047 304.035C586.332 304.17 583.607 304.413 580.891 304.738L576.672 305.23L572.418 305.758C569.244 306.137 566.064 306.112 562.891 305.723L558.672 305.195L554.418 304.703C551.872 304.391 549.331 304.304 546.789 304.457L542.57 304.703L538.316 304.949C535.183 305.137 532.053 305.005 528.93 304.527L524.676 303.895L520.457 303.227C517.932 302.84 515.414 302.718 512.898 302.84L508.68 303.051L504.426 303.227C501.535 303.366 498.633 303.44 495.742 303.438H487.305C484.642 303.435 481.955 303.583 479.289 303.859L475.07 304.281L470.852 304.738C467.821 305.052 464.78 305.138 461.746 305.02L457.527 304.844L453.273 304.703C450.497 304.594 447.718 304.525 444.941 304.492L440.723 304.422L436.469 304.387C433.743 304.354 431.003 304.398 428.277 304.527L424.059 304.738L419.84 304.914C416.854 305.056 413.861 305.036 410.875 304.844L406.656 304.562L402.402 304.316C399.638 304.138 396.87 304.009 394.105 303.93L389.887 303.789L385.633 303.684C383.082 303.611 380.527 303.739 377.969 304.105L373.715 304.738L369.496 305.336C366.232 305.804 362.949 305.779 359.688 305.266L351.25 303.93C348.787 303.542 346.321 303.443 343.867 303.648L339.613 304L335.395 304.352C332.605 304.586 329.817 304.875 327.027 305.16L322.773 305.582L318.555 306.004C315.308 306.336 312.049 306.207 308.816 305.617L300.379 304.07C298.006 303.638 295.638 303.598 293.277 303.895L289.059 304.422L284.805 304.949C281.691 305.339 278.571 305.407 275.453 305.16L271.199 304.809L266.98 304.492C264.144 304.267 261.309 304.014 258.473 303.754L254.254 303.367L250 302.98C247.468 302.749 244.939 302.767 242.406 303.016L238.152 303.438L233.934 303.824C230.958 304.117 227.982 304.272 225.004 304.246L220.785 304.211L216.531 304.176C213.801 304.152 211.07 304.183 208.34 304.316L204.121 304.527L199.867 304.738C196.902 304.883 193.937 304.89 190.973 304.738L186.754 304.527L182.5 304.316C179.852 304.181 177.203 304.162 174.555 304.316L170.301 304.562L166.082 304.844C163.082 305.019 160.082 304.995 157.082 304.809L152.863 304.562L148.609 304.281C145.762 304.104 142.914 303.893 140.066 303.648L135.812 303.297L131.594 302.91C128.969 302.685 126.342 302.651 123.719 302.77L119.5 302.945L115.246 303.156C112.34 303.287 109.433 303.308 106.527 303.262L102.309 303.191L98.0547 303.121C95.254 303.077 92.453 303.072 89.6523 303.051L85.3984 303.016L81.1797 302.98C78.667 302.961 76.1501 303.195 73.6211 303.684L69.3672 304.492L65.1484 305.301C61.9019 305.928 58.64 306.093 55.375 305.758L51.1562 305.301L46.9023 304.879C43.8775 304.568 40.8746 304.058 37.9023 303.332L33.7539 302.312L29.5703 301.293C26.0216 300.426 22.8965 298.692 20.2539 296.16L17.125 293.172L14.0312 290.219C11.5452 287.837 9.58145 285.048 8.16016 281.922L6.36719 278.02L4.60938 274.117C3.15304 270.914 2.44118 267.537 2.5 264.027L2.57031 259.738L2.64062 255.484C2.68643 252.818 2.5881 250.148 2.32422 247.504L1.48047 239.066C1.154 235.796 1.3219 232.509 1.97266 229.258L3.66016 220.82C4.15383 218.354 4.33811 215.884 4.22266 213.438L4.01172 209.219L3.83594 205C3.69866 202.092 3.62564 199.155 3.66016 196.246L3.73047 192.027L3.76562 187.809C3.79538 185.301 3.55438 182.775 3.0625 180.25L2.25391 176.031L1.41016 171.777C0.775589 168.51 0.667387 165.217 1.05859 161.934L1.55078 157.715L2.07812 153.496C2.3944 150.842 2.55273 148.166 2.57031 145.516L2.60547 141.297V137.078C2.62471 134.177 2.74429 131.261 2.92188 128.359L3.16797 124.141L3.44922 119.887C3.61017 117.25 3.59425 114.613 3.44922 111.977L3.23828 107.723L2.99219 103.504C2.82413 100.461 2.88331 97.4045 3.16797 94.3633L3.94141 85.9258C4.16659 83.52 4.06188 81.1037 3.625 78.6836L2.88672 74.4297L2.11328 70.2109C1.52832 66.974 1.4137 63.7229 1.76172 60.4727L2.21875 56.2539L2.67578 52C2.97685 49.1883 3.25088 46.3855 3.55469 43.5977L4.01172 39.3789L4.46875 35.1953C4.87611 31.4575 6.40056 28.122 8.93359 25.3516L11.7461 22.293L14.5586 19.1992C16.6274 16.9364 18.8793 14.8679 21.3086 13.0469L27.918 8.125C30.4706 6.21154 33.1506 4.76255 35.9688 3.97656L39.2383 3.0625L42.5078 2.18359C43.6263 1.87221 44.6431 1.61417 45.4258 1.48047Z" fill="black"/>
</svg>
