<svg width="2537" height="326" viewBox="0 0 2537 326" fill="none" xmlns="http://www.w3.org/2000/svg">
<path d="M1287.12 0.261719C1298.96 0.225093 1310.82 0.647008 1322.65 1.52344L1340.05 2.78516L1357.52 4.11328C1368.75 4.94486 1380.01 5.04427 1391.25 4.37891L1408.65 3.31641L1426.05 2.32031C1438.3 1.59454 1450.6 2.225 1462.84 4.24609L1480.23 7.10156L1497.63 10.0234C1508.59 11.8343 1519.57 12.3395 1530.5 11.5508L1547.97 10.2891L1565.37 9.02734C1577.43 8.15661 1589.5 8.21745 1601.56 9.29297L1619.02 10.8867L1636.42 12.4141C1647.8 13.4296 1659.18 13.9561 1670.55 14.0078L1688.02 14.0742L1705.42 14.207C1716.72 14.258 1728.04 13.6707 1739.35 12.4805L1756.75 10.6211L1774.21 8.82812C1785.88 7.60042 1797.54 6.47285 1809.21 5.50781L1826.68 4.04688L1844.07 2.65234C1856.05 1.66208 1868.02 1.39652 1880 1.92188L1897.4 2.71875L1914.86 3.44922C1926.66 3.96724 1938.46 4.91446 1950.26 6.23828L1967.72 8.16406L1985.12 10.1562C1996.47 11.4301 2007.84 12.1651 2019.19 12.3477L2053.98 12.8789C2065.41 13.0628 2076.89 12.8619 2088.32 12.2812L2105.71 11.418L2123.11 10.4883C2134.81 9.89386 2146.54 9.51544 2158.24 9.29297L2175.71 8.96094L2193.11 8.62891C2204.56 8.41123 2216.04 7.89087 2227.5 7.03516L2244.9 5.70703L2262.37 4.44531C2274.07 3.57183 2285.79 2.87458 2297.5 2.38672L2332.29 0.925781C2344.56 0.414398 2356.85 1.28593 2369.08 3.58203L2386.55 6.90234L2403.95 10.1562C2414.89 12.2114 2425.81 12.925 2436.68 12.2812L2454.08 11.2188L2471.41 10.2227C2478.24 9.81861 2484.71 10.7045 2490.41 13.4102C2496.18 16.1569 2500.65 20.5337 2503.82 26.1602L2510.99 38.8438L2518.1 51.5273C2523.44 61.027 2527.01 72.0589 2528.92 84.4648L2531.58 101.93L2534.3 119.328C2536.18 131.552 2536.71 143.809 2535.89 156.051L2534.7 173.449L2533.57 190.914C2532.8 202.52 2532.02 214.052 2531.25 225.512L2530.12 242.777L2528.92 259.977C2527.99 273.659 2522.18 284.604 2510.39 290.391L2497.71 296.633L2485.09 302.809C2475.37 307.573 2464.09 310.07 2451.56 310.512L2434.09 311.109L2416.7 311.707C2405.46 312.101 2394.21 313.23 2382.96 315.094L2365.5 318.016L2348.1 320.871C2335.97 322.882 2323.79 323.737 2311.64 323.461L2294.24 323.062L2276.78 322.664C2264.72 322.389 2252.68 321.138 2240.65 318.945L2223.19 315.824L2205.79 312.637C2194.89 310.649 2183.99 310.046 2173.12 310.91L2155.72 312.305L2138.25 313.699C2126.44 314.639 2114.61 315.151 2102.79 315.227L2085.39 315.359L2067.93 315.492C2056.34 315.567 2044.72 315.663 2033.13 315.824L2015.73 316.09L1998.34 316.289C1986.77 316.45 1975.17 316.768 1963.61 317.152L1946.21 317.684L1928.81 318.281C1917.38 318.661 1905.91 319.373 1894.48 320.473L1877.01 322.199L1859.61 323.859C1847.23 325.051 1834.85 324.563 1822.49 322.398L1805.03 319.344L1787.63 316.289C1776.84 314.398 1766.06 314.139 1755.29 315.492L1737.89 317.684L1720.43 319.875C1708.55 321.366 1696.65 322.256 1684.77 322.598L1667.37 323.129L1649.97 323.594C1638.14 323.934 1626.27 323.835 1614.44 323.262L1596.98 322.398L1579.58 321.602C1567.76 321.029 1555.93 319.977 1544.12 318.547L1526.72 316.488L1509.25 314.363C1498.11 313.016 1486.98 312.585 1475.85 313.102L1458.39 313.898L1440.99 314.695C1429.17 315.244 1417.35 315.397 1405.53 315.094L1388.13 314.629L1370.66 314.23C1359.44 313.943 1348.22 314.379 1337 315.625L1319.53 317.551L1302.13 319.477C1290.31 320.789 1278.49 321.698 1266.67 322.133L1249.21 322.797L1231.81 323.395C1220.14 323.823 1208.48 324.162 1196.81 324.391L1179.41 324.723L1161.95 325.055C1149.95 325.29 1137.95 324.726 1125.96 323.328L1108.56 321.27L1091.09 319.277C1079.84 317.967 1068.6 317.342 1057.36 317.484L1039.89 317.75L1022.5 317.949C1010.81 318.097 999.121 318.117 987.434 317.949L969.969 317.684L952.57 317.418C940.981 317.251 929.363 317.145 917.773 317.086L900.375 317.02L882.977 316.887C871.721 316.83 860.439 317.524 849.176 318.879L831.711 320.938L814.312 323.062C802.258 324.513 790.184 325.033 778.121 324.59L760.723 323.926L743.258 323.262C731.845 322.843 720.405 322.827 708.992 323.195L691.594 323.793L674.195 324.324C662.275 324.709 650.32 324.484 638.402 323.594L621.004 322.266L603.539 321.004C591.743 320.122 579.936 318.81 568.145 317.152L550.746 314.695L533.281 312.238C522.677 310.751 512.049 311.145 501.406 313.434L484.008 317.219L466.609 320.938C454.315 323.581 441.962 324.638 429.621 324.125L412.156 323.395L394.758 322.664C382.857 322.167 370.924 321.099 359.031 319.41L341.633 316.953L324.168 314.43C313.482 312.916 302.797 313.137 292.094 315.094L274.629 318.281L257.23 321.469C245.051 323.698 232.848 324.69 220.641 324.391L203.242 323.992L185.777 323.527C174.267 323.244 162.756 323.189 151.246 323.328L133.848 323.527L116.383 323.727C104.444 323.871 92.3818 323.313 80.1914 322.066L62.3281 320.273L44.5312 318.414C37.3113 317.675 30.7509 315.376 25.4062 311.043C20.0494 306.694 16.4485 300.796 14.3828 293.91L9.40234 277.176L4.35547 260.441C0.672195 248.129 -0.226554 235.526 1.56641 222.723L3.95703 205.258L6.41406 187.859C7.94844 176.921 8.17462 165.984 7.07812 155.055L5.35156 137.59L3.55859 120.191C2.33707 108.038 2.30244 95.9618 3.42578 84L5.01953 66.8672L6.67969 49.8008C7.26558 43.562 8.49318 37.8911 10.7969 33.2656C13.1698 28.5015 16.8631 24.4177 22.2852 22.5742L30.6523 19.7852L38.9531 16.9297C40.0738 16.549 40.9834 16.1629 41.7422 15.8672C42.4129 12.3249 44.9773 10.427 45.8594 9.89062C47.0979 9.14103 48.3203 8.79686 48.9805 8.62891C50.4313 8.26115 52.125 8.08489 53.6953 7.96484C56.9839 7.71426 61.6541 7.62674 67.5078 7.69922L84.9727 7.96484L102.371 8.16406C114.011 8.30884 125.661 8.48735 137.301 8.76172L154.766 9.16016L172.164 9.625C183.559 9.8937 194.967 9.73653 206.363 9.16016L223.828 8.23047L241.227 7.36719C253.308 6.75528 265.41 7.11957 277.484 8.49609L294.883 10.4883L312.348 12.4805C323.684 13.773 335.016 14.5494 346.348 14.7383L363.812 15.0039L381.211 15.2695C392.72 15.4607 404.233 15.45 415.742 15.2031L433.141 14.8711L450.605 14.4727C462.115 14.2256 473.626 13.7876 485.137 13.1445L502.602 12.1484L520 11.1523C531.576 10.5054 543.155 9.83326 554.73 9.02734L572.129 7.76562L589.594 6.57031C601.568 5.73705 613.545 5.66497 625.52 6.37109L642.918 7.43359L660.383 8.42969C671.423 9.08054 682.466 8.65016 693.52 7.10156L710.984 4.64453L728.383 2.1875C741.027 0.414127 753.702 0.957509 766.301 3.78125L783.699 7.69922L801.164 11.6172C812.165 14.0802 823.147 15.2448 834.102 15.2031L851.5 15.1367L868.965 15.0703C880.24 15.0266 891.549 14.3807 902.832 13.0117L937.629 8.76172C949.353 7.3392 961.099 6.13937 972.824 5.17578L990.223 3.71484L1007.69 2.32031C1019.98 1.31067 1032.27 1.80966 1044.54 3.78125L1062.01 6.57031L1079.41 9.35938C1090.12 11.082 1100.83 11.0904 1111.55 9.35938L1129.01 6.50391L1146.41 3.71484C1158.46 1.76594 1170.54 0.722297 1182.6 0.660156L1217.4 0.527344C1229.02 0.46747 1240.71 0.430498 1252.33 0.394531L1287.12 0.261719ZM1269.79 17.3281L1252.33 17.3945C1240.73 17.4304 1229.13 17.4676 1217.53 17.5273L1200.07 17.5938L1182.67 17.6602C1171.5 17.7177 1160.32 18.7055 1149.13 20.5156L1131.73 23.3047L1114.27 26.1602C1101.77 28.1805 1089.25 28.1673 1076.75 26.1602L1059.29 23.3711L1041.89 20.5156C1030.94 18.7559 1020.01 18.3571 1009.08 19.2539L991.617 20.7148L974.219 22.1094C962.713 23.055 951.195 24.2326 939.688 25.6289L922.289 27.7539L904.824 29.8789C892.898 31.325 880.965 32.024 869.031 32.0703L851.566 32.1367L834.168 32.2031C821.911 32.2497 809.656 30.9529 797.445 28.2188L779.98 24.3008L762.582 20.3828C751.953 18.0006 741.357 17.5722 730.773 19.0547L713.309 21.5117L695.91 23.9023C683.746 25.6084 671.565 26.1472 659.387 25.4297L641.922 24.3672L624.523 23.3711C613.279 22.7078 602.034 22.7221 590.789 23.5039L573.324 24.7656L555.926 25.9609C544.27 26.7724 532.585 27.501 520.93 28.1523L503.531 29.1484L486.066 30.0781C474.363 30.7318 462.641 31.2216 450.938 31.4727L433.539 31.8047L416.074 32.2031C404.364 32.4539 392.655 32.4639 380.945 32.2695L363.48 32.0039L346.082 31.7383C334.194 31.5407 322.305 30.7687 310.422 29.4141L292.957 27.4219L275.559 25.4297C264.402 24.1576 253.239 23.8025 242.09 24.3672L224.691 25.2305L207.227 26.0938C195.409 26.6916 183.584 26.9037 171.766 26.625L154.367 26.1602L136.902 25.7617C125.326 25.4888 113.749 25.3081 102.172 25.1641L84.7734 24.9648L67.3086 24.6992C63.1341 24.6474 59.8584 24.7395 57.4141 24.832C56.6123 26.379 55.6187 27.4058 55.1562 27.8203C54.0641 28.799 52.8522 29.5114 51.9023 30.0117C49.9208 31.0523 47.2975 32.0822 44.3984 33.0664L36.0977 35.8555L27.7969 38.7109C27.6759 38.752 26.9384 38.9608 26.0039 40.8359C24.9987 42.854 24.0319 46.2296 23.5469 51.3945L21.9531 68.4609L20.3594 85.5938C19.3414 96.4351 19.3799 107.39 20.4922 118.465L22.2188 135.93L24.0117 153.328C25.2466 165.615 25.0013 177.906 23.2812 190.184L20.8242 207.648L18.3672 225.047C16.9062 235.462 17.7095 245.634 20.6914 255.594L25.6719 272.262L30.6523 288.996C31.9228 293.24 33.8505 296.002 36.0977 297.828C38.3625 299.667 41.5962 301.07 46.2578 301.547L64.0547 303.34L81.918 305.199C93.4855 306.382 104.908 306.863 116.184 306.727L133.648 306.527L151.047 306.328C162.756 306.186 174.466 306.24 186.176 306.527L203.641 306.992L221.039 307.391C232.063 307.662 243.123 306.824 254.176 304.801L271.574 301.613L289.039 298.426C301.533 296.141 314.047 295.855 326.559 297.629L344.023 300.086L361.422 302.609C372.754 304.219 384.098 305.257 395.422 305.73L412.887 306.461L430.285 307.191C441.167 307.646 452.094 306.686 463.023 304.336L480.422 300.551L497.887 296.832C510.456 294.133 523.064 293.665 535.672 295.438L553.07 297.895L570.535 300.352C581.958 301.957 593.382 303.15 604.801 304.004L622.266 305.332L639.664 306.594C650.972 307.439 662.292 307.688 673.598 307.324L691.062 306.793L708.461 306.195C720.273 305.814 732.11 305.894 743.922 306.328L761.32 306.926L778.785 307.59C789.937 307.998 801.093 307.537 812.254 306.195L829.719 304.07L847.117 302.012C859.083 300.572 871.07 299.826 883.043 299.887L900.441 300.02L917.906 300.086C929.543 300.145 941.199 300.251 952.836 300.418L970.234 300.684L987.699 300.949C999.228 301.115 1010.77 301.095 1022.3 300.949L1039.7 300.75L1057.16 300.551C1069.14 300.4 1081.12 301.015 1093.09 302.41L1110.48 304.402L1127.95 306.461C1139.18 307.768 1150.4 308.274 1161.62 308.055L1179.08 307.723L1196.48 307.391C1208.05 307.164 1219.64 306.82 1231.21 306.395L1248.61 305.797L1266.01 305.133C1277.41 304.714 1288.86 303.876 1300.27 302.609L1317.67 300.684L1335.14 298.758C1347.13 297.428 1359.13 296.923 1371.13 297.23L1388.53 297.629L1405.99 298.094C1417.39 298.385 1428.79 298.291 1440.19 297.762L1457.66 296.898L1475.05 296.102C1487.14 295.54 1499.23 296.034 1511.31 297.496L1528.71 299.555L1546.18 301.68C1557.58 303.059 1568.98 304.049 1580.38 304.602L1597.84 305.465L1615.24 306.262C1626.63 306.814 1638.04 306.922 1649.44 306.594L1666.9 306.129L1684.3 305.598C1695.64 305.271 1707.02 304.433 1718.37 303.008L1753.16 298.625C1765.63 297.06 1778.11 297.374 1790.55 299.555L1808.02 302.609L1825.41 305.664C1836.28 307.568 1847.12 307.966 1857.95 306.926L1875.42 305.266L1892.82 303.605C1904.61 302.471 1916.42 301.674 1928.21 301.281L1945.61 300.684L1963.07 300.152C1974.74 299.764 1986.4 299.452 1998.07 299.289L2015.47 299.09L2032.93 298.824C2044.57 298.662 2056.23 298.567 2067.86 298.492L2102.66 298.227C2114.07 298.153 2125.51 297.673 2136.93 296.766L2154.32 295.371L2171.79 293.977C2184.14 292.996 2196.52 293.655 2208.84 295.902L2243.64 302.277C2254.82 304.316 2266.02 305.41 2277.18 305.664L2294.64 306.062L2312.04 306.461C2323.12 306.712 2334.21 305.91 2345.31 304.07L2362.71 301.215L2380.17 298.293C2392.14 296.311 2404.12 295.127 2416.1 294.707L2433.5 294.109L2450.96 293.512C2461.65 293.135 2470.45 291.03 2477.59 287.535L2490.21 281.359L2502.89 275.117C2507.94 272.639 2511.37 268.008 2511.99 258.781L2513.12 241.582L2514.31 224.383C2515.08 212.923 2515.86 201.391 2516.64 189.785L2517.77 172.32L2518.96 154.922C2519.69 143.934 2519.2 132.924 2517.5 121.918L2514.78 104.52L2512.12 87.0547C2510.45 76.2533 2507.45 67.2144 2503.29 59.8281L2496.18 47.2109L2489.01 34.5273C2487.43 31.7156 2485.49 29.8826 2483.1 28.75C2480.63 27.5745 2477.16 26.8749 2472.41 27.1562L2455.08 28.2188L2437.68 29.2148C2425.4 29.9418 2413.1 29.1943 2400.82 26.8906L2383.36 23.5703L2365.96 20.3164C2354.97 18.2521 2343.99 17.4688 2333.02 17.9258L2315.62 18.6562L2298.16 19.3867C2286.65 19.8668 2275.14 20.5197 2263.63 21.3789L2246.16 22.6406L2228.77 23.9688C2216.99 24.8478 2205.21 25.4052 2193.44 25.6289L2176.04 25.9609L2158.57 26.293C2147.05 26.512 2135.5 26.9028 2123.98 27.4883L2106.58 28.3516L2089.18 29.2812C2077.37 29.8811 2065.53 30.0689 2053.72 29.8789L2036.32 29.6133L2018.86 29.3477C2006.98 29.1554 1995.07 28.3562 1983.2 27.0234L1965.8 25.0977L1948.4 23.1055C1936.98 21.8241 1925.55 20.9506 1914.13 20.4492L1896.67 19.6523L1879.27 18.9219C1868.01 18.428 1856.73 18.6546 1845.47 19.5859L1828.07 21.0469L1810.61 22.4414C1799.06 23.3966 1787.49 24.4799 1775.94 25.6953L1741.14 29.4141C1729.23 30.6685 1717.27 31.2604 1705.35 31.207L1687.89 31.0742L1670.49 31.0078C1658.63 30.9542 1646.75 30.4059 1634.89 29.3477L1617.5 27.8203L1600.1 26.2266C1588.94 25.2301 1577.72 25.1553 1566.56 25.9609L1531.77 28.4844C1519.48 29.3712 1507.17 28.7823 1494.91 26.7578L1477.45 23.9023L1460.05 20.9805C1449.06 19.1648 1438.08 18.6068 1427.11 19.2539L1409.64 20.3164L1392.25 21.3125C1380.25 22.0227 1368.24 21.9346 1356.25 21.0469L1338.79 19.7852L1321.39 18.457C1309.99 17.6131 1298.59 17.2265 1287.19 17.2617L1269.79 17.3281Z" fill="black"/>
</svg>
