<svg width="1453" height="307" viewBox="0 0 1453 307" fill="none" xmlns="http://www.w3.org/2000/svg">
<path d="M1067.42 0.671875C1070.5 0.613687 1073.58 0.744981 1076.66 1.09375L1081.02 1.58594L1085.35 2.07812C1088.06 2.38556 1090.8 2.53342 1093.5 2.5L1097.83 2.42969L1102.19 2.39453C1105.12 2.35848 1108.05 2.35349 1110.98 2.39453L1115.3 2.46484L1119.66 2.53516C1122.54 2.57552 1125.43 2.59123 1128.31 2.60547H1132.63L1136.99 2.64062C1139.7 2.65389 1142.4 2.50038 1145.11 2.18359L1149.47 1.69141L1153.8 1.16406C1156.92 0.798459 1160.06 0.665603 1163.18 0.777344L1167.54 0.953125L1171.87 1.09375C1174.66 1.19347 1177.45 1.21614 1180.23 1.12891L1188.95 0.847656C1192 0.752548 1195.05 0.80197 1198.09 1.02344L1202.42 1.33984L1206.78 1.65625C1209.77 1.87376 1212.75 2.19645 1215.74 2.60547L1220.1 3.20312L1224.43 3.80078C1226.8 4.12642 1229.2 4.02143 1231.6 3.51953L1235.92 2.64062L1240.28 1.72656C1243.53 1.04803 1246.79 0.750009 1250.05 0.882812L1254.41 1.05859L1258.74 1.23438C1261.77 1.35777 1264.81 1.62419 1267.84 2.04297L1272.2 2.67578L1276.53 3.27344C1278.95 3.6088 1281.41 3.53134 1283.84 3.09766L1288.16 2.32422L1292.52 1.55078C1295.7 0.985425 1298.89 0.736376 1302.09 0.8125L1306.45 0.917969L1310.77 1.02344C1313.61 1.09145 1316.47 1.12728 1319.31 1.09375L1323.64 1.02344L1328 0.988281C1330.93 0.95375 1333.88 0.969275 1336.82 1.02344L1341.14 1.09375L1345.5 1.16406C1348.42 1.21797 1351.34 1.30187 1354.26 1.41016L1358.62 1.58594L1362.94 1.72656C1365.99 1.83954 1369.04 2.11991 1372.08 2.53516L1376.41 3.13281L1380.77 3.73047C1383.31 4.07734 1385.85 4.11979 1388.39 3.87109L1392.75 3.44922L1397.08 3.02734C1400.26 2.71551 1403.44 2.70905 1406.61 3.02734L1410.89 3.44922L1415.22 3.90625C1418.83 4.27232 1422.18 5.48552 1425.13 7.5625L1428.58 9.98828L1432.06 12.4492C1434.75 14.3412 1437.09 16.5952 1439.05 19.1992L1444.12 25.8789C1446.14 28.5686 1447.59 31.5849 1448.48 34.8789L1450.73 43.1758C1451.55 46.2242 1452.09 49.3477 1452.31 52.5273L1452.59 56.8867L1452.87 61.2109C1453.09 64.3924 1453.02 67.5964 1452.62 70.7734L1452.1 75.0977L1451.57 79.457C1451.23 82.1993 1451.03 84.9447 1450.97 87.6836L1450.9 92.0078L1450.8 96.3672C1450.74 99.2252 1450.72 102.087 1450.73 104.945L1450.76 109.27V113.629C1450.77 116.352 1450.93 119.094 1451.25 121.82L1451.78 126.145L1452.27 130.504C1452.65 133.699 1452.7 136.904 1452.41 140.102L1452.03 144.426L1451.64 148.785C1451.4 151.47 1451.36 154.153 1451.5 156.836L1451.71 161.195L1451.96 165.52C1452.11 168.482 1452.16 171.451 1452.17 174.414L1452.2 178.773V183.098C1452.22 186.072 1452.17 189.054 1452.03 192.027L1451.82 196.387L1451.61 200.711C1451.47 203.45 1451.45 206.198 1451.61 208.938L1451.85 213.262L1452.1 217.621C1452.27 220.691 1452.26 223.763 1452.06 226.832L1451.78 231.156L1451.54 235.516C1451.35 238.457 1451.12 241.399 1450.83 244.34L1450.41 248.699L1449.99 253.023C1449.73 255.711 1449.64 258.426 1449.74 261.145L1450.09 269.934C1450.24 273.798 1449.21 277.43 1447.11 280.691L1444.71 284.418L1442.29 288.18C1440.21 291.403 1437.39 293.833 1433.89 295.352L1429.88 297.074L1425.87 298.832C1422.8 300.163 1419.63 300.983 1416.38 301.328L1412.23 301.785L1408.05 302.242C1405.27 302.537 1402.43 302.827 1399.54 303.121L1395.18 303.543L1390.82 304C1387.72 304.315 1384.61 304.387 1381.5 304.246L1377.14 304.07L1372.82 303.859C1370.07 303.734 1367.31 303.75 1364.56 303.895L1360.23 304.105L1355.88 304.352C1352.83 304.512 1349.78 304.512 1346.73 304.352L1342.38 304.105L1338.05 303.895C1335.46 303.757 1332.85 303.866 1330.25 304.246L1325.89 304.879L1321.56 305.512C1318.35 305.982 1315.11 306.12 1311.89 305.898L1307.57 305.582L1303.21 305.301C1300.52 305.116 1297.82 305.106 1295.12 305.266L1290.77 305.512L1286.44 305.758C1283.18 305.951 1279.91 305.751 1276.67 305.16L1272.34 304.387L1267.98 303.578C1265.49 303.125 1263.01 303.024 1260.53 303.262L1256.21 303.684L1251.85 304.105C1248.67 304.411 1245.47 304.415 1242.29 304.105L1237.96 303.684L1233.6 303.262C1231.11 303.02 1228.62 303.091 1226.11 303.508L1221.75 304.246L1217.43 304.949C1214.07 305.51 1210.67 305.533 1207.3 305.02L1202.98 304.387L1198.62 303.719C1196.18 303.348 1193.75 303.342 1191.31 303.719L1186.98 304.387L1182.62 305.055C1179.26 305.574 1175.89 305.572 1172.54 305.02L1168.18 304.281L1163.85 303.578C1161.4 303.175 1158.95 303.129 1156.5 303.473L1152.18 304.105L1147.82 304.703C1144.57 305.16 1141.31 305.227 1138.05 304.879L1133.69 304.422L1129.36 303.93C1126.87 303.663 1124.37 303.736 1121.88 304.141L1117.52 304.844L1113.19 305.547C1109.96 306.072 1106.7 306.244 1103.45 306.004L1099.09 305.652L1094.77 305.336C1092.09 305.137 1089.4 305.151 1086.72 305.336L1082.36 305.617L1078.04 305.934C1074.83 306.155 1071.61 306.033 1068.4 305.582L1064.08 304.949L1059.72 304.352C1057.26 304.005 1054.8 304.027 1052.34 304.387L1043.62 305.652C1040.47 306.113 1037.32 306.283 1034.16 306.18L1029.8 306.039L1025.48 305.898C1022.61 305.804 1019.73 305.731 1016.86 305.688L1012.5 305.617L1008.18 305.582C1005.19 305.537 1002.2 305.393 999.215 305.16L994.855 304.809L990.531 304.457C987.934 304.254 985.327 304.325 982.727 304.633L978.367 305.16L974.043 305.652C970.909 306.024 967.76 306.149 964.621 306.004L960.262 305.793L955.938 305.582C952.893 305.44 949.837 305.151 946.797 304.703L942.438 304.07L938.113 303.438C935.734 303.086 933.335 303.136 930.941 303.613L926.617 304.492L922.258 305.336C918.918 306.001 915.562 306.172 912.203 305.793L907.844 305.301L903.52 304.809C900.941 304.517 898.362 304.479 895.785 304.738L891.461 305.195L887.102 305.617C883.781 305.951 880.459 305.802 877.152 305.195L872.828 304.422L868.469 303.613C866.133 303.185 863.813 303.222 861.473 303.684L857.113 304.527L852.789 305.371C849.498 306.021 846.185 306.237 842.875 305.969L838.516 305.617L834.191 305.23C831.361 305 828.514 304.856 825.684 304.738L821.324 304.527L817 304.352C814.251 304.238 811.488 304.275 808.738 304.422L804.379 304.633L800.055 304.879C796.956 305.045 793.836 304.994 790.738 304.738L786.414 304.387L782.055 304.035C779.382 303.815 776.711 303.794 774.039 303.965L769.68 304.246L765.355 304.527C762.422 304.715 759.465 304.837 756.531 304.949L752.207 305.125L747.848 305.301C744.697 305.42 741.535 305.269 738.391 304.844L734.066 304.246L729.707 303.648C727.061 303.291 724.402 303.179 721.762 303.262L717.438 303.367L713.078 303.508C710.231 303.598 707.383 303.725 704.535 303.895L700.176 304.176L695.852 304.422C692.806 304.603 689.757 304.618 686.711 304.492L682.352 304.316L678.027 304.141C675.098 304.02 672.167 303.88 669.238 303.684L664.879 303.367L660.555 303.086C657.916 302.908 655.251 302.953 652.609 303.227L648.285 303.684L643.926 304.141C640.952 304.448 637.971 304.666 634.996 304.809L630.672 305.02L626.312 305.23C623.383 305.37 620.453 305.48 617.523 305.547L613.164 305.617L608.84 305.723C605.771 305.792 602.696 305.696 599.629 305.406L595.27 304.984L590.945 304.562C588.124 304.295 585.293 304.126 582.473 304L578.148 303.789L573.789 303.613C571.083 303.492 568.375 303.534 565.668 303.754L561.344 304.105L556.984 304.457C553.849 304.711 550.698 304.709 547.562 304.457L543.238 304.105L538.879 303.754C536.183 303.537 533.488 303.484 530.793 303.613L526.434 303.824L522.109 304.035C519.317 304.17 516.501 304.412 513.707 304.738L509.383 305.23L505.023 305.758C501.781 306.135 498.527 306.11 495.285 305.723L490.961 305.23L486.602 304.703C483.974 304.389 481.35 304.304 478.727 304.457L474.367 304.703L470.043 304.949C466.835 305.137 463.609 305.005 460.41 304.527L456.086 303.895L451.727 303.227C449.122 302.839 446.517 302.717 443.922 302.84L439.598 303.051L435.238 303.227C432.273 303.366 429.309 303.44 426.344 303.438H417.66C414.92 303.435 412.176 303.583 409.434 303.859L405.074 304.281L400.75 304.738C397.649 305.051 394.538 305.138 391.434 305.02L387.109 304.844L382.75 304.703C379.895 304.594 377.027 304.526 374.172 304.492L369.848 304.422L365.488 304.387C362.688 304.354 359.887 304.398 357.086 304.527L352.727 304.738L348.402 304.914C345.348 305.055 342.281 305.035 339.227 304.844L334.867 304.562L330.543 304.316C327.7 304.138 324.843 304.009 322 303.93L317.641 303.789L313.316 303.684C310.674 303.61 308.02 303.735 305.371 304.105L301.047 304.738L296.688 305.336C293.361 305.8 290.027 305.775 286.703 305.266L282.379 304.598L278.02 303.93C275.471 303.539 272.93 303.441 270.391 303.648L266.031 304L261.707 304.352C258.839 304.586 255.962 304.874 253.094 305.16L248.734 305.582L244.41 306.004C241.101 306.334 237.792 306.202 234.496 305.617L230.137 304.844L225.812 304.07C223.358 303.634 220.909 303.597 218.465 303.895L214.105 304.422L209.781 304.949C206.591 305.339 203.377 305.407 200.184 305.16L195.859 304.809L191.5 304.492C188.593 304.268 185.688 304.014 182.781 303.754L178.422 303.367L174.098 302.98C171.479 302.747 168.842 302.765 166.223 303.016L161.898 303.438L157.539 303.824C154.493 304.116 151.447 304.272 148.398 304.246L144.039 304.211L139.715 304.176C136.907 304.152 134.086 304.183 131.277 304.316L126.918 304.527L122.594 304.738C119.553 304.883 116.494 304.89 113.453 304.738L109.129 304.527L104.77 304.316C102.039 304.181 99.3087 304.161 96.5781 304.316L92.2188 304.598L87.8945 304.844C84.8267 305.018 81.7513 304.994 78.6836 304.809L74.3242 304.562L70 304.281C67.0739 304.104 64.1369 303.893 61.2109 303.648L56.8516 303.297L52.5273 302.91C49.5604 302.662 46.6394 302.342 43.8086 301.961L39.6953 301.434L35.5469 300.871C32.0616 300.399 28.8654 299.108 26.0195 297.039L19.2695 292.117C16.5126 290.111 14.2725 287.621 12.5898 284.664L10.5508 281.043L8.47656 277.457C6.93644 274.748 5.72 271.827 4.78516 268.738L2.25391 260.371C1.24799 257.043 0.89119 253.637 1.19922 250.176L1.97266 241.457C2.20915 238.807 2.22444 236.16 2.04297 233.512L1.76172 229.152L1.44531 224.828C1.23581 221.78 1.20232 218.701 1.30469 215.652L1.44531 211.328L1.58594 206.969C1.68055 204.144 1.71816 201.32 1.69141 198.496L1.65625 194.137L1.62109 189.812C1.59256 186.804 1.66841 183.785 1.86719 180.777L2.14844 176.453L2.42969 172.094C2.60444 169.446 2.58169 166.798 2.32422 164.148L1.90234 159.789L1.48047 155.465C1.1563 152.131 1.32614 148.796 1.97266 145.48L2.81641 141.121L3.66016 136.797C4.15729 134.247 4.33902 131.699 4.22266 129.168L4.01172 124.844L3.83594 120.484C3.69922 117.508 3.62586 114.532 3.66016 111.555L3.73047 107.195L3.76562 102.871C3.79557 100.28 3.55719 97.673 3.0625 95.0664L2.25391 90.7422L1.41016 86.3828C0.777465 83.0468 0.669655 79.6792 1.05859 76.3281L1.55078 72.0039L2.07812 67.6445C2.39437 64.9154 2.55215 62.179 2.57031 59.4531L2.60547 55.1289L2.64062 50.7695C2.66323 47.4615 3.11518 44.2278 4.04688 41.1016L5.27734 37.0586L6.47266 32.9805C7.41829 29.8075 8.86294 26.8657 10.7617 24.1562L15.6133 17.1953C17.7336 14.1722 20.5568 11.9551 23.9805 10.5859L27.8828 9.00391L31.7852 7.45703C34.3676 6.4243 36.4433 5.57123 37.9727 4.89062L40.3633 3.80078L42.7539 2.74609C43.5815 2.3778 44.387 2.03918 45.0391 1.83203C45.2943 1.75096 45.8764 1.56027 46.5508 1.51562C46.8178 1.4988 47.7652 1.44071 48.8008 1.90234C49.1021 2.03684 49.4145 2.27002 49.75 2.53516C50.2083 2.5501 50.7609 2.56254 51.4023 2.57031L55.7266 2.60547L60.0859 2.64062C62.9923 2.67584 65.8983 2.74972 68.8047 2.81641L73.1641 2.92188L77.4883 3.02734C80.2733 3.09128 83.0702 3.02396 85.8555 2.88672L90.2148 2.67578L94.5391 2.46484C97.6749 2.31021 100.829 2.39832 103.961 2.74609L108.285 3.23828L112.645 3.73047C115.396 4.03562 118.157 4.21334 120.906 4.25781L125.23 4.32812L129.59 4.39844C132.426 4.44419 135.262 4.42251 138.098 4.36328L142.457 4.29297L146.781 4.1875C149.626 4.12808 152.479 4.0259 155.324 3.87109L159.648 3.625L164.008 3.41406C166.879 3.25782 169.75 3.08131 172.621 2.88672L176.98 2.57031L181.305 2.28906C184.383 2.08037 187.472 2.04234 190.551 2.21875L194.91 2.5L199.234 2.74609C201.838 2.89563 204.464 2.7861 207.074 2.42969L211.398 1.83203L215.758 1.23438C219.175 0.768789 222.593 0.916754 225.988 1.65625L230.348 2.60547L234.672 3.55469C237.254 4.11812 239.847 4.37275 242.406 4.36328H246.73L251.09 4.32812C253.807 4.31772 256.525 4.15714 259.246 3.83594L263.605 3.34375L267.93 2.81641C270.879 2.46793 273.839 2.17362 276.789 1.9375L281.148 1.58594L285.473 1.23438C288.72 0.974516 291.973 1.11466 295.211 1.62109L299.57 2.28906L303.895 2.99219C306.327 3.37301 308.775 3.37539 311.207 2.99219L315.531 2.28906L319.891 1.62109C323.003 1.1313 326.121 0.863311 329.242 0.847656L333.566 0.8125H337.926C340.82 0.797982 343.715 0.786072 346.609 0.777344L350.969 0.742188H355.293C358.301 0.733125 361.321 0.841758 364.328 1.05859L368.652 1.375L373.012 1.69141C375.708 1.88575 378.402 1.88133 381.098 1.72656L385.457 1.48047L389.781 1.23438C393.002 1.04865 396.239 1.21086 399.449 1.72656L403.809 2.42969L408.133 3.13281C410.691 3.5443 413.25 3.6634 415.797 3.48438L420.156 3.16797L424.48 2.88672C427.609 2.66681 430.739 2.68538 433.867 2.95703L438.227 3.34375L442.551 3.69531C445.323 3.9363 448.112 4.06983 450.883 4.08203L455.207 4.11719H459.566C462.295 4.12888 465.026 4.01015 467.758 3.73047L472.117 3.27344L476.441 2.81641C479.368 2.51647 482.304 2.27869 485.23 2.04297L489.59 1.69141L493.914 1.33984C496.993 1.09192 500.08 1.03251 503.16 1.16406L507.484 1.33984L511.844 1.51562C514.833 1.64341 517.82 1.89244 520.809 2.21875L525.168 2.67578L529.492 3.16797C532.249 3.46925 535.035 3.61699 537.789 3.66016L542.113 3.73047L546.473 3.80078C549.262 3.84417 552.05 3.79793 554.84 3.66016L559.199 3.44922L563.523 3.23828C566.461 3.09296 569.41 2.97633 572.348 2.92188L576.707 2.85156L581.031 2.78125C583.839 2.72932 586.66 2.59839 589.469 2.39453L598.188 1.76172C601.125 1.54833 604.074 1.38878 607.012 1.26953L611.336 1.09375L615.695 0.917969C618.924 0.787628 622.15 0.998414 625.363 1.58594L629.688 2.39453L634.047 3.16797C636.588 3.6325 639.116 3.78281 641.641 3.625L646 3.37891L650.324 3.09766C653.414 2.90451 656.516 2.92321 659.605 3.13281L663.93 3.41406L668.289 3.69531C670.853 3.86882 673.416 3.76445 675.988 3.37891L680.348 2.74609L684.672 2.07812C687.881 1.59674 691.122 1.48213 694.34 1.69141L698.664 1.97266L703.023 2.25391C705.894 2.44053 708.766 2.59205 711.637 2.74609L715.996 2.99219L720.32 3.23828C723.212 3.39344 726.112 3.54555 729.004 3.69531L733.363 3.90625L737.688 4.11719C740.453 4.26038 743.22 4.28186 745.984 4.1875L750.344 4.04688L754.668 3.90625C757.371 3.81391 760.079 3.53472 762.789 3.09766L767.148 2.42969L771.473 1.72656C774.628 1.21734 777.799 0.989681 780.965 1.05859L785.324 1.16406L789.684 1.23438C792.806 1.30421 795.923 1.63128 799.035 2.18359L803.395 2.95703L807.719 3.73047C810.244 4.17883 812.766 4.27647 815.277 4.08203L819.602 3.76562L823.961 3.41406C826.96 3.18189 829.961 3.08131 832.961 3.0625L837.32 3.02734L850.293 2.92188L854.652 2.85156L858.977 2.78125C861.843 2.7423 864.723 2.69831 867.59 2.60547L871.914 2.46484L876.273 2.32422C879.073 2.23352 881.875 2.05918 884.676 1.79688L889.035 1.375L893.359 0.953125C896.651 0.644687 899.959 0.779972 903.238 1.33984L907.562 2.07812L911.922 2.81641C914.388 3.23685 916.848 3.29266 919.305 2.99219L923.629 2.46484L927.988 1.9375C931.019 1.56706 934.06 1.35457 937.094 1.26953L941.418 1.12891L945.777 1.02344C948.777 0.939488 951.778 0.952704 954.777 1.09375L963.496 1.51562C966.491 1.65729 969.503 1.90126 972.496 2.25391L976.82 2.78125L981.18 3.27344C983.829 3.58476 986.48 3.67433 989.125 3.55469L993.449 3.37891L997.809 3.16797C1000.81 3.03246 1003.81 3.02276 1006.81 3.09766L1011.13 3.20312L1015.49 3.30859C1018.19 3.37577 1020.88 3.2486 1023.58 2.95703L1027.94 2.5L1032.26 2.04297C1035.26 1.71885 1038.26 1.48256 1041.26 1.375L1045.62 1.23438L1049.95 1.05859C1052.86 0.954333 1055.78 0.868266 1058.7 0.8125L1067.42 0.671875ZM1063.23 9.74219L1058.88 9.8125C1056.01 9.86731 1053.13 9.95607 1050.26 10.0586L1045.94 10.2344L1041.58 10.375C1038.8 10.4747 1036.02 10.6727 1033.25 10.9727L1028.89 11.4297L1024.56 11.9219C1021.48 12.2555 1018.37 12.385 1015.28 12.3086L1006.56 12.0977C1003.78 12.0285 1000.98 12.042 998.195 12.168L993.871 12.3789L989.512 12.5547C986.38 12.6956 983.252 12.5709 980.125 12.2031L975.766 11.7109L971.441 11.1836C968.65 10.8548 965.828 10.6472 963.039 10.5156L958.715 10.3047L954.355 10.0938C951.578 9.96312 948.801 9.94559 946.023 10.0234L941.664 10.1289L937.34 10.2695C934.588 10.3467 931.833 10.5305 929.078 10.8672L924.719 11.3945L920.395 11.957C917.067 12.3641 913.729 12.2764 910.41 11.7109L906.051 10.9727L901.727 10.2344C899.216 9.80586 896.702 9.68385 894.203 9.91797L889.879 10.3398L885.52 10.7266C882.534 11.0063 879.541 11.2275 876.555 11.3242L872.23 11.4648L867.871 11.6055C864.953 11.6999 862.035 11.7416 859.117 11.7812L854.758 11.8516L850.434 11.9219L837.355 12.0273L833.031 12.0625C830.246 12.0799 827.45 12.1985 824.664 12.4141L820.305 12.7305L815.98 13.082C812.702 13.3359 809.401 13.1693 806.137 12.5898L801.812 11.8164L797.453 11.043C794.787 10.5703 792.128 10.2933 789.473 10.2344L785.113 10.1289L780.789 10.0586C778.171 10.0008 775.542 10.1619 772.914 10.5859L768.555 11.2891L764.23 11.9922C761.152 12.4889 758.069 12.8007 754.984 12.9062L750.625 13.0469L746.301 13.1875C743.279 13.2908 740.252 13.2735 737.23 13.1172L732.871 12.9062L728.547 12.6602C725.655 12.5104 722.756 12.3583 719.863 12.2031L715.504 11.9922L711.145 11.7461C708.238 11.5901 705.332 11.4078 702.426 11.2188L698.066 10.9375L693.742 10.6562C691.17 10.489 688.588 10.6208 686.008 11.0078L681.684 11.6406L677.324 12.3086C674.113 12.7897 670.876 12.9137 667.656 12.6953L663.332 12.3789L658.973 12.0977C656.278 11.9155 653.582 11.8941 650.887 12.0625L646.562 12.3438L642.203 12.625C638.938 12.829 635.679 12.6213 632.43 12.0273L628.07 11.2539L623.746 10.4453C621.173 9.97487 618.604 9.77899 616.047 9.88281L611.723 10.0586L607.363 10.2344C604.517 10.3499 601.667 10.5196 598.82 10.7266L594.496 11.043L590.137 11.3594C587.162 11.5756 584.183 11.7262 581.207 11.7812L576.883 11.8516L572.523 11.9219C569.676 11.9746 566.828 12.0974 563.98 12.2383L559.621 12.4492L555.297 12.6602C552.309 12.8079 549.32 12.8473 546.332 12.8008L541.973 12.7305L537.648 12.6602C534.617 12.6127 531.572 12.4282 528.543 12.0977L524.184 11.6406L519.859 11.1484C517.063 10.8428 514.252 10.635 511.457 10.5156L507.098 10.3398L502.773 10.1289C500.068 10.0133 497.359 10.0872 494.652 10.3047L490.293 10.6562L485.969 11.0078C483.106 11.2383 480.218 11.4879 477.355 11.7812L473.031 12.2383L468.672 12.6602C465.626 12.972 462.58 13.1301 459.531 13.1172H455.172L450.848 13.082C447.829 13.0687 444.795 12.9224 441.777 12.6602L437.418 12.3086L433.094 11.9219C430.433 11.6906 427.773 11.6646 425.113 11.8516L420.754 12.168L416.43 12.4492C413.192 12.6768 409.954 12.5453 406.727 12.0273L402.367 11.3242L398.043 10.6211C395.466 10.2066 392.875 10.0864 390.309 10.2344L385.984 10.4805L381.625 10.7266C378.543 10.904 375.461 10.8778 372.379 10.6562L368.02 10.3398L363.695 10.0234C360.912 9.82274 358.11 9.7338 355.328 9.74219H351.004L346.645 9.77734C343.753 9.78606 340.852 9.798 337.961 9.8125H333.637L329.277 9.84766C326.615 9.8614 323.933 10.0949 321.262 10.5156L316.938 11.1836L312.578 11.8516C309.229 12.3779 305.873 12.4096 302.523 11.8867L298.164 11.1836L293.84 10.5156C291.295 10.1172 288.746 10.0326 286.211 10.2344L281.852 10.5508L277.527 10.9023C274.689 11.1294 271.823 11.4107 268.984 11.7461L264.66 12.2734L260.301 12.8008C257.245 13.1614 254.185 13.3164 251.125 13.3281L246.766 13.3633H242.441C239.212 13.3752 235.98 13.043 232.773 12.3438L228.414 11.3945L224.09 10.4453C221.703 9.92435 219.318 9.84108 216.953 10.1641L212.629 10.7617L208.27 11.3242C205.097 11.7569 201.921 11.8928 198.742 11.7109L194.383 11.4648L190.059 11.2188C187.356 11.0635 184.64 11.0714 181.938 11.2539L177.578 11.5703L173.254 11.8516C170.342 12.049 167.412 12.2204 164.5 12.3789L160.141 12.625L155.816 12.8711C152.871 13.0313 149.902 13.126 146.957 13.1875L142.633 13.293L138.273 13.3633C135.332 13.4246 132.391 13.4458 129.449 13.3984L125.09 13.3281L120.766 13.2578C117.728 13.2087 114.66 12.9971 111.625 12.6602L107.301 12.2031L102.941 11.7109C100.291 11.4174 97.6434 11.3347 94.9961 11.4648L90.6367 11.6758L86.3125 11.8867C83.3094 12.0348 80.2808 12.0611 77.2773 11.9922L72.9531 11.9219L68.5938 11.8164C65.7225 11.7505 62.8517 11.6754 59.9805 11.6406L55.6211 11.6055L51.2969 11.5352C49.8256 11.5173 48.5981 11.503 47.7109 11.4297C47.3032 11.3959 46.7914 11.3265 46.3047 11.2188C46.2391 11.2041 46.1398 11.1451 46.0234 11.1133L44.0195 12.0273L41.6289 13.082C39.9517 13.8284 37.7591 14.7357 35.125 15.7891L31.2227 17.3711L27.3203 18.918C25.5326 19.6329 24.1179 20.7663 22.9961 22.3633L20.5352 25.8438L18.1094 29.3242C16.7707 31.2373 15.7543 33.3043 15.0859 35.5469L13.8906 39.625L12.6602 43.668C11.9764 45.9621 11.6572 48.3599 11.6406 50.8398L11.6055 55.1641L11.5703 59.5234C11.5498 62.582 11.3624 65.6439 11.0078 68.6992L10.5156 73.0234L9.98828 77.3828C9.70632 79.8156 9.80603 82.2476 10.2695 84.6953L11.0781 89.0547L11.9219 93.3789C12.5261 96.5623 12.8026 99.7774 12.7656 102.977L12.7305 107.301L12.6602 111.66C12.6279 114.461 12.6723 117.262 12.8008 120.062L13.2227 128.781C13.3708 132.034 13.115 135.285 12.4844 138.52L11.6406 142.844L10.7969 147.203C10.3147 149.676 10.2069 152.131 10.4453 154.586L10.8672 158.945L11.2891 163.27C11.5941 166.407 11.637 169.552 11.4297 172.691L11.1484 177.051L10.832 181.375C10.6485 184.152 10.5952 186.931 10.6211 189.707L10.6562 194.066L10.6914 198.391C10.7195 201.35 10.6853 204.326 10.5859 207.285L10.4453 211.645L10.3047 215.969C10.2126 218.71 10.2569 221.453 10.4453 224.195L10.7266 228.555L11.043 232.879C11.258 236.007 11.217 239.139 10.9375 242.266L10.5508 246.625L10.1641 250.949C9.95638 253.267 10.1923 255.537 10.8672 257.77L13.3984 266.137C14.1492 268.616 15.1249 270.896 16.3164 272.992L18.3555 276.613L20.3945 280.199C21.443 282.044 22.8446 283.579 24.5781 284.84L27.9531 287.301L31.293 289.762C32.9382 290.958 34.765 291.67 36.7773 291.941L45.0039 293.066C47.6776 293.427 50.4432 293.709 53.2656 293.945L57.625 294.332L61.9492 294.684C64.8081 294.923 67.6686 295.143 70.5273 295.316L74.8867 295.562L79.2109 295.844C81.9272 296.009 84.651 295.998 87.3672 295.844L91.7266 295.598L96.0508 295.352C99.1053 295.178 102.172 295.164 105.227 295.316L109.551 295.527L113.91 295.738C116.659 295.875 119.423 295.869 122.172 295.738L126.496 295.562L130.855 295.352C133.83 295.21 136.81 295.15 139.785 295.176L144.109 295.211L148.469 295.246C151.206 295.269 153.956 295.157 156.695 294.895L161.02 294.473L165.379 294.051C168.542 293.749 171.707 293.734 174.871 294.016L179.23 294.402L183.555 294.789C186.432 295.046 189.326 295.305 192.203 295.527L196.527 295.844L200.887 296.195C203.482 296.396 206.093 296.337 208.691 296.02L213.016 295.492L217.375 294.965C220.713 294.558 224.067 294.62 227.395 295.211L231.719 295.984L236.078 296.758C238.566 297.199 241.056 297.321 243.531 297.074L247.855 296.617L252.215 296.195C255.131 295.905 258.052 295.625 260.969 295.387L265.293 295.035L269.652 294.684C272.899 294.418 276.153 294.539 279.391 295.035L283.715 295.703L288.074 296.371C290.536 296.748 292.998 296.75 295.457 296.406L299.781 295.809L304.141 295.211C307.278 294.773 310.418 294.596 313.562 294.684L317.922 294.789L322.246 294.93C325.193 295.012 328.158 295.131 331.105 295.316L335.43 295.598L339.789 295.879C342.517 296.05 345.253 296.076 347.98 295.949L352.305 295.738L356.664 295.527C359.64 295.39 362.617 295.352 365.594 295.387L369.953 295.422L374.277 295.492C377.212 295.526 380.167 295.591 383.102 295.703L387.426 295.879L391.785 296.02C394.468 296.122 397.15 296.045 399.836 295.773L404.195 295.352L408.52 294.895C411.564 294.587 414.614 294.435 417.66 294.438H426.344C429.166 294.44 431.994 294.395 434.816 294.262L439.176 294.051L443.5 293.84C446.69 293.689 449.881 293.857 453.062 294.332L457.422 294.965L461.746 295.633C464.337 296.02 466.933 296.136 469.516 295.984L473.84 295.738L478.199 295.457C481.359 295.272 484.536 295.396 487.691 295.773L492.016 296.266L496.375 296.793C498.915 297.095 501.464 297.089 504.004 296.793L508.328 296.301L512.688 295.809C515.676 295.46 518.662 295.18 521.652 295.035L526.012 294.859L530.336 294.648C533.424 294.499 536.53 294.541 539.617 294.789L543.941 295.141L548.301 295.492C550.949 295.705 553.598 295.706 556.246 295.492L560.605 295.141L564.93 294.789C568.007 294.54 571.098 294.476 574.176 294.613L578.535 294.789L582.895 295C585.859 295.133 588.826 295.352 591.789 295.633L596.113 296.02L600.473 296.441C603.193 296.699 605.911 296.784 608.629 296.723L612.988 296.617L617.312 296.547C620.17 296.482 623.033 296.367 625.891 296.23L630.215 296.02L634.574 295.809C637.385 295.674 640.2 295.467 643.012 295.176L647.336 294.719L651.695 294.297C654.844 293.971 658.002 293.909 661.152 294.121L665.477 294.402L669.836 294.684C672.69 294.875 675.56 295.023 678.414 295.141L682.738 295.352L687.098 295.527C689.836 295.64 692.585 295.62 695.324 295.457L699.648 295.176L704.008 294.93C706.938 294.756 709.867 294.6 712.797 294.508L717.156 294.402L721.48 294.262C724.626 294.163 727.798 294.329 730.938 294.754L735.262 295.316L739.621 295.914C742.258 296.27 744.901 296.401 747.531 296.301L751.855 296.125L756.215 295.984C759.063 295.875 761.91 295.71 764.758 295.527L769.117 295.246L773.441 294.965C776.553 294.765 779.682 294.814 782.793 295.07L787.152 295.422L791.477 295.773C794.169 295.996 796.872 296.023 799.562 295.879L803.887 295.668L808.246 295.422C811.281 295.259 814.316 295.261 817.352 295.387L821.711 295.562L826.035 295.738C828.986 295.861 831.944 296.025 834.895 296.266L839.254 296.617L843.578 296.969C846.05 297.17 848.539 297.038 851.031 296.547L855.391 295.703L859.715 294.824C863.161 294.144 866.636 294.122 870.086 294.754L874.445 295.562L878.77 296.371C881.249 296.826 883.723 296.899 886.188 296.652L890.547 296.23L894.871 295.809C898.084 295.486 901.327 295.481 904.539 295.844L908.863 296.336L913.223 296.828C915.643 297.101 918.061 296.997 920.5 296.512L924.859 295.668L929.184 294.789C932.578 294.112 936.006 294.006 939.414 294.508L943.773 295.176L948.098 295.809C950.84 296.213 953.586 296.489 956.324 296.617L960.684 296.793L965.043 297.004C967.684 297.126 970.343 297.036 972.988 296.723L977.312 296.195L981.672 295.703C984.853 295.327 988.05 295.244 991.234 295.492L995.559 295.844L999.918 296.16C1002.72 296.378 1005.52 296.54 1008.32 296.582L1012.64 296.617L1017 296.688C1019.92 296.731 1022.84 296.802 1025.76 296.898L1030.12 297.039L1034.44 297.18C1037.06 297.266 1039.69 297.142 1042.32 296.758L1046.68 296.125L1051 295.457C1054.32 294.971 1057.66 294.99 1060.98 295.457L1065.31 296.055L1069.67 296.652C1072.25 297.016 1074.83 297.111 1077.4 296.934L1081.76 296.652L1086.09 296.336C1089.19 296.122 1092.33 296.141 1095.44 296.371L1099.76 296.688L1104.12 297.004C1106.66 297.191 1109.2 297.101 1111.75 296.688L1116.07 295.984L1120.43 295.281C1123.72 294.748 1127.02 294.647 1130.31 295L1134.64 295.457L1139 295.914C1141.52 296.185 1144.06 296.164 1146.59 295.809L1150.91 295.176L1155.27 294.578C1158.61 294.11 1161.96 294.135 1165.29 294.684L1169.65 295.422L1173.98 296.125C1176.4 296.525 1178.83 296.535 1181.25 296.16L1185.61 295.492L1189.94 294.824C1193.28 294.307 1196.64 294.314 1199.99 294.824L1204.32 295.492L1208.68 296.125C1211.1 296.495 1213.53 296.495 1215.95 296.09L1220.28 295.352L1224.64 294.648C1227.91 294.103 1231.19 293.977 1234.48 294.297L1238.84 294.719L1243.16 295.141C1245.77 295.395 1248.4 295.391 1251 295.141L1255.33 294.719L1259.69 294.297C1263 293.98 1266.31 294.154 1269.6 294.754L1273.93 295.527L1278.29 296.336C1280.82 296.798 1283.36 296.941 1285.88 296.793L1290.24 296.547L1294.6 296.266C1297.68 296.084 1300.76 296.124 1303.84 296.336L1308.17 296.617L1312.53 296.934C1315.1 297.11 1317.68 296.995 1320.26 296.617L1324.59 295.984L1328.95 295.352C1332.13 294.886 1335.32 294.726 1338.51 294.895L1342.87 295.141L1347.19 295.352C1349.93 295.497 1352.68 295.496 1355.42 295.352L1359.74 295.141L1364.1 294.895C1367.14 294.735 1370.17 294.721 1373.21 294.859L1377.57 295.07L1381.89 295.281C1384.56 295.403 1387.26 295.307 1389.94 295.035L1394.27 294.613L1398.62 294.156C1401.51 293.863 1404.33 293.571 1407.1 293.277L1411.25 292.82L1415.43 292.398C1417.73 292.154 1420.02 291.553 1422.29 290.57L1426.29 288.812L1430.3 287.09C1432.13 286.294 1433.59 285.058 1434.73 283.293L1437.16 279.531L1439.55 275.805C1440.66 274.073 1441.17 272.27 1441.09 270.285L1440.74 261.496C1440.62 258.377 1440.72 255.271 1441.02 252.18L1441.45 247.82L1441.87 243.496C1442.14 240.652 1442.36 237.797 1442.54 234.953L1442.82 230.594L1443.1 226.27C1443.27 223.551 1443.25 220.831 1443.1 218.113L1442.89 213.754L1442.64 209.43C1442.47 206.384 1442.46 203.335 1442.61 200.289L1442.82 195.93L1443.03 191.605C1443.16 188.789 1443.21 185.949 1443.2 183.133V178.809L1443.17 174.449C1443.16 171.627 1443.1 168.799 1442.96 165.977L1442.75 161.652L1442.5 157.293C1442.34 154.191 1442.4 151.077 1442.68 147.977L1443.06 143.652L1443.45 139.293C1443.68 136.708 1443.65 134.111 1443.34 131.523L1442.82 127.199L1442.32 122.84C1441.97 119.783 1441.77 116.724 1441.76 113.664V109.305L1441.73 104.98C1441.72 102.053 1441.74 99.1191 1441.8 96.1914L1441.9 91.832L1441.97 87.5078C1442.03 84.4616 1442.27 81.4101 1442.64 78.3672L1443.17 74.0078L1443.7 69.6836C1444.02 67.0721 1444.08 64.4508 1443.91 61.8438L1443.62 57.4844L1443.31 53.1602C1443.13 50.5546 1442.71 48.0091 1442.04 45.5312L1439.79 37.2344C1439.19 35.0102 1438.23 33.0441 1436.91 31.293L1434.41 27.9531L1431.88 24.6133C1430.49 22.7698 1428.83 21.1589 1426.89 19.7969L1423.41 17.3711L1419.93 14.9102C1418.26 13.7424 1416.41 13.0479 1414.3 12.8359L1410.02 12.4141L1405.69 11.9922C1403.13 11.7352 1400.55 11.7032 1397.96 11.957L1393.6 12.4141L1389.27 12.8359C1386.03 13.1535 1382.78 13.0676 1379.54 12.625L1375.21 12.0273L1370.85 11.4648C1368.11 11.09 1365.37 10.8288 1362.62 10.7266L1358.27 10.5859L1353.94 10.4102C1351.08 10.3038 1348.19 10.2169 1345.33 10.1641L1340.97 10.0938L1336.64 10.0234C1333.8 9.97094 1330.95 9.95481 1328.1 9.98828L1323.74 10.0234L1319.42 10.0938C1316.47 10.1285 1313.51 10.094 1310.56 10.0234L1306.23 9.91797L1301.88 9.8125C1299.29 9.75051 1296.67 9.94618 1294.07 10.4102L1289.75 11.1836L1285.39 11.957C1282.03 12.5532 1278.66 12.6328 1275.3 12.168L1270.97 11.5703L1266.61 10.9727C1263.87 10.5935 1261.13 10.3462 1258.39 10.2344L1254.03 10.0586L1249.7 9.88281C1247.19 9.78054 1244.65 9.98414 1242.11 10.5156L1237.75 11.4297L1233.43 12.3438C1230.03 13.0541 1226.61 13.1624 1223.2 12.6953L1218.87 12.1328L1214.51 11.5352C1211.71 11.1522 1208.91 10.8597 1206.11 10.6562L1201.79 10.3398L1197.43 10.0234C1194.69 9.82506 1191.96 9.7624 1189.23 9.84766L1184.88 9.98828L1180.55 10.1289C1177.56 10.223 1174.55 10.2007 1171.55 10.0938L1167.19 9.95312L1162.87 9.77734C1160.2 9.68205 1157.52 9.78103 1154.85 10.0938L1150.53 10.6211L1146.17 11.1133C1143.1 11.4725 1140.03 11.6553 1136.96 11.6406L1132.6 11.6055H1128.27C1125.36 11.5911 1122.43 11.5407 1119.52 11.5L1115.2 11.4648L1110.84 11.3945C1107.99 11.3548 1105.14 11.3594 1102.29 11.3945L1097.93 11.4297L1093.61 11.5C1090.53 11.538 1087.44 11.3914 1084.36 11.043L1080 10.5508L1075.68 10.0586C1072.98 9.7523 1070.25 9.62038 1067.56 9.67188L1063.23 9.74219Z" fill="black"/>
</svg>
