<svg width="1453" height="307" viewBox="0 0 1453 307" fill="none" xmlns="http://www.w3.org/2000/svg">
<path d="M1441.73 227.746C1441.72 224.579 1441.74 221.386 1441.8 218.219L1441.9 213.543L1441.97 208.832C1442.03 205.554 1442.23 202.263 1442.61 198.988L1443.17 194.277L1443.7 189.602C1444.02 186.732 1444.09 183.855 1443.91 180.988L1443.62 176.277L1443.31 171.566C1443.11 168.455 1442.88 165.326 1442.64 162.215L1442.29 157.539L1441.94 152.828C1441.69 149.621 1441.5 146.403 1441.41 143.195L1441.27 138.484L1441.13 133.809C1441.03 130.507 1441.14 127.195 1441.41 123.895L1442.18 114.473C1442.43 111.475 1442.52 108.469 1442.5 105.473V100.762L1442.46 96.0859C1442.45 93.0779 1442.28 90.0603 1442.01 87.0508L1441.16 77.6289C1440.85 74.1752 1440.94 70.7078 1441.38 67.2578L1441.94 62.582L1442.54 57.8711C1442.89 55.0191 1443 52.1423 1442.82 49.2578L1442.5 44.5117L1442.22 39.7656C1442.06 37.2969 1441.34 34.9684 1440.07 32.7695L1435.29 24.4023C1434.06 22.2651 1432.4 20.5691 1430.3 19.2695L1422.07 14.207C1419.87 12.8435 1417.51 11.9902 1414.97 11.6406L1410.23 10.9727L1405.45 10.3398C1402.73 9.96774 1400.04 10.0054 1397.36 10.4453L1387.94 11.9922C1384.38 12.5769 1380.81 12.6221 1377.25 12.168L1367.83 10.9727C1364.83 10.5895 1361.83 10.3469 1358.83 10.2344L1349.41 9.88281C1346.63 9.77979 1343.84 10.0098 1341.04 10.5508L1336.33 11.4297L1331.65 12.3438C1328.06 13.0384 1324.43 13.1853 1320.82 12.7305L1311.4 11.5352C1308.36 11.1501 1305.31 10.8608 1302.26 10.6562L1297.55 10.3398L1292.88 10.0234C1289.88 9.8225 1286.87 9.76089 1283.88 9.84766L1279.2 9.98828L1274.49 10.1289C1271.26 10.2226 1268.01 10.2003 1264.79 10.0938L1260.11 9.95312L1255.4 9.77734C1252.48 9.68083 1249.54 9.81235 1246.61 10.1289L1241.93 10.6211L1237.22 11.1133C1233.92 11.4704 1230.61 11.6556 1227.31 11.6406L1222.6 11.6055H1217.89C1214.75 11.5911 1211.61 11.5406 1208.46 11.5L1203.75 11.4648L1199.04 11.3945C1195.95 11.3546 1192.86 11.3593 1189.76 11.3945L1185.05 11.4297L1180.34 11.5C1177.03 11.5372 1173.73 11.389 1170.43 11.043L1165.71 10.5508L1161.04 10.0586C1158.09 9.74952 1155.13 9.62041 1152.18 9.67188L1142.76 9.8125C1139.65 9.8673 1136.55 9.95608 1133.44 10.0586L1128.73 10.2344L1124.02 10.375C1120.99 10.4753 1117.95 10.6697 1114.91 10.9727L1110.2 11.4648L1105.49 11.9219C1102.18 12.2517 1098.86 12.385 1095.54 12.3086L1090.87 12.2031L1086.16 12.0977C1083.12 12.0277 1080.08 12.0416 1077.05 12.168L1072.34 12.3789L1067.63 12.5547C1064.27 12.695 1060.9 12.6035 1057.54 12.2383L1052.86 11.7109L1048.15 11.1836C1045.12 10.8536 1042.08 10.648 1039.05 10.5156L1029.62 10.0938C1026.59 9.9618 1023.55 9.94499 1020.52 10.0234L1015.84 10.1289L1011.13 10.2695C1008.13 10.3473 1005.1 10.5627 1002.1 10.9023L997.422 11.4297L992.711 11.957C989.172 12.3567 985.625 12.2676 982.094 11.7109L977.383 10.9727L972.707 10.2344C969.929 9.79648 967.144 9.67847 964.375 9.91797L954.953 10.7617C951.743 11.0392 948.531 11.228 945.32 11.3242L935.898 11.6055C932.746 11.6997 929.594 11.7416 926.441 11.7812L917.02 11.9219L898.176 12.0625C895.141 12.0801 892.106 12.197 889.07 12.4141L884.359 12.7305L879.648 13.082C876.165 13.3299 872.68 13.1591 869.207 12.5898L864.496 11.8164L859.82 11.043C856.893 10.5631 853.95 10.2939 851.031 10.2344L846.32 10.1289L841.645 10.0586C838.769 9.99994 835.88 10.1921 832.996 10.6211L828.285 11.2891L823.574 11.9922C820.272 12.4843 816.968 12.8015 813.66 12.9062L804.238 13.1875C800.992 13.2898 797.746 13.272 794.5 13.1172L789.789 12.9062L785.078 12.6602C781.941 12.5101 778.794 12.3586 775.656 12.2031L770.945 11.9922L766.27 11.7461C763.12 11.5901 759.962 11.4079 756.812 11.2188L747.391 10.6562C744.558 10.487 741.722 10.6146 738.883 11.0078L734.172 11.6406L729.496 12.3086C726.066 12.7837 722.597 12.9106 719.16 12.6953L714.484 12.3789L709.773 12.0977C706.821 11.9127 703.866 11.8924 700.914 12.0625L691.492 12.625C688.019 12.8247 684.546 12.6467 681.086 12.0625L676.375 11.2539L671.699 10.4453C668.863 9.96651 666.015 9.77697 663.191 9.88281L658.48 10.0586L653.805 10.2344C650.716 10.3502 647.613 10.5192 644.523 10.7266L635.102 11.3594C631.896 11.5744 628.675 11.7265 625.469 11.7812L620.793 11.8516L616.082 11.9219C612.99 11.9747 609.893 12.097 606.801 12.2383L602.09 12.4492L597.414 12.6602C594.189 12.8075 590.936 12.8475 587.711 12.8008L583.035 12.7305L578.324 12.6602C575.059 12.6129 571.779 12.4269 568.516 12.0977L563.84 11.6406L559.129 11.1484C556.085 10.8412 553.031 10.6357 549.988 10.5156L545.277 10.3398L540.602 10.1289C537.642 10.0122 534.667 10.0851 531.707 10.3047L522.285 11.0078C519.181 11.2387 516.073 11.4875 512.969 11.7812L508.258 12.2383L503.582 12.6602C500.301 12.9707 496.986 13.1305 493.703 13.1172H489.027L484.316 13.082C481.07 13.0688 477.823 12.9204 474.578 12.6602L469.867 12.3086L465.156 11.9219C462.24 11.6881 459.318 11.6623 456.402 11.8516L451.691 12.168L447.016 12.4492C443.56 12.6735 440.092 12.5395 436.645 12.0273L431.934 11.3242L427.258 10.6211C424.422 10.1999 421.577 10.0847 418.75 10.2344L409.328 10.7266C406.015 10.9028 402.692 10.8769 399.379 10.6562L394.703 10.3398L389.992 10.0234C386.961 9.82156 383.918 9.73375 380.887 9.74219H376.176L371.5 9.77734C368.368 9.78606 365.21 9.79799 362.078 9.8125H357.402L352.691 9.84766C349.768 9.8612 346.832 10.0895 343.902 10.5156L339.191 11.1836L334.516 11.8867C330.952 12.4051 327.356 12.4019 323.793 11.8867L319.117 11.1836L314.406 10.5156C311.592 10.1087 308.776 10.027 305.969 10.2344L301.258 10.5859L296.547 10.9023C293.47 11.1299 290.379 11.4103 287.301 11.7461L282.625 12.2734L277.914 12.8008C274.624 13.1597 271.328 13.3168 268.035 13.3281L263.324 13.3633H258.613C255.173 13.374 251.734 13.0333 248.312 12.3438L243.602 11.3945L238.926 10.4453C236.263 9.90868 233.591 9.83047 230.945 10.1641L226.27 10.7617L221.559 11.3594C218.164 11.7874 214.763 11.8904 211.363 11.7109L201.941 11.2188C198.98 11.0618 196.008 11.0685 193.047 11.2539L188.371 11.5703L183.66 11.8516C180.51 12.0488 177.353 12.2206 174.203 12.3789L164.781 12.8711C161.606 13.0306 158.43 13.1261 155.254 13.1875L150.543 13.293L145.832 13.3633C142.648 13.4246 139.453 13.446 136.27 13.3984L131.594 13.3281L126.883 13.2578C123.616 13.209 120.339 12.9949 117.074 12.6602L112.363 12.2031L107.688 11.7109C104.772 11.4121 101.846 11.3323 98.9336 11.4648L89.5117 11.8867C86.2819 12.0335 83.0386 12.0607 79.8086 11.9922L75.1328 11.9219L70.4219 11.8164C67.3062 11.7504 64.186 11.6755 61.0703 11.6406L56.3594 11.6055L51.6484 11.5352C50.0863 11.5177 48.8999 11.5155 48.0977 11.5C47.7091 11.4924 47.3815 11.4731 47.1484 11.4648C47.0394 11.4609 46.8873 11.4735 46.7617 11.4648C46.7132 11.4615 46.5713 11.4515 46.4102 11.4297C46.3623 11.4232 46.2156 11.4023 46.0234 11.3594C45.5647 11.3611 44.9211 11.3835 44.0898 11.3945L41.1367 11.4297L38.1484 11.4648C37.6491 11.4752 36.4165 11.7896 34.3516 13.5039L30.7305 16.5273L27.0742 19.5508C24.9704 21.2983 23.2277 23.2153 21.8359 25.3164L19.375 29.0781L16.8789 32.8047C15.607 34.7264 14.8128 36.8482 14.4883 39.2031L13.8555 43.7031L13.2578 48.2383C12.8815 50.9714 12.7203 53.77 12.8359 56.6406L13.0469 61.3516L13.2227 66.0625C13.3566 69.3678 13.3017 72.6724 13.0469 75.9766L12.6953 80.6875L12.3086 85.3984C12.0687 88.5011 11.8848 91.6123 11.7109 94.7148L11.4297 99.4258L11.1836 104.102C11.0171 107.074 10.9922 110.059 11.1484 113.031L11.3945 117.742L11.6406 122.418C11.8132 125.7 11.8265 129.014 11.6758 132.297L11.4648 136.973L11.2539 141.684C11.1162 144.683 11.1219 147.685 11.2539 150.684L11.6758 160.105C11.8169 163.314 11.8768 166.53 11.8516 169.738L11.7812 174.449L11.7461 179.125C11.7226 182.115 11.8682 185.133 12.1328 188.125L12.5547 192.801L12.9414 197.512C13.2408 200.897 13.2551 204.286 12.9766 207.672L12.2031 217.094C11.946 220.211 11.7225 223.329 11.5 226.445L11.1484 231.156L10.832 235.867C10.6292 238.721 10.6855 241.588 11.0078 244.445L11.5352 249.121L12.0625 253.832C12.4261 257.055 12.6969 260.304 12.8711 263.57L13.1172 268.352L13.3633 273.098C13.4746 275.185 14.2393 276.914 15.7188 278.441L22.3984 285.332C24.1698 287.161 26.1527 288.472 28.375 289.27L32.7344 290.816L37.0586 292.363C39.7133 293.316 42.4705 294.07 45.3203 294.578L49.9609 295.387L54.6016 296.23C57.2395 296.701 59.8997 296.752 62.582 296.406L67.293 295.809L71.9688 295.211C75.3314 294.777 78.7256 294.597 82.0938 294.684L86.7695 294.789L91.4805 294.93C94.6638 295.012 97.8598 295.131 101.043 295.316L105.719 295.598L110.43 295.879C113.414 296.052 116.411 296.077 119.395 295.949L124.105 295.738L128.781 295.527C131.996 295.39 135.234 295.352 138.449 295.387L143.125 295.422L147.836 295.492C151.008 295.526 154.192 295.591 157.363 295.703L162.074 295.879L166.75 296.02C169.692 296.123 172.665 296.048 175.609 295.773L180.285 295.352L184.996 294.895C188.27 294.589 191.564 294.435 194.84 294.438H204.227C207.295 294.44 210.369 294.395 213.438 294.262L218.148 294.051L222.824 293.84C226.232 293.691 229.654 293.863 233.055 294.332L237.766 294.965L242.477 295.633C245.324 296.024 248.179 296.138 251.02 295.984L255.695 295.738L260.406 295.457C263.788 295.274 267.188 295.366 270.566 295.738L275.242 296.266L279.953 296.793C282.764 297.103 285.58 297.096 288.391 296.793L293.102 296.301L297.777 295.773C301.006 295.425 304.251 295.179 307.48 295.035L312.191 294.824L316.902 294.648C320.208 294.502 323.512 294.544 326.816 294.789L336.238 295.492C339.144 295.708 342.051 295.709 344.957 295.492L354.379 294.789C357.683 294.542 360.987 294.477 364.293 294.613L369.004 294.789L373.715 295C376.914 295.132 380.114 295.318 383.312 295.598L392.734 296.441C395.7 296.7 398.665 296.785 401.629 296.723L406.34 296.617L411.051 296.547C414.145 296.482 417.238 296.367 420.332 296.23L429.754 295.809C432.81 295.674 435.873 295.468 438.93 295.176L443.641 294.719L448.316 294.262C451.686 293.94 455.07 293.912 458.441 294.121L463.152 294.402L467.828 294.684C470.927 294.876 474.046 295.023 477.145 295.141L481.855 295.352L486.531 295.527C489.526 295.641 492.536 295.586 495.531 295.422L504.953 294.93C508.117 294.756 511.281 294.6 514.445 294.508L519.156 294.402L523.867 294.262C527.232 294.164 530.597 294.299 533.957 294.719L543.379 295.914C546.273 296.275 549.174 296.403 552.062 296.301L556.738 296.125L561.449 295.984C564.548 295.875 567.666 295.711 570.766 295.527L575.441 295.246L580.152 294.965C583.49 294.767 586.835 294.816 590.172 295.07L599.594 295.773C602.536 295.997 605.477 296.025 608.418 295.879L613.129 295.668L617.84 295.422C621.098 295.261 624.355 295.262 627.613 295.387L637.035 295.738C640.223 295.86 643.411 296.026 646.598 296.266L656.02 296.969C658.762 297.174 661.523 297.05 664.281 296.547L668.957 295.668L673.668 294.824C677.317 294.159 680.984 294.135 684.637 294.754L689.348 295.562L694.023 296.336C696.777 296.803 699.543 296.907 702.285 296.652L706.961 296.23L711.672 295.809C715.101 295.491 718.545 295.486 721.973 295.844L726.684 296.336L731.359 296.828C734.057 297.11 736.769 297.01 739.48 296.512L744.191 295.633L748.902 294.789C752.503 294.126 756.119 294.016 759.73 294.508L764.441 295.141L769.117 295.809C772.114 296.217 775.124 296.488 778.117 296.617L782.828 296.793L787.539 297.004C790.442 297.128 793.352 297.041 796.258 296.723L800.969 296.195L805.645 295.703C809.049 295.33 812.468 295.247 815.875 295.492L820.586 295.844L825.297 296.16C828.34 296.379 831.395 296.54 834.438 296.582L839.113 296.617L843.824 296.688C846.984 296.731 850.157 296.802 853.316 296.898L858.027 297.039L862.703 297.18C865.589 297.267 868.495 297.114 871.387 296.723L876.098 296.09L880.773 295.457C884.295 294.98 887.833 294.966 891.355 295.422L896.066 296.055L900.777 296.652C903.627 297.023 906.476 297.115 909.32 296.934L914.031 296.652L918.707 296.336C922.04 296.124 925.394 296.143 928.727 296.371L933.438 296.688L938.113 297.004C940.92 297.196 943.736 297.074 946.551 296.652L955.973 295.246C959.468 294.724 962.982 294.653 966.484 295L971.16 295.457L975.871 295.914C978.665 296.19 981.476 296.172 984.273 295.809L988.949 295.176L993.66 294.578C997.208 294.117 1000.77 294.146 1004.31 294.684L1009.02 295.387L1013.73 296.125C1016.43 296.535 1019.12 296.544 1021.82 296.16L1031.24 294.824C1034.79 294.319 1038.35 294.29 1041.89 294.789L1051.32 296.125C1054.01 296.503 1056.71 296.505 1059.4 296.09L1064.11 295.352L1068.79 294.613C1072.28 294.075 1075.8 293.982 1079.3 294.297L1084.01 294.719L1088.69 295.141C1091.56 295.399 1094.43 295.395 1097.3 295.141L1106.72 294.297C1110.24 293.987 1113.77 294.129 1117.27 294.719L1121.95 295.527L1126.66 296.301C1129.46 296.773 1132.27 296.944 1135.06 296.793L1139.77 296.547L1144.48 296.266C1147.79 296.085 1151.12 296.125 1154.43 296.336L1159.11 296.617L1163.82 296.934C1166.65 297.114 1169.49 297 1172.32 296.617L1181.75 295.352C1185.15 294.891 1188.57 294.728 1191.98 294.895L1196.69 295.141L1201.36 295.352C1204.35 295.498 1207.34 295.496 1210.33 295.352L1215.04 295.141L1219.75 294.895C1223.02 294.735 1226.29 294.722 1229.56 294.859L1238.98 295.281C1241.91 295.404 1244.84 295.31 1247.77 295.035L1252.48 294.578L1257.16 294.156C1260.47 293.845 1263.79 293.718 1267.11 293.805L1271.82 293.945L1276.53 294.051C1279.84 294.138 1283.14 294.451 1286.44 294.93L1295.86 296.266C1298.78 296.688 1301.71 296.905 1304.62 296.898H1314C1316.88 296.892 1319.77 296.63 1322.65 296.125L1327.36 295.281L1332.04 294.473C1335.55 293.857 1339.09 293.701 1342.62 294.016L1352.04 294.859C1355.12 295.135 1358.21 295.348 1361.29 295.527L1370.71 296.09C1373.68 296.262 1376.64 296.276 1379.61 296.125L1389.03 295.633C1392.27 295.467 1395.54 295.418 1398.8 295.492L1408.22 295.703C1410.76 295.761 1413.2 295.321 1415.57 294.367L1419.96 292.609L1424.36 290.816C1426.58 289.921 1428.41 288.569 1429.88 286.738L1432.8 283.082L1435.75 279.426C1437.37 277.399 1438.59 275.136 1439.44 272.641L1440.99 268.176L1442.54 263.676C1443.34 261.314 1443.61 258.913 1443.34 256.434L1442.82 251.723L1442.32 247.012C1441.97 243.72 1441.77 240.424 1441.76 237.133V232.422L1441.73 227.746ZM42.5078 7.07031C42.5307 7.65228 42.6801 8.1489 42.8594 8.58203C42.6875 8.14576 42.5215 7.65382 42.5078 7.07031ZM51.0859 5.17188C51.0532 5.09775 51.0155 5.03024 50.9805 4.96094C51.0149 5.03148 51.0542 5.09685 51.0859 5.17188ZM50.3477 3.97656C50.3187 3.94403 50.3048 3.90023 50.2773 3.87109L50.1719 3.83594C50.2215 3.88786 50.2959 3.91693 50.3477 3.97656ZM46.2695 2.35938C46.5208 2.35939 46.7557 2.35464 46.9375 2.35938C47.015 2.36142 47.1463 2.38377 47.2891 2.39453C47.3409 2.3986 47.5736 2.42038 47.8164 2.46484C47.8475 2.47059 47.8944 2.48615 47.957 2.5C48.049 2.50205 48.1612 2.49782 48.2734 2.5C49.038 2.51481 50.1961 2.55289 51.7539 2.57031L56.4648 2.60547L61.1406 2.64062C64.2873 2.67582 67.451 2.74973 70.5977 2.81641L80.0195 3.02734C83.0521 3.09148 86.0922 3.02483 89.125 2.88672L93.8359 2.67578L98.5117 2.46484C101.869 2.31196 105.247 2.40216 108.602 2.74609L113.277 3.23828L117.988 3.73047C120.994 4.03862 124.02 4.21295 127.023 4.25781L131.699 4.32812L136.41 4.39844C139.491 4.44445 142.576 4.4226 145.656 4.36328L150.367 4.29297L155.078 4.1875C158.16 4.12798 161.242 4.02583 164.324 3.87109L173.746 3.37891C176.861 3.22237 179.983 3.04655 183.098 2.85156L187.809 2.57031L192.484 2.28906C195.792 2.08199 199.125 2.04328 202.434 2.21875L207.109 2.46484L211.82 2.74609C214.686 2.8981 217.563 2.79173 220.434 2.42969L225.145 1.83203L229.82 1.23438C233.441 0.777766 237.08 0.896148 240.684 1.62109L250.105 3.51953C252.947 4.0917 255.79 4.37293 258.613 4.36328H263.289L268 4.32812C270.975 4.31796 273.952 4.16064 276.93 3.83594L281.641 3.34375L286.352 2.81641C289.534 2.4693 292.731 2.17272 295.914 1.9375L300.59 1.58594L305.301 1.23438C308.759 0.978829 312.221 1.12307 315.672 1.62109L325.094 2.95703C327.8 3.34834 330.508 3.35079 333.215 2.95703L337.891 2.28906L342.602 1.58594C345.942 1.09999 349.309 0.863159 352.656 0.847656L357.332 0.8125H362.043C365.181 0.797966 368.327 0.786074 371.465 0.777344L376.176 0.742188H380.852C384.091 0.733175 387.351 0.84294 390.59 1.05859L395.301 1.375L399.977 1.69141C402.927 1.88788 405.886 1.88298 408.836 1.72656L418.258 1.23438C421.695 1.05137 425.13 1.21764 428.559 1.72656L437.98 3.13281C440.798 3.55042 443.609 3.66645 446.418 3.48438L451.129 3.16797L455.84 2.88672C459.188 2.67002 462.547 2.68836 465.895 2.95703L470.57 3.30859L475.281 3.69531C478.303 3.93785 481.331 4.06975 484.352 4.08203L489.062 4.11719H493.738C496.719 4.12931 499.72 4.01223 502.703 3.73047L512.125 2.81641C515.289 2.51699 518.453 2.24313 521.617 2.00781L526.328 1.69141L531.039 1.33984C534.339 1.09497 537.652 1.03385 540.953 1.16406L545.629 1.33984L550.34 1.51562C553.562 1.64272 556.787 1.89399 560.008 2.21875L564.719 2.67578L569.43 3.16797C572.436 3.47131 575.46 3.61668 578.465 3.66016L583.141 3.73047L587.852 3.80078C590.896 3.84484 593.947 3.79926 596.992 3.66016L601.703 3.44922L606.379 3.23828C609.557 3.09311 612.764 2.97615 615.941 2.92188L620.617 2.85156L625.328 2.78125C628.386 2.72903 631.446 2.5997 634.504 2.39453L643.926 1.76172C647.101 1.54861 650.277 1.38859 653.453 1.26953L662.875 0.917969C666.314 0.790118 669.749 1.0077 673.176 1.58594L677.887 2.35938L682.598 3.16797C685.4 3.64037 688.21 3.78605 691 3.625L695.676 3.37891L700.387 3.09766C703.702 2.9063 707.021 2.92515 710.336 3.13281L715.047 3.41406L719.723 3.69531C722.551 3.87249 725.395 3.77067 728.23 3.37891L732.941 2.74609L737.652 2.07812C741.078 1.60385 744.521 1.48528 747.953 1.69141L752.629 1.97266L757.34 2.25391C760.454 2.44094 763.577 2.59174 766.691 2.74609L776.113 3.23828C779.242 3.3933 782.371 3.54569 785.5 3.69531L794.922 4.11719C797.934 4.261 800.945 4.28246 803.957 4.1875L813.379 3.90625C816.33 3.81262 819.282 3.53781 822.238 3.09766L831.66 1.69141C835.04 1.18824 838.433 0.989486 841.82 1.05859L846.531 1.16406L851.207 1.23438C854.558 1.30273 857.919 1.63563 861.262 2.18359L865.973 2.92188L870.648 3.69531C873.439 4.15277 876.236 4.28036 879.016 4.08203L883.727 3.76562L888.438 3.41406C891.667 3.18345 894.911 3.08111 898.141 3.0625L902.816 3.02734L907.527 2.99219C910.652 2.97418 913.789 2.96108 916.914 2.92188L921.625 2.85156L926.301 2.78125C929.41 2.74225 932.543 2.69844 935.652 2.60547L940.328 2.46484L945.039 2.32422C948.085 2.23314 951.133 2.02509 954.18 1.76172L958.891 1.375L963.602 0.953125C967.097 0.65091 970.592 0.791475 974.078 1.33984L983.5 2.81641C986.237 3.24768 988.962 3.30004 991.691 2.99219L1001.11 1.9375C1004.37 1.57002 1007.63 1.35416 1010.89 1.26953L1015.6 1.12891L1020.31 1.02344C1023.54 0.939884 1026.78 0.953047 1030.01 1.09375L1039.43 1.51562C1042.66 1.6565 1045.91 1.90275 1049.14 2.25391L1053.81 2.78125L1058.52 3.27344C1061.43 3.58983 1064.34 3.67542 1067.24 3.55469L1071.95 3.37891L1076.66 3.16797C1079.89 3.03314 1083.14 3.02314 1086.37 3.09766L1091.04 3.20312L1095.75 3.30859C1098.7 3.37663 1101.66 3.25166 1104.61 2.95703L1109.32 2.5L1114.04 2.00781C1117.26 1.68591 1120.51 1.4817 1123.74 1.375L1128.41 1.23438L1133.12 1.05859C1136.28 0.954262 1139.46 0.86821 1142.62 0.8125L1147.29 0.742188L1152 0.671875C1155.32 0.613374 1158.64 0.746897 1161.95 1.09375L1171.38 2.07812C1174.33 2.38743 1177.28 2.53302 1180.23 2.5L1184.95 2.42969L1189.66 2.39453C1192.83 2.35836 1196.01 2.3535 1199.18 2.39453L1203.86 2.46484L1208.57 2.53516C1211.69 2.57555 1214.83 2.59122 1217.96 2.60547H1222.63L1227.34 2.64062C1230.31 2.65414 1233.27 2.50398 1236.24 2.18359L1240.95 1.65625L1245.66 1.16406C1249 0.803267 1252.34 0.667561 1255.68 0.777344L1260.39 0.953125L1265.1 1.09375C1268.14 1.19386 1271.17 1.21665 1274.21 1.12891L1283.63 0.847656C1286.91 0.752584 1290.19 0.803257 1293.47 1.02344L1298.18 1.33984L1302.86 1.65625C1306.08 1.87257 1309.31 2.19866 1312.53 2.60547L1321.95 3.80078C1324.6 4.13545 1327.26 4.03565 1329.93 3.51953L1334.64 2.60547L1339.32 1.69141C1342.78 1.02158 1346.28 0.752374 1349.76 0.882812L1359.18 1.23438C1362.45 1.35735 1365.73 1.62626 1368.99 2.04297L1373.66 2.64062L1378.38 3.23828C1381.08 3.58314 1383.79 3.54316 1386.5 3.09766L1391.17 2.32422L1395.88 1.55078C1399.46 0.961881 1403.07 0.915391 1406.68 1.41016L1411.46 2.07812L1416.2 2.71094C1420 3.23305 1423.55 4.52289 1426.82 6.54297L1430.93 9.07422L1435.05 11.6406C1438.41 13.7237 1441.09 16.5087 1443.06 19.9375L1445.49 24.1211L1447.88 28.3047C1449.82 31.6828 1450.94 35.3384 1451.18 39.2031L1451.5 43.9492L1451.78 48.6953C1452 52.1423 1451.9 55.5801 1451.46 58.9961L1450.87 63.707L1450.3 68.3828C1449.95 71.1935 1449.88 74.0134 1450.13 76.8203L1450.97 86.2422C1451.27 89.4996 1451.44 92.7567 1451.46 96.0156L1451.5 100.727V105.438C1451.52 108.696 1451.42 111.954 1451.15 115.211L1450.38 124.633C1450.13 127.599 1450.04 130.563 1450.13 133.527L1450.41 142.949C1450.5 146.008 1450.66 149.066 1450.9 152.125L1451.25 156.836L1451.64 161.547C1451.89 164.699 1452.11 167.852 1452.31 171.004L1452.87 180.426C1453.08 183.82 1453.01 187.23 1452.62 190.621L1452.1 195.297L1451.57 200.008C1451.23 202.997 1451.03 205.986 1450.97 208.973L1450.9 213.684L1450.8 218.395C1450.74 221.497 1450.72 224.608 1450.73 227.711L1450.76 232.422V237.098C1450.77 240.075 1450.93 243.078 1451.25 246.062L1451.78 250.773L1452.27 255.484C1452.68 259.271 1452.27 262.989 1451.04 266.594L1449.5 271.094L1447.98 275.559C1446.8 279.034 1445.03 282.201 1442.75 285.051L1439.83 288.742L1436.88 292.398C1434.43 295.439 1431.37 297.72 1427.73 299.184L1423.34 300.941L1418.95 302.734C1415.45 304.143 1411.77 304.789 1408.01 304.703L1398.59 304.492C1395.55 304.423 1392.51 304.478 1389.48 304.633L1384.77 304.879L1380.1 305.09C1376.8 305.258 1373.48 305.246 1370.18 305.055L1365.47 304.809L1360.8 304.527C1357.62 304.343 1354.42 304.108 1351.23 303.824L1346.52 303.402L1341.85 302.98C1339.11 302.736 1336.34 302.85 1333.59 303.332L1328.91 304.141L1324.2 304.984C1320.82 305.576 1317.43 305.89 1314.04 305.898H1304.62C1301.26 305.906 1297.91 305.681 1294.56 305.195L1289.85 304.492L1285.14 303.824C1282.18 303.396 1279.23 303.128 1276.28 303.051L1271.57 302.945L1266.86 302.805C1263.91 302.728 1260.95 302.844 1258 303.121L1253.29 303.543L1248.61 304C1245.28 304.313 1241.93 304.386 1238.59 304.246L1233.88 304.07L1229.17 303.859C1226.18 303.734 1223.17 303.749 1220.17 303.895L1215.5 304.105L1210.79 304.352C1207.51 304.511 1204.22 304.512 1200.94 304.352L1196.23 304.105L1191.52 303.895C1188.67 303.756 1185.8 303.859 1182.94 304.246L1178.23 304.879L1173.55 305.547C1170.13 306.01 1166.69 306.117 1163.25 305.898L1158.54 305.617L1153.83 305.301C1150.88 305.114 1147.93 305.104 1144.97 305.266L1140.26 305.512L1135.55 305.793C1132.09 305.981 1128.63 305.775 1125.18 305.195L1120.47 304.387L1115.76 303.613C1113 303.15 1110.24 303.018 1107.5 303.262L1102.79 303.684L1098.11 304.105C1094.71 304.407 1091.28 304.411 1087.88 304.105L1083.2 303.684L1078.49 303.262C1075.72 303.013 1072.94 303.08 1070.16 303.508L1065.48 304.246L1060.77 304.984C1057.21 305.534 1053.62 305.557 1050.05 305.055L1040.63 303.719C1037.92 303.339 1035.22 303.333 1032.51 303.719L1023.09 305.055C1019.52 305.563 1015.93 305.562 1012.36 305.02L1007.69 304.316L1002.98 303.578C1000.26 303.164 997.537 303.155 994.82 303.508L990.109 304.105L985.434 304.703C981.961 305.154 978.469 305.223 974.992 304.879L970.281 304.422L965.605 303.93C962.848 303.657 960.073 303.728 957.309 304.141L952.598 304.879L947.887 305.582C944.436 306.099 940.975 306.24 937.516 306.004L932.805 305.652L928.094 305.336C925.164 305.136 922.235 305.15 919.305 305.336L914.594 305.617L909.883 305.934C906.459 306.151 903.036 306.026 899.617 305.582L894.906 304.984L890.195 304.352C887.464 303.998 884.736 304.018 882.004 304.387L872.582 305.652C869.21 306.109 865.835 306.281 862.457 306.18L853.035 305.898C849.93 305.804 846.824 305.731 843.719 305.688L839.008 305.617L834.297 305.582C831.075 305.537 827.85 305.392 824.629 305.16L819.918 304.809L815.242 304.457C812.379 304.251 809.495 304.319 806.629 304.633L801.918 305.16L797.242 305.652C793.885 306.02 790.513 306.148 787.152 306.004L777.73 305.582C774.459 305.441 771.19 305.148 767.922 304.703L758.5 303.438C755.846 303.077 753.184 303.122 750.52 303.613L745.844 304.492L741.133 305.371C737.582 306.025 734.011 306.164 730.445 305.793L721.023 304.809C718.187 304.513 715.351 304.476 712.516 304.738L707.805 305.195L703.094 305.617C699.574 305.943 696.055 305.824 692.547 305.23L683.125 303.613C680.51 303.171 677.904 303.206 675.285 303.684L670.574 304.527L665.863 305.406C662.362 306.043 658.834 306.233 655.316 305.969L650.641 305.617L645.93 305.266C642.85 305.034 639.763 304.856 636.684 304.738L631.973 304.562L627.262 304.352C624.264 304.237 621.259 304.273 618.262 304.422L613.551 304.633L608.875 304.879C605.551 305.043 602.213 304.992 598.891 304.738L594.18 304.387L589.504 304.035C586.571 303.811 583.612 303.791 580.68 303.965L576.004 304.246L571.293 304.527C568.122 304.715 564.936 304.837 561.766 304.949L557.09 305.125L552.379 305.301C549.005 305.42 545.623 305.264 542.254 304.844L532.832 303.648C529.928 303.286 527.012 303.178 524.113 303.262L519.438 303.367L514.727 303.508C511.635 303.598 508.537 303.725 505.445 303.895L500.734 304.176L496.023 304.422C492.754 304.601 489.485 304.616 486.215 304.492L476.793 304.141C473.629 304.02 470.464 303.88 467.301 303.684L462.59 303.367L457.879 303.086C454.985 302.906 452.091 302.95 449.195 303.227L439.773 304.141C436.564 304.447 433.35 304.667 430.141 304.809L425.43 305.02L420.754 305.23C417.584 305.37 414.396 305.48 411.227 305.547L406.516 305.617L401.84 305.723C398.542 305.792 395.222 305.695 391.926 305.406L387.215 304.984L382.539 304.562C379.473 304.294 376.394 304.127 373.328 304L368.617 303.789L363.941 303.613C360.982 303.491 358.007 303.532 355.047 303.754L345.625 304.457C342.274 304.707 338.921 304.706 335.57 304.457L326.148 303.754C323.195 303.535 320.242 303.482 317.289 303.613L307.867 304.035C304.833 304.171 301.798 304.411 298.762 304.738L294.051 305.23L289.34 305.758C285.885 306.129 282.423 306.104 278.969 305.723L274.258 305.23L269.582 304.703C266.691 304.384 263.787 304.301 260.898 304.457L256.188 304.703L251.512 304.949C248.092 305.134 244.659 304.997 241.246 304.527L236.535 303.895L231.824 303.227C228.961 302.832 226.102 302.716 223.246 302.84L213.824 303.262C210.625 303.401 207.426 303.44 204.227 303.438H194.805C191.817 303.436 188.829 303.581 185.84 303.859L181.129 304.281L176.418 304.738C173.096 305.048 169.758 305.137 166.434 305.02L161.758 304.844L157.047 304.703C153.949 304.594 150.829 304.526 147.73 304.492L143.055 304.422L138.344 304.387C135.289 304.354 132.223 304.397 129.168 304.527L124.492 304.738L119.781 304.914C116.495 305.055 113.188 305.035 109.902 304.844L105.227 304.562L100.516 304.316C97.4288 304.137 94.321 304.009 91.2344 303.93L86.5586 303.789L81.8477 303.684C78.9458 303.609 76.0362 303.73 73.1289 304.105L68.418 304.738L63.7422 305.336C60.156 305.799 56.5658 305.723 53.0195 305.09L48.3789 304.246L43.7383 303.438C40.4042 302.843 37.1726 301.962 34.0352 300.836L29.6758 299.289L25.3516 297.742C21.7825 296.461 18.6167 294.397 15.9297 291.625L12.5898 288.145L9.25 284.699C6.27009 281.623 4.62622 277.862 4.39844 273.59L4.11719 268.809L3.87109 264.062C3.7063 260.972 3.44099 257.896 3.09766 254.852L2.04297 245.43C1.65969 242.026 1.58883 238.606 1.83203 235.199L2.18359 230.523L2.5 225.812C2.72484 222.663 2.97844 219.505 3.23828 216.355L4.01172 206.934C4.24797 204.062 4.22987 201.193 3.97656 198.32L3.58984 193.609L3.16797 188.898C2.87826 185.621 2.72033 182.333 2.74609 179.055L2.78125 174.379L2.85156 169.668C2.87557 166.612 2.81037 163.548 2.67578 160.492L2.25391 151.07C2.11043 147.805 2.10394 144.527 2.25391 141.262L2.46484 136.586L2.71094 131.875C2.84809 128.889 2.83265 125.896 2.67578 122.91L2.18359 113.488C2.01095 110.195 1.99913 106.902 2.18359 103.609L2.46484 98.8984L2.71094 94.1875C2.88818 91.0261 3.09932 87.8566 3.34375 84.6953L3.69531 79.9844L4.08203 75.3086C4.31084 72.3493 4.34262 69.3722 4.22266 66.4141L4.04688 61.7031L3.87109 57.0273C3.73359 53.6368 3.87622 50.2896 4.32812 47.0078L4.96094 42.4727L5.55859 37.9727C6.06412 34.3046 7.36169 30.9132 9.39062 27.8477L11.8516 24.0859L14.3125 20.3594C16.2159 17.4835 18.5658 14.9044 21.3086 12.625L28.6211 6.57812C31.4008 4.2704 34.5798 2.51067 38.043 2.46484L40.9961 2.42969L43.9844 2.39453C44.9725 2.38148 45.7464 2.35945 46.2695 2.35938Z" fill="black"/>
</svg>
