<svg width="2533" height="326" viewBox="0 0 2533 326" fill="none" xmlns="http://www.w3.org/2000/svg">
<path d="M1227.83 0.261719C1239.1 0.225893 1250.36 0.64643 1261.63 1.52344L1278.23 2.78516L1294.77 4.11328C1305.42 4.9429 1316.12 5.0422 1326.77 4.37891L1343.31 3.31641L1359.91 2.32031C1371.63 1.59167 1383.35 2.21531 1395.04 4.24609L1411.57 7.10156L1428.18 10.0234C1438.54 11.8239 1448.91 12.3356 1459.25 11.5508L1475.79 10.2891L1492.39 9.02734C1503.92 8.15297 1515.46 8.21137 1526.99 9.29297L1543.52 10.8867L1560.12 12.4141C1570.92 13.4274 1581.74 13.9565 1592.53 14.0078L1609.07 14.0742L1625.67 14.207C1636.38 14.2579 1647.09 13.6651 1657.81 12.4805L1674.41 10.6211L1691.01 8.82812C1702.12 7.599 1713.24 6.47383 1724.35 5.50781L1740.88 4.04688L1757.48 2.65234C1768.9 1.65951 1780.33 1.39589 1791.75 1.92188L1808.35 2.71875L1824.89 3.44922C1836.14 3.96821 1847.44 4.91085 1858.69 6.23828L1875.22 8.16406L1891.82 10.1562C1902.58 11.4258 1913.34 12.165 1924.1 12.3477L1957.3 12.8789C1968.14 13.0616 1979 12.8603 1989.84 12.2812L2006.38 11.418L2022.98 10.4883C2034.11 9.89368 2045.25 9.51561 2056.38 9.29297L2089.58 8.62891C2100.45 8.41136 2111.32 7.8879 2122.19 7.03516L2138.79 5.70703L2155.39 4.44531C2166.52 3.57163 2177.66 2.87486 2188.79 2.38672L2205.39 1.65625L2221.93 0.925781C2233.67 0.411289 2245.42 1.33845 2257.12 3.64844L2273.73 6.90234L2290.26 10.1562C2300.59 12.1959 2310.91 12.8432 2321.21 12.1484L2337.81 11.0859L2354.34 9.95703C2365.78 9.18492 2377.24 9.1865 2388.68 10.0234L2405.28 11.2852L2421.88 12.4805C2432.46 13.2538 2443.19 13.2026 2454.02 12.2812L2470.95 10.8203L2487.82 9.35938C2494.76 8.76947 2501.44 9.88998 2507.08 13.543C2512.76 17.2235 2516.38 22.8374 2518.43 29.4141L2523.35 44.9531L2528.2 60.4922C2531.74 71.8448 2533.14 83.5748 2532.45 95.6211L2531.52 112.223L2530.52 128.758C2529.88 139.795 2529.28 150.857 2528.66 161.895L2526.8 195.098C2526.2 205.91 2526 216.625 2526.27 227.238L2526.73 243.508L2527.13 259.844C2527.46 273.025 2522.84 284.268 2513.05 292.582L2490.08 312.105C2480.66 320.101 2469.19 323.769 2456.28 323.461L2439.74 323.062L2423.14 322.664C2411.62 322.389 2400.11 321.149 2388.61 318.945L2372.01 315.758L2355.47 312.637C2345.17 310.662 2334.86 310.052 2324.59 310.91L2308.06 312.305L2291.46 313.699C2280.19 314.641 2268.92 315.151 2257.66 315.227L2241.05 315.359L2224.52 315.492C2213.5 315.566 2202.47 315.663 2191.45 315.824L2174.85 316.09L2158.25 316.289C2147.27 316.45 2136.29 316.769 2125.31 317.152L2108.71 317.684L2092.17 318.281C2081.32 318.661 2070.43 319.374 2059.57 320.473L2042.96 322.199L2026.43 323.859C2014.57 325.059 2002.67 324.579 1990.84 322.398L1974.3 319.344L1957.7 316.289C1947.52 314.413 1937.38 314.152 1927.22 315.492L1910.62 317.684L1894.08 319.875C1882.76 321.37 1871.41 322.254 1860.08 322.598L1843.48 323.129L1826.88 323.594C1815.61 323.934 1804.34 323.835 1793.08 323.262L1776.48 322.398L1759.94 321.602C1748.68 321.028 1737.4 319.978 1726.14 318.547L1709.54 316.422L1693 314.363C1682.45 313.021 1671.87 312.588 1661.33 313.102L1628.12 314.695C1616.88 315.244 1605.64 315.396 1594.39 315.094L1561.19 314.164C1550.56 313.879 1539.89 314.383 1529.25 315.625L1512.71 317.551L1496.11 319.477C1484.85 320.79 1473.57 321.698 1462.31 322.133L1445.77 322.797L1429.17 323.395C1418.07 323.823 1406.94 324.162 1395.84 324.391L1379.3 324.723L1362.7 325.055C1351.25 325.29 1339.81 324.729 1328.37 323.328L1311.77 321.27L1295.23 319.277C1284.56 317.97 1273.88 317.343 1263.22 317.484L1246.62 317.75L1230.09 317.949C1218.96 318.098 1207.81 318.117 1196.68 317.949L1180.08 317.684L1163.55 317.418C1152.53 317.251 1141.49 317.145 1130.48 317.086L1113.88 317.02L1097.27 316.887C1086.61 316.831 1075.94 317.529 1065.27 318.879L1048.66 320.938L1032.13 323.062C1020.63 324.517 1009.11 325.032 997.598 324.59L964.395 323.262C953.557 322.844 942.693 322.828 931.855 323.195L915.32 323.793L898.719 324.324C887.363 324.709 876.006 324.484 864.652 323.594L831.449 320.938C820.225 320.055 809.001 318.81 797.781 317.152L764.578 312.238C754.589 310.765 744.596 311.165 734.562 313.434L717.961 317.152L701.426 320.938C689.66 323.597 677.851 324.643 666.031 324.125L649.43 323.395L632.895 322.664C621.546 322.166 610.168 321.103 598.828 319.41L582.293 316.953L565.691 314.43C555.603 312.923 545.519 313.15 535.41 315.094L518.809 318.281L502.273 321.469C490.634 323.708 478.949 324.692 467.277 324.391L450.676 323.992L434.141 323.527C423.2 323.245 412.21 323.189 401.27 323.328L384.734 323.527L368.133 323.727C356.998 323.868 345.865 323.815 334.73 323.594L318.129 323.328L301.594 322.996C290.489 322.775 279.363 322.445 268.258 322L251.656 321.336L235.121 320.605C223.767 320.15 212.4 319.091 201.055 317.418L184.453 315.027L167.918 312.57C157.577 311.045 147.236 310.816 136.906 311.906L120.305 313.633L103.77 315.426C91.967 316.673 80.3417 316.273 68.9727 314.297L53.1016 311.574L37.2305 308.785C30.6295 307.632 24.6722 304.989 20.2305 300.219C15.7766 295.431 13.5912 289.281 12.9922 282.621L11.5312 266.883L10.1367 251.078C9.17476 240.383 8.52414 229.408 8.14453 218.207L7.54688 201.672L7.01562 185.07C6.64661 174.182 5.94594 163.289 4.95703 152.398L3.42969 135.797L1.96875 119.262C0.937121 107.901 0.520821 96.2956 0.707031 84.5312L1.23828 50.1328C1.44029 37.4567 5.47144 25.7146 17.3086 21.3125L27.5352 17.4609L37.7617 13.6758C40.7187 12.5761 42.9822 11.7165 44.5352 11.0859C44.9401 10.5958 45.2354 10.139 45.5312 9.89062C46.5379 9.04865 47.5328 8.65092 47.9219 8.49609C48.7748 8.15696 49.5342 8.009 49.7812 7.96484C50.4095 7.85384 51.0285 7.79426 51.4414 7.76562C52.3724 7.70127 53.6113 7.71951 55.0273 7.69922C57.9105 7.658 62.1718 7.62679 67.7109 7.69922L84.2461 7.96484L100.848 8.16406C111.927 8.30898 123.038 8.48708 134.117 8.76172L150.652 9.16016L167.254 9.625C178.076 9.89279 188.903 9.73645 199.727 9.16016L216.328 8.23047L232.863 7.36719C244.395 6.75319 255.938 7.11639 267.461 8.49609L300.664 12.4805C311.421 13.7692 322.186 14.5505 332.938 14.7383L349.473 15.0039L366.074 15.2695C377.009 15.4605 387.944 15.4497 398.879 15.2031L415.48 14.8711L432.016 14.4727C442.963 14.2258 453.939 13.7877 464.887 13.1445L481.422 12.1484L498.023 11.1523C509.023 10.5061 520.027 9.83232 531.027 9.02734L547.629 7.76562L564.23 6.57031C575.651 5.7356 587.075 5.66304 598.496 6.37109L615.098 7.43359L631.633 8.42969C642.088 9.07808 652.572 8.6454 663.043 7.10156L679.578 4.64453L696.18 2.1875C708.301 0.400333 720.435 0.940966 732.504 3.78125L765.707 11.6172C776.115 14.0671 786.497 15.2445 796.852 15.2031L813.387 15.1367L829.988 15.0703C840.687 15.0276 851.422 14.3775 862.129 13.0117L878.664 10.8867L895.266 8.76172C906.421 7.33892 917.577 6.13979 928.734 5.17578L945.336 3.71484L961.871 2.32031C973.646 1.3031 985.447 1.79456 997.199 3.78125L1013.73 6.57031L1030.34 9.35938C1040.43 11.0665 1050.52 11.0736 1060.62 9.35938L1077.22 6.57031L1093.82 3.71484C1105.31 1.76127 1116.84 0.722501 1128.35 0.660156L1144.89 0.59375L1161.49 0.527344C1172.53 0.46753 1183.58 0.430482 1194.62 0.394531L1227.83 0.261719ZM1211.29 17.3281L1194.69 17.3945C1183.65 17.4305 1172.59 17.4676 1161.55 17.5273L1145.02 17.5938L1128.42 17.6602C1117.85 17.7176 1107.27 18.6496 1096.68 20.4492L1080.07 23.3047L1063.47 26.0938C1051.49 28.1294 1039.46 28.1859 1027.48 26.1602L1010.95 23.3047L994.344 20.5156C984.002 18.7687 973.652 18.3624 963.332 19.2539L946.797 20.7148L930.195 22.1094C919.264 23.0539 908.323 24.2344 897.391 25.6289L880.855 27.7539L864.254 29.8789C852.861 31.3321 841.456 32.0248 830.055 32.0703L813.453 32.1367L796.918 32.2031C785.185 32.25 773.468 30.9034 761.789 28.1523L745.188 24.2344L728.652 20.3828C718.63 18.0213 708.607 17.5846 698.637 19.0547L682.102 21.4453L665.5 23.9023C653.875 25.6156 642.211 26.1516 630.57 25.4297L614.035 24.3672L597.434 23.3711C586.771 22.7104 576.09 22.7234 565.426 23.5039L548.891 24.7656L532.289 25.9609C521.201 26.7725 510.108 27.5009 499.02 28.1523L482.418 29.1484L465.883 30.0781C454.731 30.7333 443.567 31.2211 432.414 31.4727L415.812 31.8047L399.277 32.2031C388.125 32.4547 376.961 32.4639 365.809 32.2695L332.605 31.7383C321.272 31.5396 309.933 30.772 298.605 29.4141L282.07 27.4219L265.469 25.4297C254.907 24.1635 244.347 23.8061 233.793 24.3672L217.191 25.2305L200.656 26.0938C189.386 26.6938 178.06 26.9044 166.789 26.625L150.254 26.1602L133.652 25.7617C122.64 25.4888 111.595 25.3081 100.582 25.1641L84.0469 24.9648L67.4453 24.6992C62.0116 24.6283 57.9997 24.6631 55.3594 24.6992C54.8843 25.0028 54.4331 25.2275 54.1641 25.3633C53.4568 25.7197 52.6041 26.1187 51.707 26.4922C49.8465 27.2665 47.1714 28.3364 43.7383 29.6133L33.4453 33.3984L23.2188 37.25C21.3915 37.9315 18.4025 40.1487 18.2383 50.3984L17.707 84.7969C17.53 95.9787 17.9271 106.995 18.9023 117.734L20.3633 134.27L21.8906 150.871C22.9075 162.071 23.6357 173.271 24.0156 184.473L24.5469 201.074L25.1445 217.609C25.5139 228.508 26.1379 239.185 27.0703 249.551L28.4648 265.355L29.9258 281.16C30.277 285.008 31.4202 287.274 32.7148 288.664C34.0248 290.057 36.236 291.367 40.1523 292.051L56.0234 294.84L71.8945 297.562C81.6535 299.257 91.6876 299.579 101.977 298.492L118.512 296.766L135.113 294.973C146.87 293.732 158.629 294.038 170.375 295.77L186.977 298.16L203.512 300.617C214.266 302.203 225.039 303.241 235.785 303.672L252.387 304.336L268.922 305C279.915 305.441 290.933 305.777 301.926 305.996L318.461 306.328L335.062 306.66C346.019 306.878 356.977 306.866 367.934 306.727L384.535 306.527L401.07 306.328C412.221 306.186 423.388 306.239 434.539 306.527L451.141 306.992L467.742 307.391C478.153 307.658 488.576 306.809 499.02 304.801L515.621 301.613L532.156 298.426C544.143 296.119 556.208 295.836 568.215 297.629L584.75 300.086L601.352 302.609C612.11 304.216 622.875 305.259 633.625 305.73L650.16 306.461L666.762 307.191C677.03 307.642 687.318 306.667 697.641 304.336L714.242 300.617L730.844 296.832C742.893 294.112 755.008 293.65 767.102 295.438L783.637 297.895L800.238 300.352C811.086 301.955 821.934 303.152 832.777 304.004L849.379 305.332L865.98 306.594C876.708 307.436 887.463 307.688 898.188 307.324L914.723 306.793L931.324 306.195C942.569 305.814 953.814 305.894 965.059 306.328L981.66 306.926L998.195 307.59C1008.78 307.998 1019.41 307.535 1030 306.195L1046.54 304.07L1063.14 302.012C1074.55 300.569 1085.99 299.826 1097.41 299.887L1113.94 300.02L1130.54 300.086C1141.61 300.145 1152.68 300.251 1163.75 300.418L1196.95 300.949C1207.91 301.115 1218.86 301.095 1229.82 300.949L1246.42 300.75L1262.96 300.551C1274.39 300.398 1285.86 301.01 1297.29 302.41L1313.82 304.402L1330.43 306.461C1341.08 307.766 1351.72 308.274 1362.37 308.055L1378.97 307.723L1395.5 307.391C1406.5 307.164 1417.51 306.819 1428.51 306.395L1445.11 305.797L1461.64 305.133C1472.47 304.715 1483.35 303.874 1494.18 302.609L1510.72 300.684L1527.32 298.758C1538.76 297.423 1550.2 296.923 1561.65 297.23L1578.25 297.629L1594.86 298.094C1605.68 298.385 1616.5 298.29 1627.33 297.762L1643.93 296.965L1660.46 296.102C1672.01 295.538 1683.59 296.028 1695.13 297.496L1711.66 299.621L1728.27 301.68C1739.1 303.058 1749.97 304.05 1760.8 304.602L1777.34 305.465L1793.94 306.262C1804.76 306.812 1815.6 306.921 1826.41 306.594L1842.95 306.129L1859.55 305.598C1870.3 305.272 1881.06 304.429 1891.82 303.008L1908.43 300.816L1924.96 298.625C1936.89 297.049 1948.84 297.363 1960.75 299.555L1993.96 305.664C2004.22 307.553 2014.47 307.961 2024.7 306.926L2041.24 305.266L2057.84 303.605C2069.07 302.469 2080.34 301.674 2091.57 301.281L2108.11 300.684L2124.71 300.152C2135.81 299.764 2146.94 299.452 2158.05 299.289L2174.58 299.09L2191.18 298.824C2202.25 298.662 2213.32 298.567 2224.39 298.492L2240.99 298.359L2257.52 298.227C2268.36 298.154 2279.23 297.671 2290.06 296.766L2306.6 295.371L2323.2 293.977C2335.03 292.989 2346.87 293.642 2358.66 295.902L2375.2 299.09L2391.8 302.277C2402.39 304.307 2412.97 305.412 2423.54 305.664L2440.14 306.062L2456.68 306.461C2465.86 306.68 2473.15 304.167 2479.05 299.156L2502.03 279.633C2507.56 274.936 2510.35 268.768 2510.13 260.242L2509.73 243.973L2509.27 227.703C2508.98 216.608 2509.17 205.378 2509.8 194.102L2510.73 177.566L2511.66 160.965C2512.28 149.919 2512.95 138.874 2513.59 127.828L2515.45 94.625C2516.02 84.5858 2514.85 74.8949 2511.93 65.5391L2502.23 34.4609C2501.05 30.6906 2499.42 28.772 2497.85 27.7539C2496.23 26.7125 2493.61 25.9249 2489.28 26.293L2455.41 29.2148C2443.71 30.2085 2432.11 30.2551 2420.62 29.4141L2404.02 28.2188L2387.48 27.0234C2376.83 26.2432 2366.13 26.1717 2355.47 26.8906L2338.94 28.0195L2322.34 29.1484C2310.54 29.9433 2298.76 29.1427 2287.01 26.8242L2253.8 20.3164C2243.42 18.2687 2233.07 17.4747 2222.73 17.9258L2189.52 19.3867C2178.59 19.8662 2167.65 20.5208 2156.72 21.3789L2140.12 22.6406L2123.52 23.9688C2112.32 24.8474 2101.12 25.4048 2089.91 25.6289L2073.31 25.9609L2056.78 26.293C2045.83 26.5116 2034.85 26.9039 2023.91 27.4883L2007.3 28.3516L1990.7 29.2812C1979.46 29.881 1968.21 30.0691 1956.97 29.8789L1940.43 29.6133L1923.83 29.3477C1912.5 29.1559 1901.16 28.3603 1889.83 27.0234L1873.23 25.0977L1856.7 23.1055C1845.85 21.8261 1835 20.9497 1824.16 20.4492L1807.55 19.6523L1790.95 18.9219C1780.29 18.4314 1769.61 18.6585 1758.95 19.5859L1742.41 20.9805L1725.81 22.4414C1714.83 23.396 1703.85 24.4805 1692.87 25.6953L1676.27 27.5547L1659.73 29.3477C1648.37 30.6053 1636.97 31.2605 1625.6 31.207L1609 31.0742L1592.46 31.0078C1581.16 30.9541 1569.83 30.4081 1558.53 29.3477L1541.93 27.8203L1525.39 26.2266C1514.82 25.2343 1504.22 25.1587 1493.65 25.9609L1477.12 27.2227L1460.52 28.4844C1448.76 29.3764 1436.99 28.7957 1425.25 26.7578L1408.72 23.9023L1392.12 20.9805C1381.72 19.1753 1371.34 18.6098 1360.97 19.2539L1344.37 20.3164L1327.84 21.3125C1316.39 22.0251 1304.88 21.938 1293.44 21.0469L1276.9 19.7852L1260.3 18.457C1249.48 17.6152 1238.64 17.2265 1227.83 17.2617L1211.29 17.3281Z" fill="black"/>
</svg>
