<svg width="2542" height="326" viewBox="0 0 2542 326" fill="none" xmlns="http://www.w3.org/2000/svg">
<path d="M1195.57 0.261719C1206.52 0.224973 1217.5 0.644186 1228.44 1.52344L1244.51 2.78516L1260.58 4.11328C1270.88 4.9389 1281.17 5.03999 1291.46 4.37891L1307.53 3.31641L1323.6 2.32031C1334.99 1.58947 1346.37 2.21252 1357.73 4.24609L1373.8 7.10156L1389.88 10.0234C1399.88 11.8165 1409.91 12.3321 1419.89 11.5508L1435.89 10.2891L1451.96 9.02734C1463.17 8.15003 1474.43 8.20828 1485.63 9.29297L1501.64 10.8867L1517.71 12.4141C1528.16 13.4262 1538.67 13.9565 1549.12 14.0078L1565.12 14.0742L1581.19 14.207C1591.56 14.2579 1601.96 13.6649 1612.34 12.4805L1628.41 10.6211L1644.48 8.82812C1655.25 7.59787 1666.04 6.47464 1676.82 5.50781L1692.89 4.04688L1708.96 2.65234C1720.05 1.65854 1731.14 1.39424 1742.23 1.92188L1758.3 2.71875L1774.37 3.44922C1785.28 3.96878 1796.19 4.91009 1807.11 6.23828L1823.18 8.16406L1839.25 10.1562C1849.66 11.4245 1860.11 12.1659 1870.52 12.3477L1886.53 12.6133L1902.6 12.8789C1913.1 13.0623 1923.64 12.8602 1934.14 12.2812L1966.28 10.5547C1977.08 9.95951 1987.88 9.51558 1998.69 9.29297L2030.83 8.62891C2041.36 8.41167 2051.9 7.8885 2062.44 7.03516L2078.51 5.70703L2094.58 4.44531C2105.38 3.57054 2116.18 2.87542 2126.98 2.38672L2159.12 0.925781C2170.54 0.409527 2181.95 1.33255 2193.32 3.64844L2225.46 10.1562C2235.44 12.1872 2245.42 12.8399 2255.35 12.1484L2271.35 11.0859L2287.42 9.95703C2298.54 9.18272 2309.7 9.18313 2320.82 10.0234L2336.89 11.2852L2352.96 12.4805C2362.98 13.2346 2373.01 12.7623 2383.05 11.0859L2399.12 8.42969L2415.12 5.70703C2426.52 3.80212 2437.97 3.34887 2449.39 4.3125L2465.46 5.64062L2481.46 7.03516C2494.45 8.13161 2504.88 13.8479 2511.21 24.6992L2518.32 36.7852L2525.36 48.9375C2531.02 58.6575 2533.36 69.758 2532.66 81.875L2530.8 114.016C2530.2 124.442 2530.07 134.867 2530.47 145.293L2531.07 161.363L2531.73 177.434C2532.12 187.738 2533.2 198.057 2535.05 208.379L2537.97 224.449L2540.83 240.52C2543.14 253.37 2540.7 265.479 2533.52 276.379L2515.59 303.605C2511.86 309.277 2507.01 313.662 2500.98 316.223C2494.97 318.774 2488.44 319.261 2481.73 318.082L2465.39 315.16L2449.05 312.305C2438.89 310.523 2428.85 310.054 2418.91 310.91L2386.77 313.699C2375.83 314.642 2364.9 315.151 2353.96 315.227L2321.82 315.492C2311.14 315.566 2300.43 315.663 2289.75 315.824L2273.68 316.09L2257.67 316.289C2247.02 316.45 2236.31 316.702 2225.66 317.086L2209.59 317.684L2193.59 318.281C2183.07 318.661 2172.5 319.375 2161.98 320.473L2145.91 322.199L2129.91 323.859C2118.37 325.063 2106.81 324.582 2095.31 322.398L2063.17 316.289C2053.35 314.422 2043.54 314.158 2033.75 315.492L2017.68 317.684L2001.61 319.809C1990.61 321.307 1979.61 322.254 1968.61 322.598L1952.54 323.129L1936.46 323.594C1925.53 323.935 1914.59 323.836 1903.66 323.262L1887.59 322.398L1871.52 321.602C1860.59 321.027 1849.64 319.981 1838.71 318.547L1822.64 316.422L1806.57 314.363C1796.37 313.025 1786.15 312.588 1775.96 313.102L1759.96 313.898L1743.89 314.695C1732.96 315.246 1722.01 315.397 1711.08 315.094L1678.94 314.164C1668.65 313.878 1658.36 314.385 1648.06 315.625L1615.92 319.477C1604.99 320.793 1594.05 321.697 1583.12 322.133L1567.05 322.797L1550.98 323.395C1540.22 323.823 1529.46 324.162 1518.7 324.391L1486.56 325.055C1475.45 325.291 1464.33 324.731 1453.23 323.328L1437.16 321.27L1421.09 319.277C1410.77 317.974 1400.45 317.344 1390.14 317.484L1374.07 317.75L1358 317.949C1347.21 318.098 1336.39 318.118 1325.59 317.949L1293.45 317.418C1282.78 317.252 1272.11 317.145 1261.45 317.086L1245.38 317.02L1229.3 316.887C1218.98 316.83 1208.63 317.53 1198.29 318.879L1182.29 320.938L1166.22 323.062C1155.04 324.522 1143.81 325.036 1132.62 324.59L1100.48 323.262C1089.98 322.844 1079.49 322.828 1069 323.195L1052.93 323.793L1036.86 324.324C1025.84 324.71 1014.81 324.486 1003.79 323.594L971.648 320.938C960.741 320.054 949.813 318.815 938.91 317.152L906.77 312.238C897.154 310.772 887.547 311.183 877.883 313.434L861.812 317.152L845.742 320.938C834.294 323.608 822.785 324.646 811.277 324.125L779.137 322.664C768.132 322.165 757.128 321.103 746.133 319.41L730.062 316.953L713.992 314.43C704.269 312.932 694.519 313.159 684.773 315.094L668.703 318.281L652.699 321.469C641.382 323.716 629.986 324.693 618.633 324.391L602.562 323.992L586.559 323.527C575.966 323.245 565.342 323.189 554.75 323.328L522.609 323.727C511.808 323.869 501.004 323.816 490.203 323.594L474.133 323.328L458.062 322.996C447.294 322.775 436.491 322.379 425.723 321.934L409.719 321.27L393.648 320.605C382.628 320.15 371.589 319.093 360.578 317.418L344.508 315.027L328.438 312.57C318.452 311.051 308.462 310.819 298.488 311.906L282.418 313.633L266.348 315.426C255.372 316.621 244.391 317.27 233.41 317.352L217.34 317.418L201.27 317.551C190.258 317.632 179.207 317.113 168.199 316.023L152.129 314.43L136.125 312.902C125.794 311.88 115.439 311.546 105.113 311.906L89.043 312.438L72.9727 313.035C60.5019 313.471 49.4012 310.143 40.3008 302.676L29.3438 293.711L18.4531 284.746C9.12797 277.09 4.2148 266.456 3.24609 253.801L1.98438 237.73L0.789062 221.66C-0.0699584 210.353 0.242113 199.02 1.78516 187.727L6.16797 155.586C7.58804 145.203 8.46194 134.816 8.69141 124.441L9.35547 92.3008C9.60937 80.7644 11.5212 69.9817 15.1992 60.0938L25.1602 33.3984C26.8997 28.7251 28.6803 24.6759 30.6055 21.5117C32.3353 18.67 35.0181 15.0848 39.0391 13.4102L43.2891 11.6836L47.4727 9.89062C50.2365 8.73955 53.848 8.29464 57.3008 8.03125C61.0369 7.74684 65.698 7.62527 71.1797 7.69922L87.25 7.96484L103.32 8.16406C114.056 8.30894 124.792 8.48722 135.527 8.76172L151.598 9.16016L167.668 9.625C178.15 9.89308 188.662 9.73603 199.145 9.16016L215.215 8.23047L231.219 7.36719C242.436 6.75099 253.679 7.17628 264.887 8.5625L280.957 10.4883L297.027 12.4805C307.436 13.7676 317.837 14.5502 328.238 14.7383L360.379 15.2695C370.972 15.4604 381.594 15.4496 392.188 15.2031L408.258 14.8711L424.328 14.4727C434.922 14.2258 445.542 13.7867 456.137 13.1445L472.207 12.1484L488.211 11.1523C498.87 10.5062 509.56 9.83214 520.219 9.02734L536.289 7.76562L552.359 6.57031C563.463 5.73182 574.591 5.66057 585.695 6.37109L601.766 7.43359L617.836 8.42969C627.924 9.07392 638.012 8.63814 648.117 7.10156L680.258 2.1875C692.075 0.390646 703.893 0.990783 715.652 3.84766L731.723 7.69922L747.793 11.6172C757.849 14.0617 767.878 15.2431 777.875 15.2031L810.016 15.0703C820.363 15.0276 830.737 14.3748 841.094 13.0117L873.234 8.76172C884.052 7.3384 894.888 6.14017 905.707 5.17578L921.777 3.78125L937.848 2.32031C949.296 1.3022 960.756 1.7887 972.18 3.78125L1004.32 9.35938C1014.05 11.0536 1023.75 11.064 1033.47 9.35938L1049.54 6.57031L1065.61 3.71484C1076.78 1.75587 1087.96 0.724286 1099.15 0.660156L1195.57 0.261719ZM1163.5 17.3945C1152.8 17.4304 1142.11 17.4676 1131.42 17.5273L1099.28 17.6602C1089.06 17.7173 1078.78 18.6508 1068.54 20.4492L1052.53 23.3047L1036.46 26.0938C1024.79 28.1417 1013.07 28.1923 1001.4 26.1602L985.328 23.3047L969.258 20.5156C959.271 18.7737 949.271 18.3659 939.309 19.2539L923.238 20.6484L907.168 22.1094C896.587 23.0529 886.008 24.2362 875.426 25.6289L843.285 29.8789C832.226 31.3338 821.15 32.0247 810.082 32.0703L777.941 32.2031C766.536 32.2486 755.155 30.909 743.809 28.1523L711.668 20.3164C702.014 17.9696 692.378 17.5949 682.781 19.0547L666.777 21.4453L650.707 23.9023C639.4 25.6224 628.031 26.1543 616.707 25.4297L600.637 24.3672L584.633 23.3711C574.329 22.7118 563.993 22.7273 553.688 23.5039L537.617 24.7656L521.547 25.9609C510.796 26.7728 500.024 27.5007 489.273 28.1523L473.203 29.1484L457.133 30.0781C446.319 30.7335 435.474 31.221 424.66 31.4727L408.656 31.8047L392.586 32.2031C381.769 32.4548 370.93 32.464 360.113 32.2695L327.973 31.7383C316.963 31.5399 305.906 30.7086 294.902 29.3477L278.898 27.4219L262.828 25.4297C252.616 24.1666 242.352 23.8067 232.148 24.3672L216.145 25.2305L200.074 26.0938C189.148 26.694 178.197 26.9036 167.27 26.625L151.199 26.1602L135.129 25.7617C124.453 25.4887 113.73 25.3081 103.055 25.1641L86.9844 24.9648L70.9805 24.6992C65.7667 24.6289 61.6552 24.7357 58.6289 24.9648C57.1232 25.0795 55.9485 25.2159 55.1094 25.3633C54.4594 25.4778 54.1346 25.6025 54.0469 25.6289L49.7969 27.3555L46.2109 28.8164C45.993 29.0647 45.6347 29.5459 45.1484 30.3438C44.0143 32.2068 42.6623 35.169 41.0977 39.375L36.1172 52.6562L31.1367 66.0039C28.2013 73.8946 26.5749 82.7593 26.3555 92.6328L25.6914 124.773C25.4485 135.809 24.5433 146.883 23.0352 157.91L20.8438 173.914L18.6523 189.984C17.2691 200.098 16.956 210.228 17.7227 220.332L18.918 236.402L20.1797 252.473C20.8444 261.221 23.9833 267.302 29.2109 271.598L40.168 280.562L51.0586 289.527C56.522 294.013 63.4311 296.347 72.375 296.035L88.4453 295.438L104.516 294.906C115.603 294.519 126.703 294.872 137.785 295.969L169.926 299.156C180.329 300.185 190.738 300.627 201.137 300.551L217.207 300.418L233.277 300.352C243.693 300.274 254.134 299.628 264.555 298.492L280.625 296.766L296.695 294.973C308.121 293.73 319.548 294.035 330.961 295.77L347.031 298.16L363.102 300.617C373.504 302.2 383.92 303.242 394.312 303.672L426.453 305C437.1 305.44 447.748 305.777 458.395 305.996L490.535 306.66C501.15 306.878 511.796 306.866 522.41 306.727L538.414 306.527L554.484 306.328C565.299 306.186 576.142 306.239 586.957 306.527L603.027 306.992L619.098 307.391C629.164 307.659 639.276 306.806 649.379 304.801L681.52 298.426C693.184 296.113 704.895 295.828 716.582 297.629L732.652 300.152L748.723 302.609C759.126 304.211 769.54 305.26 779.934 305.73L812.074 307.191C821.977 307.637 831.928 306.659 841.891 304.336L857.961 300.617L873.965 296.832C885.712 294.092 897.564 293.639 909.359 295.438L925.43 297.895L941.434 300.352C951.939 301.954 962.476 303.152 972.977 304.004L989.047 305.332L1005.12 306.594C1015.5 307.435 1025.89 307.687 1036.26 307.324L1052.33 306.793L1068.4 306.195C1079.31 305.813 1090.23 305.894 1101.14 306.328L1117.21 306.926L1133.28 307.59C1143.5 307.997 1153.74 307.528 1163.96 306.195L1180.03 304.07L1196.1 302.012C1207.18 300.566 1218.28 299.827 1229.37 299.887L1245.44 300.02L1261.51 300.086C1272.24 300.145 1282.99 300.251 1293.72 300.418L1325.86 300.949C1336.48 301.115 1347.11 301.095 1357.73 300.949L1389.88 300.551C1400.98 300.398 1412.11 301.007 1423.21 302.41L1439.28 304.402L1455.35 306.461C1465.64 307.761 1475.95 308.274 1486.23 308.055L1518.37 307.391C1529.02 307.164 1539.67 306.819 1550.31 306.395L1566.38 305.797L1582.45 305.133C1592.93 304.715 1603.45 303.872 1613.93 302.609L1629.93 300.684L1646 298.758C1657.13 297.419 1668.28 296.921 1679.41 297.23L1695.48 297.629L1711.55 298.094C1722.03 298.385 1732.54 298.29 1743.02 297.762L1759.09 296.965L1775.16 296.102C1786.38 295.538 1797.63 296.026 1808.83 297.496L1824.84 299.621L1840.91 301.68C1851.39 303.056 1861.9 304.05 1872.38 304.602L1888.45 305.465L1904.52 306.262C1914.99 306.812 1925.47 306.92 1935.93 306.594L1952 306.129L1968.07 305.598C1978.49 305.273 1988.93 304.428 1999.35 303.008L2015.42 300.816L2031.43 298.625C2043.04 297.042 2054.7 297.353 2066.29 299.555L2098.43 305.664C2108.34 307.548 2118.24 307.957 2128.11 306.926L2160.25 303.605C2171.14 302.469 2182.03 301.675 2192.93 301.281L2209 300.684L2225.07 300.152C2235.84 299.764 2246.64 299.452 2257.41 299.289L2273.48 299.09L2289.55 298.824C2300.26 298.662 2310.97 298.567 2321.69 298.492L2353.83 298.227C2364.31 298.154 2374.82 297.67 2385.3 296.766L2417.45 293.977C2428.91 292.989 2440.46 293.537 2452.04 295.57L2468.38 298.426L2484.65 301.281C2488.8 302.01 2491.93 301.638 2494.34 300.617C2496.75 299.595 2499.14 297.648 2501.38 294.242L2519.31 267.016C2524.08 259.765 2525.63 252.072 2524.09 243.508L2521.24 227.438L2518.32 211.367C2516.33 200.288 2515.15 189.195 2514.73 178.098L2514.13 162.027L2513.47 145.957C2513.05 134.979 2513.17 123.997 2513.8 113.02L2515.66 80.8789C2516.2 71.5982 2514.42 63.9277 2510.68 57.5039L2503.57 45.3516L2496.54 33.2656C2493.44 27.9654 2488.47 24.6816 2480.07 23.9688L2464 22.5742L2447.93 21.2461C2437.96 20.4067 2427.98 20.8378 2417.98 22.5078L2401.91 25.1641L2385.84 27.8867C2374.46 29.7876 2363.04 30.2755 2351.64 29.4141L2319.5 27.0234C2309.2 26.2469 2298.91 26.174 2288.62 26.8906L2256.48 29.1484C2244.99 29.9462 2233.52 29.1545 2222.08 26.8242L2189.94 20.3164C2179.91 18.2741 2169.91 17.4759 2159.92 17.9258L2127.78 19.3867C2117.18 19.866 2106.57 20.5208 2095.97 21.3789L2079.9 22.6406L2063.83 23.9688C2052.95 24.8499 2042.04 25.4047 2031.16 25.6289L1999.02 26.293C1988.42 26.5117 1977.81 26.9041 1967.21 27.4883L1951.14 28.3516L1935.07 29.2812C1924.16 29.8825 1913.24 30.0693 1902.33 29.8789L1870.19 29.3477C1859.19 29.1554 1848.19 28.3624 1837.19 27.0234L1821.12 25.0977L1805.05 23.1055C1794.55 21.8282 1784.06 20.9489 1773.57 20.4492L1757.5 19.6523L1741.43 18.9219C1731.12 18.4312 1720.8 18.6619 1710.48 19.5859L1694.41 20.9805L1678.34 22.4414C1667.7 23.3959 1657.04 24.4806 1646.4 25.6953L1630.33 27.5547L1614.26 29.3477C1603.22 30.6079 1592.17 31.2612 1581.12 31.207L1565.05 31.0742L1548.98 31.0078C1538.03 30.9535 1527.07 30.4079 1516.11 29.3477L1500.04 27.8203L1483.97 26.2266C1473.75 25.2372 1463.51 25.1611 1453.29 25.9609L1437.22 27.2227L1421.22 28.4844C1409.78 29.3803 1398.3 28.8033 1386.89 26.7578L1370.82 23.8359L1354.75 20.9805C1344.71 19.1832 1334.67 18.6109 1324.66 19.2539L1308.59 20.3164L1292.52 21.3125C1281.41 22.0249 1270.3 21.9393 1259.19 21.0469L1243.12 19.7852L1227.05 18.457C1216.58 17.6166 1206.1 17.2266 1195.64 17.2617L1163.5 17.3945Z" fill="black"/>
</svg>
